 <svg version="1.0" xmlns="http://www.w3.org/2000/svg" width="700.000000pt" height="700.000000pt" viewBox="0 0 700.000000 700.000000" preserveAspectRatio="xMidYMid meet">
<metadata>
Created by potrace 1.12, written by Peter Selinger 2001-2015
</metadata>
<g transform="translate(0.000000,700.000000) scale(0.100000,-0.100000)" fill="#000000" stroke="none">
<path d="M3840 6246 c-55 -17 -168 -64 -275 -117 -44 -21 -92 -41 -107 -44
-15 -3 -56 -25 -92 -50 -36 -24 -77 -47 -90 -51 -14 -3 -30 -12 -37 -20 -6 -8
-21 -14 -34 -14 -12 0 -34 -13 -48 -30 -15 -16 -34 -30 -42 -30 -8 0 -19 -9
-25 -20 -6 -11 -20 -20 -31 -20 -11 0 -30 -11 -43 -25 -13 -14 -28 -25 -33
-25 -6 0 -31 -24 -56 -52 -67 -79 -209 -213 -263 -250 -19 -13 -37 -32 -40
-43 -4 -11 -20 -35 -35 -53 -16 -18 -29 -37 -29 -42 0 -4 -18 -28 -41 -52 -22
-23 -59 -77 -81 -118 -45 -81 -47 -84 -142 -206 -70 -91 -75 -102 -105 -227
-24 -101 -26 -143 -7 -212 11 -44 11 -57 -6 -115 -11 -36 -24 -83 -30 -105 -5
-22 -16 -53 -23 -70 -8 -16 -26 -61 -41 -100 -47 -123 -45 -121 -116 -129
-114 -13 -165 -38 -243 -119 -38 -40 -93 -93 -122 -117 -39 -34 -54 -56 -63
-90 -14 -52 -49 -94 -103 -122 -21 -10 -68 -39 -103 -64 -40 -27 -76 -44 -94
-44 -16 0 -41 -11 -56 -24 -28 -23 -28 -24 -15 -79 10 -40 12 -88 7 -174 -4
-65 -9 -152 -12 -193 -2 -41 -9 -105 -15 -142 -10 -61 -14 -68 -50 -93 l-39
-28 1 -121 c1 -66 6 -129 11 -139 5 -10 37 -47 71 -82 53 -54 75 -68 156 -100
103 -41 171 -53 244 -45 39 5 55 13 82 43 38 42 68 47 103 17 26 -22 23 -52
-11 -108 -16 -28 -18 -43 -13 -92 6 -49 3 -66 -14 -99 -37 -74 -20 -115 48
-115 21 0 40 -4 44 -9 9 -15 -9 -58 -38 -88 -14 -14 -26 -39 -27 -54 -2 -23 5
-33 32 -49 19 -12 52 -38 72 -60 40 -40 50 -43 131 -30 46 6 50 5 92 -34 50
-46 77 -57 104 -43 29 15 34 54 17 120 -9 37 -13 76 -8 106 6 45 8 48 57 70
28 13 66 35 85 49 40 30 87 41 136 32 80 -15 83 -55 13 -193 l-51 -102 12 -99
c14 -106 9 -127 -40 -191 -23 -28 -25 -91 -5 -129 12 -23 12 -32 1 -60 -8 -17
-20 -32 -27 -32 -8 0 -29 -13 -48 -30 -19 -16 -45 -29 -57 -30 -28 0 -104 -39
-120 -61 -7 -9 -27 -22 -45 -29 -18 -7 -40 -19 -48 -26 -8 -6 -29 -15 -47 -19
-17 -3 -37 -13 -44 -21 -6 -8 -19 -14 -28 -14 -9 0 -31 -9 -49 -20 -18 -11
-51 -22 -72 -23 -22 -1 -45 -8 -52 -15 -7 -7 -21 -12 -33 -12 -12 0 -30 -7
-41 -15 -10 -8 -26 -15 -35 -15 -9 0 -27 -8 -40 -19 -26 -19 -138 -61 -167
-61 -9 0 -35 -7 -57 -15 -22 -8 -65 -15 -95 -15 -30 0 -73 -8 -95 -16 -22 -9
-65 -20 -95 -26 -30 -6 -64 -17 -75 -24 -11 -8 -28 -14 -38 -14 -10 0 -39 -8
-65 -19 -26 -10 -76 -28 -112 -39 -97 -31 -218 -78 -243 -95 -12 -8 -38 -18
-57 -22 -19 -4 -112 -44 -206 -90 -94 -46 -194 -91 -222 -101 l-52 -19 0 -97
0 -98 3500 0 3500 0 0 1650 c0 1086 -3 1650 -10 1650 -19 0 -70 83 -70 113 0
17 11 59 26 94 14 37 22 72 19 84 -4 11 -32 32 -63 48 -31 16 -88 52 -127 81
-88 66 -124 81 -274 119 -193 49 -241 86 -241 188 0 50 -1 53 -52 95 -94 78
-115 102 -138 163 -22 59 -22 61 -7 155 10 64 13 110 7 140 -15 85 -48 183
-64 192 -9 5 -16 14 -16 20 0 7 -10 23 -23 37 -28 31 -47 92 -47 149 0 104
-94 275 -268 489 -90 110 -104 121 -363 300 -96 66 -224 136 -344 188 -60 26
-171 77 -245 112 -289 139 -439 182 -670 188 -104 3 -158 1 -190 -9z m763
-1236 c63 -10 142 -29 174 -43 70 -29 159 -63 193 -73 56 -15 231 -108 324
-172 128 -86 157 -129 163 -240 2 -43 10 -104 18 -137 8 -33 17 -82 21 -110 7
-54 36 -139 77 -226 15 -30 36 -94 47 -144 27 -111 23 -274 -10 -492 -17 -114
-10 -285 13 -310 20 -22 21 -41 12 -138 -8 -81 7 -140 28 -112 7 8 26 17 44
19 30 2 33 -1 67 -66 43 -82 44 -99 10 -133 -14 -14 -28 -41 -31 -60 -3 -19
-12 -37 -20 -40 -18 -7 -71 43 -88 85 -18 42 -33 41 -40 -5 -4 -21 -11 -51
-17 -68 -15 -43 -37 -137 -55 -235 -8 -47 -31 -125 -50 -175 -30 -78 -37 -111
-48 -245 -8 -85 -14 -183 -15 -217 l0 -62 -54 -41 c-30 -23 -64 -57 -75 -75
-12 -21 -31 -37 -48 -41 -15 -4 -104 -44 -196 -90 -208 -104 -257 -109 -257
-27 0 47 18 79 62 109 22 15 46 41 54 57 14 26 14 34 -2 84 l-18 55 50 44 c54
47 87 55 104 24 6 -11 18 -20 28 -20 47 0 158 103 187 174 19 46 19 52 -5 76
-18 18 -29 19 -152 14 -164 -8 -257 -32 -308 -80 -19 -18 -53 -41 -75 -50 -53
-22 -198 -31 -230 -14 -13 7 -38 10 -56 8 -40 -6 -142 43 -177 84 -13 15 -41
32 -63 38 -28 8 -43 19 -51 38 -7 15 -21 34 -31 43 -26 21 -12 48 46 88 57 39
94 88 109 145 12 44 11 47 -15 74 -24 25 -43 32 -130 47 -56 10 -114 24 -129
31 -15 8 -39 14 -53 14 -14 0 -41 7 -60 14 -27 12 -35 21 -35 40 0 35 17 37
335 52 l130 6 68 -36 c39 -21 81 -36 101 -36 41 0 121 -66 143 -117 32 -77
126 -150 158 -123 18 15 21 164 5 233 -5 23 -11 78 -13 123 -3 79 -3 81 24 96
38 22 61 60 66 112 7 62 -11 107 -71 179 -29 34 -59 75 -67 91 -14 30 -78 82
-218 176 -108 74 -124 67 -114 -49 11 -120 -9 -133 -119 -81 -76 36 -101 37
-169 6 -29 -14 -57 -22 -63 -18 -6 3 -36 25 -66 48 -30 22 -67 47 -81 55 -14
8 -47 33 -73 55 -56 50 -58 72 -20 177 76 207 77 209 84 337 8 141 31 218 82
276 38 43 82 46 127 8 48 -40 54 -57 41 -121 -17 -79 0 -137 49 -167 20 -13
43 -31 51 -40 7 -10 34 -32 59 -49 25 -17 63 -48 83 -69 21 -21 44 -38 51 -38
7 0 29 -9 49 -20 64 -34 123 -42 205 -29 40 7 76 16 79 21 4 5 -3 20 -15 32
-33 35 -27 62 19 91 54 34 60 53 27 79 -15 12 -27 28 -27 36 1 8 21 37 46 64
l45 49 57 -13 c59 -13 126 -42 137 -60 7 -11 55 -14 54 -2 -3 30 -52 92 -94
120 -57 37 -189 82 -241 82 -19 0 -50 7 -69 14 -29 12 -35 20 -35 45 0 17 5
40 11 53 13 28 160 125 211 139 31 8 38 14 38 34 0 28 -38 61 -85 74 -53 14
-413 -1 -490 -21 -21 -5 -58 -27 -81 -47 -32 -28 -66 -45 -132 -64 -109 -33
-149 -34 -210 -3 -26 13 -58 27 -72 31 -14 4 -65 27 -115 50 -49 23 -117 50
-150 59 -33 10 -118 35 -190 58 -71 22 -148 46 -170 53 -36 11 -40 15 -37 41
2 16 14 46 27 66 52 79 88 109 205 168 147 76 189 105 240 174 48 65 64 75
150 92 100 20 641 9 793 -16z m-1287 -1526 c70 -34 83 -91 34 -148 -43 -48
-105 -70 -180 -63 -74 6 -150 42 -168 79 -32 68 58 148 152 134 22 -3 55 -2
71 3 43 13 53 13 91 -5z m1170 -450 c4 -14 14 -29 24 -34 10 -5 40 -37 66 -71
27 -33 68 -84 92 -112 23 -28 42 -61 42 -73 0 -61 -31 -70 -83 -24 -19 17 -45
30 -58 30 -13 0 -46 7 -73 15 -26 8 -69 17 -95 21 -37 5 -55 15 -93 52 -40 38
-48 52 -48 82 0 34 5 39 78 87 104 68 136 74 148 27z m-310 -295 c19 -11 55
-24 81 -27 25 -4 48 -13 51 -20 6 -18 -24 -14 -98 11 -77 27 -92 35 -85 48 9
13 13 12 51 -12z m-2696 -268 c0 -14 -41 -41 -62 -41 -25 0 -23 16 4 34 25 18
58 21 58 7z m1168 -359 c6 -9 12 -32 12 -52 0 -30 -5 -39 -25 -48 -49 -23 -55
-17 -55 52 0 65 8 79 40 68 8 -3 21 -12 28 -20z m2652 -1029 c0 -18 -28 -53
-42 -53 -11 0 -10 27 2 51 13 23 40 25 40 2z"></path>
</g>
</svg>