<?xml version="1.0" encoding="utf-8"?>
<!-- Generator: Adobe Illustrator 21.1.0, SVG Export Plug-In . SVG Version: 6.00 Build 0)  -->
<svg version="1.1" xmlns="http://www.w3.org/2000/svg" xmlns:xlink="http://www.w3.org/1999/xlink" x="0px" y="0px"
	 viewBox="0 0 32 32" style="enable-background:new 0 0 32 32;" xml:space="preserve">
<style type="text/css">
	.st0{fill:#464645;}
	.st1{fill:#0000FF;}
	.st2{fill:#FF0000;}
	.st3{fill:#E9570F;}
	.st4{fill:#BAB9FF;}
	.st5{fill:#1C1C1C;}
	.st6{fill:#2F50B0;}
	.st7{fill:#CAAB60;}
	.st8{fill:#4096D0;}
	.st9{fill:#21C8B4;}
	.st10{fill:#002342;}
	.st11{fill:#005281;}
	.st12{fill:#F80000;}
	.st13{fill:#F55749;}
	.st14{fill:#272731;}
	.st15{fill:#FF4081;}
	.st16{fill:#FEBF51;}
	.st17{fill:#673300;}
	.st18{fill:#00A5E7;}
	.st19{fill:#4240A1;}
	.st20{fill:#185095;}
	.st21{fill:#BDDBEE;}
	.st22{fill:#044AAC;}
	.st23{fill:#346FCE;}
	.st24{fill:#24DD7B;}
	.st25{fill:#521C72;}
	.st26{fill:#DE1A80;}
	.st27{fill:#657BED;}
	.st28{fill:#2F3F54;}
	.st29{fill:#0097E8;}
	.st30{fill:#6382C2;}
	.st31{fill:#FF183D;}
	.st32{fill:#0F63D8;}
	.st33{fill:#253238;}
	.st34{fill:#0093A9;}
	.st35{fill:#008CBE;}
	.st36{fill:#2D9CDB;}
	.st37{fill:#E3A719;}
	.st38{fill:#5DC6BA;}
	.st39{fill:#333333;}
	.st40{fill:#363635;}
	.st41{fill:#D6395F;}
	.st42{fill:#F99600;}
	.st43{fill:#4D4D4F;}
	.st44{fill:#1272BE;}
	.st45{fill:#00CF54;}
	.st46{fill:#0092B5;}
	.st47{fill:#EA5C4F;}
	.st48{fill:#104FCA;}
	.st49{fill:#7B346E;}
	.st50{fill:none;stroke:#000000;stroke-width:0.1;stroke-miterlimit:10;}
	.st51{fill:#37DCD8;}
	.st52{fill:#C80000;}
	.st53{fill:#066EBE;}
	.st54{fill:#27BAE0;}
	.st55{fill:#CB8F00;}
	.st56{fill:#6AB87F;}
	.st57{fill:#B26FFF;}
	.st58{fill:#F4AE95;}
	.st59{fill:#F24748;}
	.st60{fill:#0351BE;}
	.st61{fill:#798E97;}
	.st62{fill:#E73730;}
	.st63{fill:#164B79;}
	.st64{fill:#0096D8;}
	.st65{fill:#47B4DD;}
	.st66{fill:#273D4B;}
	.st67{fill:#3E3A39;}
	.st68{fill:#39C0B5;}
	.st69{fill:#17284C;}
	.st70{fill:#3B9ACC;}
	.st71{fill:#151A2F;}
	.st72{fill:#344269;}
	.st73{fill:#21CBFF;}
	.st74{fill:#2D2D2D;}
	.st75{fill:#00233D;}
	.st76{fill:#0062BF;}
	.st77{fill:#F9B23E;}
	.st78{fill:#DE5C6E;}
	.st79{fill:#F88900;}
	.st80{fill:#EC555E;}
	.st81{fill:#B8D75C;}
	.st82{fill:#D5E400;}
	.st83{fill:#00969C;}
	.st84{fill:#BE1004;}
	.st85{fill:#00C6DD;}
	.st86{fill:#151037;}
	.st87{fill:#0078C6;}
	.st88{fill:#F0DA67;}
	.st89{fill:#EC5005;}
	.st90{fill:#686DB2;}
	.st91{fill:#EABE51;}
	.st92{fill:#333245;}
	.st93{fill:#2C398F;}
	.st94{fill:#FFFFFF;}
	.st95{fill:#1267FF;}
	.st96{fill:#00A7E9;}
	.st97{fill:#F00000;}
	.st98{fill-rule:evenodd;clip-rule:evenodd;fill:#FFFFFF;}
	.st99{opacity:0.498;fill:#FFFFFF;}
	.st100{opacity:0.6;fill:#FFFFFF;}
	.st101{opacity:0.8;fill:#FFFFFF;}
	.st102{fill:#FAFBF8;}
	.st103{fill:#925518;}
	.st104{opacity:0.5;fill:#FFFFFF;}
	.st105{fill:#D3BBA3;}
	.st106{fill:#62D0DD;}
	.st107{fill:#468CC4;}
	.st108{fill:#23A8DB;}
	.st109{fill:#5DD2EF;}
	.st110{fill:#DEE0E4;}
	.st111{opacity:0.3;fill:#FFFFFF;}
	.st112{fill:#FBB03B;}
	.st113{fill:#CD9A24;}
	.st114{fill:#FBCA3B;}
	.st115{fill:#C59B4D;}
	.st116{fill:#71AAD8;}
	.st117{fill:#418ECB;}
	.st118{fill:#D0E3F2;}
	.st119{fill:#E0BC66;}
	.st120{fill:#EAD299;}
	.st121{fill:#F5E9CC;}
	.st122{fill:#DDE8F6;}
	.st123{fill:#BCD1EE;}
	.st124{fill:#9ABAE5;}
	.st125{fill:#78A2DC;}
	.st126{fill:#578BD4;}
	.st127{fill:#3574CB;}
	.st128{fill:#00FFFF;}
	.st129{fill:#FAD7D6;}
	.st130{fill:#F18783;}
	.st131{fill:#F5AFAC;}
	.st132{fill:#CCEAF7;}
	.st133{fill:#66C0E8;}
	.st134{fill:#99D5EF;}
	.st135{fill:#54C719;}
	.st136{fill:#FDE0B2;}
	.st137{fill:#FBD18B;}
	.st138{fill:#FEF0D8;}
	.st139{fill:#A0B3BE;}
	.st140{fill:#3B474D;}
	.st141{fill:#E2A560;}
	.st142{fill:#E9BA5D;}
	.st143{fill:#010100;}
	.st144{fill:#C3C5E0;}
	.st145{fill:#F2D897;}
	.st146{fill:#FBF2DC;}
	.st147{fill:#FCC900;}
</style>
<g id="bgs">
	<path class="st20" d="M32,16c0,0.1,0,0.2,0,0.3c0,1.8-0.3,3.6-0.9,5.2c-0.8,2.1-2,4-3.8,5.8C24.2,30.4,20.4,32,16,32
		c-4.4,0-8.2-1.6-11.3-4.7l0,0c-0.8-0.8-1.5-1.7-2.1-2.6c-1.4-2.1-2.3-4.5-2.5-7.2c0-0.1,0-0.1,0-0.2c0-0.4,0-0.9,0-1.3
		c0-2.5,0.5-4.8,1.5-6.9c0,0,0,0,0-0.1c0.3-0.6,0.7-1.3,1.1-1.9c0.6-0.8,1.2-1.6,2-2.4C7.8,1.6,11.6,0,16,0c4.4,0,8.2,1.6,11.3,4.7
		c1.4,1.4,2.5,2.9,3.2,4.5c0,0,0,0,0,0c0.3,0.6,0.5,1.2,0.7,1.9c0.2,0.7,0.4,1.5,0.5,2.2c0,0.3,0.1,0.7,0.1,1.1C32,15,32,15.5,32,16
		z"/>
	<path class="st21" d="M31.8,13.4v3.9H0c0-0.4,0-0.9,0-1.3c0-2.5,0.5-4.8,1.5-6.9c0,0,0-0.1,0-0.1l0,0c0.3-0.6,0.7-1.3,1.1-1.9
		c0.6-0.8,1.2-1.6,2-2.4C7.8,1.6,11.6,0,16,0c4.4,0,8.2,1.6,11.3,4.7c1.4,1.4,2.5,2.9,3.2,4.5c0,0,0,0,0,0c0.3,0.6,0.5,1.2,0.7,1.9
		C31.5,11.9,31.7,12.6,31.8,13.4z"/>
</g>
<g id="icons">
	<path class="st103" d="M30.7,17.3c-0.2,0.3-0.4,0.6-0.8,0.7c-0.3,0.1-0.6,0.1-1.1,0c-0.9-0.1-2.1-0.4-3.5-0.7
		c-1-0.2-2.1-0.5-3.1-0.6c-1.2-0.2-2.4-0.2-3.5,0c-0.5,0.1-1.1,0.2-1.5,0.5c-0.1,0-0.2,0.1-0.3,0.1c-0.6,0.3-1.1,0.5-1.8,0.8
		c-1.1,0.4-2.2,0.8-3.4,1.1c-3,0.7-5.9,0.5-7.4-1.8c0,0,0,0,0-0.1C1.9,13.5,1.4,11,1.5,9.1c0,0,0-0.1,0-0.1l0,0
		c0.6,0.6,1.2,1,1.9,1.2c1.9,0.7,4-0.1,6.6-3.2C13.6,2.8,20,4.3,23,7.8c2.6,3,5.6,3.2,7.2,3c0.2,0,0.5-0.1,0.6-0.1
		c0.1,0.5,0.1,1.1,0.2,1.7C31.2,14.1,31.3,16.2,30.7,17.3z"/>
	<path class="st105" d="M19.8,14.9c-3.5,0-3.5-0.4-3.5-0.4l3-10.3c0.2-0.6,1-0.6,1.2,0l3,10.3C23.3,14.5,23.3,14.9,19.8,14.9z"/>
	<path class="st105" d="M25.5,11.6c-1.8,0-1.8-0.2-1.8-0.2l1.5-5.1c0.1-0.3,0.5-0.3,0.6,0l1.5,5.1C27.3,11.4,27.3,11.6,25.5,11.6z"
		/>
	<path class="st94" d="M26.9,13.1c-1.8,0-1.8-0.2-1.8-0.2l1.5-5.1c0.1-0.3,0.5-0.3,0.6,0l1.5,5.1C28.6,12.9,28.6,13.1,26.9,13.1z"/>
	<path class="st94" d="M7.6,11.2c-1.7,0-1.7-0.2-1.7-0.2l1.4-5c0.1-0.3,0.5-0.3,0.6,0l1.4,5C9.3,11,9.3,11.2,7.6,11.2z"/>
	<path class="st105" d="M12.2,14.9c-3.5,0-3.5-0.4-3.5-0.4l3-10.3c0.2-0.6,1-0.6,1.2,0l3,10.3C15.8,14.5,15.8,14.9,12.2,14.9z"/>
	<path class="st94" d="M16,13.5c-3.5,0-3.5-0.4-3.5-0.4l3-10.3c0.2-0.6,1-0.6,1.2,0l3,10.3C19.5,13,19.5,13.5,16,13.5z"/>
	<path class="st106" d="M32,16.3c-0.1,0.1-0.1,0.2-0.2,0.4c-0.1,0.2-0.2,0.4-0.3,0.6c-1.6,3.4-3.1,6.6-6.5,4c-1.8-1.4-3.7-3-5.3-4
		c-0.3-0.2-0.7-0.4-1-0.6c-1.4-0.8-2.6-0.9-3.1,0.3c-0.1,0.1-0.1,0.2-0.2,0.3c-0.1,0.2-0.2,0.5-0.4,0.8c-1.4,2.8-4.2,6.6-7.5,6.3
		c-1.7-0.1-3.5,0.2-5.1,0.3c-1.4-2.1-2.3-4.5-2.5-7.2c0-0.1,0-0.1,0-0.2c0-0.4,0-0.9,0-1.3c0-2.5,0.5-4.8,1.5-6.9c0,0,0-0.1,0-0.1
		l0,0c0.3-0.6,0.7-1.3,1.1-1.9c0.2,0.9,0.4,2,0.8,3.1c1.1,3,3.2,5.9,6.6,4.4c1.4-0.6,2.4-1.2,3.4-1.6c2.8-1.4,4.5-1.6,9,1.9
		c2.7,2.1,6.4,0.8,7.8-4.1c0.1-0.5,0.2-1,0.3-1.5c0.3,0.6,0.5,1.2,0.7,1.9c0.2,0.7,0.4,1.5,0.5,2.2c0,0.3,0.1,0.7,0.1,1.1L32,16.3z"
		/>
	<path class="st107" d="M32,16.3c0,1.8-0.3,3.6-0.9,5.2c-0.5,1-1.2,1.8-2.1,2.3c-2.1,1.1-4.2,0.9-5.9-1.9c-1.7-2.8-4.4-4.2-6.1-3.4
		c-1.7,0.8,1.8,2.3,2.5,4.3s0.1,4.2-1.8,4.9c-1.9,0.7-2.6,0-4-1.6c-1.3-1.6-2.7-0.6-4.2,0.4c-1.1,0.7-3,1.1-4.8,0.7l0,0l-2.1-2.6
		c-1.4-2.1-2.3-4.5-2.5-7.2c1.9,2.8,4.5,5.2,7.3,4.9c2.5-0.2,4-1.6,4.4-3.3c0.1-0.6,0.1-1.2-0.1-1.9c-0.1-0.3-0.3-0.7-0.5-1
		c-0.4-0.6-0.8-1.2-1.1-1.7c-1-1.6-1.2-2.7,1.8-2.4c0.5,0,1.1,0.4,1.6,0.8c1.4,1,2.9,2.6,4.5,2.6c1.8,0,3.3,0.3,4.2,1.2
		c0.2,0.2,0.3,0.4,0.5,0.6c0.1,0.1,0.1,0.2,0.2,0.3c0.8,1.6,3.6,3,5.9,0.5c0,0,0,0,0,0c0.2-0.2,0.4-0.5,0.5-0.7
		c0.9-1.4,1.4-3.3,1.8-5c0.1-0.4,0.2-0.8,0.2-1.2c0.2,0.7,0.4,1.5,0.5,2.2c0,0.3,0.1,0.7,0.1,1.1L32,16.3z"/>
</g>
</svg>
