<?xml version="1.0" encoding="UTF-8" standalone="no"?>
<svg width="64px" height="64px" viewBox="0 0 64 64" version="1.1" xmlns="http://www.w3.org/2000/svg" xmlns:xlink="http://www.w3.org/1999/xlink">
    <!-- Generator: Sketch 43.1 (39012) - http://www.bohemiancoding.com/sketch -->
    <title>CoreRZ_logo--light</title>
    <desc>Created with Sketch.</desc>
    <defs>
        <radialGradient cx="42.5206673%" cy="38.5867626%" fx="42.5206673%" fy="38.5867626%" r="57.2063492%" id="radialGradient-1">
            <stop stop-color="#FFFFFF" offset="0%"></stop>
            <stop stop-color="#78ADD0" offset="100%"></stop>
        </radialGradient>
    </defs>
    <g id="Symbols" stroke="none" stroke-width="1" fill="none" fill-rule="evenodd">
        <g id="CoreRZ_logo--light" fill-rule="nonzero">
            <g id="64x64" transform="translate(-7.000000, -7.000000)">
                <circle id="Oval" fill="url(#radialGradient-1)" transform="translate(38.500000, 38.500000) rotate(-13.280000) translate(-38.500000, -38.500000) " cx="38.5" cy="38.5" r="31.5"></circle>
                <path d="M37.4958077,48.9842047 C34.9200671,48.9842047 32.3543879,48.7530534 30,48.4716519 C30,32.8438154 32.0726663,20.9043493 39.216322,12 C46.5583251,12.9802766 53.292457,16.5953582 58.1621017,22.1706563 C63.1099951,27.6232003 65.8968034,34.6912928 66,42.0496663 C62.7199553,45.4465851 54.6003354,48.0796997 44.7803242,48.7832036 C42.3756288,48.9641046 39.920626,49.034455 37.4958077,48.9842047 Z" id="Shape" fill="#FFFFFF"></path>
                <path d="M38.3421269,44.9951017 C36.6405605,44.9951017 34.5531739,44.8853865 33,44.6958786 C33,34.6320088 35.4336356,23.690418 38.7774113,20 C43.5061829,20.6183944 48.6702389,22.8326452 51.9744433,26.692623 C55.2232311,30.6432873 57.0008452,35.6142232 56.9999997,40.7461339 C54.8433633,43.0601257 49.6100575,44.346785 43.1500411,44.8554642 C41.5572959,44.9751534 39.944765,45.0150499 38.3421269,44.9951017 Z" id="Shape" fill="#0063A5"></path>
            </g>
        </g>
    </g>
</svg>