<?xml version="1.0" encoding="utf-8"?>
<!-- Generator: Adobe Illustrator 16.0.4, SVG Export Plug-In . SVG Version: 6.00 Build 0)  -->
<!DOCTYPE svg PUBLIC "-//W3C//DTD SVG 1.0//EN" "http://www.w3.org/TR/2001/REC-SVG-20010904/DTD/svg10.dtd">
<svg version="1.0" id="Ebene_1" xmlns="http://www.w3.org/2000/svg" xmlns:xlink="http://www.w3.org/1999/xlink" x="0px" y="0px"
	 width="178.82px" height="101.14px" viewBox="0 0 178.82 101.14" enable-background="new 0 0 178.82 101.14" xml:space="preserve">
<g>
	<path fill="#5AADED" d="M76.16,70.25c-1.72,0-3.12,1.4-3.12,3.11s1.4,3.12,3.12,3.12s3.12-1.4,3.12-3.12S77.88,70.25,76.16,70.25z"
		/>
	<circle fill="#5AADED" cx="84.98" cy="73.36" r="3.11"/>
	<path fill="#5AADED" d="M10.64,78.53c-1.87,0-3.61,0.54-5.09,1.47V68.68c0-1.26-1.02-2.29-2.29-2.29c-1.26,0-2.29,1.02-2.29,2.29
		v28.65c0,1.26,1.02,2.29,2.29,2.29c1.26,0,2.29-1.02,2.29-2.29v-9.13c0-2.81,2.29-5.09,5.09-5.09c2.81,0,5.09,2.29,5.09,5.09v9.13
		c0,1.26,1.02,2.29,2.29,2.29c1.26,0,2.29-1.02,2.29-2.29v-9.13C20.3,82.86,15.97,78.53,10.64,78.53z"/>
	<path fill="#5AADED" d="M41.62,78.77c-1.26,0-2.29,1.02-2.29,2.29v9.13c0,2.81-2.28,5.09-5.09,5.09c-2.81,0-5.09-2.28-5.09-5.09
		v-9.13c0-1.26-1.02-2.29-2.29-2.29c-1.26,0-2.29,1.02-2.29,2.29v9.13c0,5.33,4.34,9.67,9.66,9.67c5.33,0,9.67-4.33,9.67-9.67v-9.13
		C43.9,79.79,42.88,78.77,41.62,78.77z"/>
	<path fill="#5AADED" d="M76.16,78.77c-1.26,0-2.29,1.02-2.29,2.29v16.27c0,1.26,1.03,2.29,2.29,2.29c1.26,0,2.29-1.02,2.29-2.29
		V81.06C78.45,79.79,77.42,78.77,76.16,78.77z"/>
	<path fill="#5AADED" d="M84.98,78.77c-1.26,0-2.29,1.02-2.29,2.29v16.27c0,1.26,1.02,2.29,2.29,2.29c1.26,0,2.29-1.02,2.29-2.29
		V81.06C87.26,79.79,86.24,78.77,84.98,78.77z"/>
	<path fill="#5AADED" d="M58.97,78.59c-2.25,0-4.34,0.71-6.06,1.91V68.45c0-1.26-1.02-2.29-2.29-2.29c-1.26,0-2.29,1.02-2.29,2.29
		v20.48c0,0.03,0.01,0.07,0.01,0.1c0,0.07-0.01,0.13-0.01,0.2c0,5.86,4.77,10.63,10.63,10.63S69.6,95.09,69.6,89.22
		C69.6,83.36,64.83,78.59,58.97,78.59z M58.97,95.28c-3.34,0-6.06-2.72-6.06-6.06c0-3.34,2.72-6.06,6.06-6.06s6.06,2.72,6.06,6.06
		C65.03,92.56,62.31,95.28,58.97,95.28z"/>
</g>
<g>
	<path fill="#FFFFFF" d="M111.41,99.71c-3.07,0-5.41-0.9-7.01-2.69c-1.6-1.79-2.4-4.37-2.4-7.73c0-3.42,0.84-6.05,2.51-7.88
		c1.67-1.84,4.09-2.76,7.25-2.76c2.14,0,4.07,0.4,5.79,1.19l-1.3,3.47c-1.83-0.71-3.33-1.07-4.52-1.07c-3.52,0-5.27,2.33-5.27,7
		c0,2.28,0.44,3.99,1.31,5.14c0.88,1.15,2.16,1.72,3.85,1.72c1.92,0,3.74-0.48,5.46-1.43v3.77c-0.77,0.45-1.6,0.78-2.47,0.97
		C113.72,99.62,112.66,99.71,111.41,99.71z"/>
	<path fill="#FFFFFF" d="M139.87,89.15c0,3.32-0.85,5.91-2.55,7.77c-1.7,1.86-4.07,2.79-7.11,2.79c-1.9,0-3.58-0.43-5.04-1.29
		c-1.46-0.86-2.58-2.09-3.36-3.69c-0.79-1.6-1.18-3.47-1.18-5.59c0-3.29,0.84-5.87,2.54-7.72c1.69-1.85,4.07-2.77,7.15-2.77
		c2.94,0,5.27,0.95,6.98,2.84S139.87,85.94,139.87,89.15z M125.08,89.15c0,4.69,1.73,7.04,5.2,7.04c3.43,0,5.14-2.35,5.14-7.04
		c0-4.64-1.73-6.96-5.18-6.96c-1.81,0-3.13,0.6-3.94,1.8C125.49,85.18,125.08,86.91,125.08,89.15z"/>
	<path fill="#FFFFFF" d="M155.14,78.65c0.87,0,1.59,0.06,2.15,0.18l-0.42,4.02c-0.61-0.15-1.25-0.22-1.91-0.22
		c-1.73,0-3.13,0.56-4.2,1.69c-1.07,1.13-1.61,2.59-1.61,4.39v10.62h-4.32V79.02h3.38l0.57,3.58H149c0.67-1.21,1.55-2.17,2.64-2.89
		C152.73,79.01,153.89,78.65,155.14,78.65z"/>
	<path fill="#FFFFFF" d="M169.93,99.71c-3.16,0-5.63-0.92-7.42-2.77c-1.78-1.84-2.67-4.38-2.67-7.62c0-3.32,0.83-5.93,2.48-7.83
		c1.65-1.9,3.93-2.85,6.82-2.85c2.68,0,4.8,0.81,6.36,2.44c1.55,1.63,2.33,3.87,2.33,6.73v2.33h-13.54c0.06,1.97,0.6,3.49,1.6,4.55
		s2.42,1.59,4.24,1.59c1.2,0,2.32-0.11,3.35-0.34c1.04-0.23,2.15-0.6,3.34-1.13v3.51c-1.05,0.5-2.12,0.86-3.2,1.07
		C172.55,99.61,171.32,99.71,169.93,99.71z M169.14,81.92c-1.37,0-2.47,0.44-3.3,1.3c-0.83,0.87-1.32,2.14-1.48,3.8h9.22
		c-0.03-1.68-0.43-2.95-1.21-3.81S170.52,81.92,169.14,81.92z"/>
</g>
<g>
	<radialGradient id="SVGID_1_" cx="87.7734" cy="18.1875" r="37.0185" gradientUnits="userSpaceOnUse">
		<stop  offset="0" style="stop-color:#D6E6F1"/>
		<stop  offset="0.0143" style="stop-color:#FFFFFF"/>
		<stop  offset="0.5251" style="stop-color:#5AADED"/>
		<stop  offset="1" style="stop-color:#0063A5"/>
	</radialGradient>
	<circle fill="url(#SVGID_1_)" cx="91.01" cy="28.34" r="27.29"/>
	<path fill="#FFFFFF" d="M89.53,37.7c-2.22-0.05-4.43-0.2-6.46-0.45c0-13.47,1.79-23.76,7.95-31.44c6.18,0.78,11.96,3.89,16.3,8.77
		c4.33,4.88,6.72,10.96,6.75,17.14c-2.82,2.93-9.82,5.17-18.27,5.8C93.74,37.68,91.62,37.74,89.53,37.7z"/>
	<path fill="#0063A5" d="M90.65,34.31c-1.49-0.03-3.32-0.09-4.68-0.25c0-8.74,2.14-18.24,5.06-21.45c4.14,0.53,8.66,2.46,11.56,5.81
		c2.9,3.35,4.39,7.96,4.4,12.2c-1.89,2.01-6.47,3.13-12.13,3.57C93.47,34.29,92.05,34.33,90.65,34.31z"/>
</g>
</svg>
