<?xml version="1.0" encoding="utf-8"?>
<!-- Generator: Adobe Illustrator 22.1.0, SVG Export Plug-In . SVG Version: 6.00 Build 0)  -->
<svg version="1.0" id="Ebene_1" xmlns="http://www.w3.org/2000/svg" xmlns:xlink="http://www.w3.org/1999/xlink" x="0px" y="0px"
	 viewBox="0 0 1183 259" enable-background="new 0 0 1183 259" xml:space="preserve">
<g>
	<path fill="#0063A5" d="M688.27,67.99c-8.28,0-15.02,6.73-15.02,15.02s6.74,15.02,15.02,15.02c8.28,0,15.02-6.74,15.02-15.02
		S696.55,67.99,688.27,67.99z"/>
	<path fill="#0063A5" d="M730.78,98.03c8.28,0,15.01-6.74,15.01-15.02s-6.73-15.02-15.01-15.02c-8.28,0-15.02,6.73-15.02,15.02
		S722.49,98.03,730.78,98.03z"/>
	<path fill="#0063A5" d="M372.37,107.9c-9.02,0-17.41,2.62-24.55,7.07V60.41c0-6.09-4.93-11.02-11.02-11.02s-11.02,4.93-11.02,11.02
		v138.12c0,6.09,4.93,11.03,11.02,11.03s11.02-4.94,11.02-11.03V154.5c0-13.54,11.01-24.55,24.55-24.55
		c13.54,0,24.55,11.02,24.55,24.55v44.02c0,6.09,4.93,11.03,11.03,11.03c6.09,0,11.02-4.94,11.02-11.03V154.5
		C418.97,128.81,398.07,107.9,372.37,107.9z"/>
	<path fill="#0063A5" d="M521.74,109.08c-6.09,0-11.02,4.93-11.02,11.02v44.03c0,13.54-11.02,24.55-24.56,24.55
		c-13.54,0-24.55-11.01-24.55-24.55V120.1c0-6.09-4.93-11.02-11.03-11.02c-6.09,0-11.02,4.93-11.02,11.02v44.03
		c0,25.7,20.9,46.6,46.6,46.6c25.7,0,46.6-20.9,46.6-46.6V120.1C532.76,114.01,527.82,109.08,521.74,109.08z"/>
	<path fill="#0063A5" d="M688.27,109.08c-6.09,0-11.03,4.93-11.03,11.02v78.43c0,6.09,4.94,11.03,11.03,11.03
		c6.09,0,11.02-4.94,11.02-11.03V120.1C699.29,114.01,694.36,109.08,688.27,109.08z"/>
	<path fill="#0063A5" d="M730.78,109.08c-6.09,0-11.03,4.93-11.03,11.02v78.43c0,6.09,4.93,11.03,11.03,11.03
		c6.08,0,11.02-4.94,11.02-11.03V120.1C741.79,114.01,736.86,109.08,730.78,109.08z"/>
	<path fill="#0063A5" d="M605.4,108.22c-10.85,0-20.91,3.41-29.21,9.19V59.3c0-6.09-4.93-11.02-11.02-11.02
		c-6.09,0-11.02,4.93-11.02,11.02v98.72c0,0.16,0.04,0.32,0.05,0.49c0,0.32-0.05,0.65-0.05,0.97c0,28.26,22.99,51.25,51.25,51.25
		c28.26,0,51.25-22.99,51.25-51.25C656.65,131.21,633.66,108.22,605.4,108.22z M605.4,188.68c-16.11,0-29.21-13.1-29.21-29.2
		c0-16.11,13.1-29.21,29.21-29.21c16.1,0,29.2,13.1,29.2,29.21C634.6,175.58,621.51,188.68,605.4,188.68z"/>
</g>
<g>
	<path fill="#5A5A59" d="M857.37,210.04c-14.82,0-26.08-4.32-33.8-12.98c-7.7-8.65-11.56-21.07-11.56-37.26
		c0-16.48,4.03-29.15,12.1-38.01c8.06-8.86,19.71-13.29,34.94-13.29c10.34,0,19.64,1.92,27.91,5.76l-6.29,16.75
		c-8.8-3.43-16.06-5.14-21.8-5.14c-16.95,0-25.42,11.25-25.42,33.75c0,10.99,2.11,19.24,6.34,24.77c4.22,5.52,10.41,8.28,18.56,8.28
		c9.28,0,18.04-2.3,26.31-6.91v18.16c-3.72,2.18-7.69,3.75-11.91,4.69C868.52,209.57,863.4,210.04,857.37,210.04z"/>
	<path fill="#5A5A59" d="M994.61,159.1c0,16.01-4.11,28.5-12.31,37.48c-8.21,8.98-19.64,13.47-34.29,13.47
		c-9.15,0-17.24-2.07-24.28-6.2c-7.02-4.13-12.43-10.07-16.21-17.81c-3.79-7.74-5.67-16.71-5.67-26.94
		c0-15.89,4.07-28.29,12.22-37.21c8.15-8.92,19.63-13.38,34.46-13.38c14.17,0,25.4,4.56,33.66,13.69
		C990.48,131.32,994.61,143.63,994.61,159.1z M923.29,159.1c0,22.63,8.36,33.94,25.08,33.94c16.54,0,24.8-11.31,24.8-33.94
		c0-22.38-8.32-33.57-24.98-33.57c-8.74,0-15.08,2.9-19,8.68C925.26,140,923.29,148.29,923.29,159.1z"/>
	<path fill="#5A5A59" d="M1068.24,108.51c4.19,0,7.65,0.3,10.37,0.89l-2.04,19.4c-2.96-0.71-6.02-1.06-9.21-1.06
		c-8.33,0-15.08,2.72-20.25,8.15c-5.17,5.44-7.75,12.5-7.75,21.18v51.21h-20.82v-97.99h16.3l2.75,17.28h1.05
		c3.25-5.85,7.49-10.49,12.72-13.91C1056.59,110.23,1062.21,108.51,1068.24,108.51z"/>
	<path fill="#5A5A59" d="M1139.56,210.04c-15.24,0-27.16-4.44-35.75-13.33c-8.59-8.89-12.89-21.13-12.89-36.72
		c0-16.01,3.99-28.59,11.97-37.74c7.97-9.16,18.93-13.73,32.86-13.73c12.94,0,23.16,3.93,30.66,11.79
		c7.5,7.85,11.24,18.66,11.24,32.43v11.25h-65.29c0.3,9.51,2.87,16.82,7.71,21.93c4.84,5.11,11.67,7.66,20.46,7.66
		c5.79,0,11.18-0.54,16.17-1.64c4.99-1.09,10.36-2.91,16.08-5.45v16.92c-5.09,2.42-10.22,4.13-15.42,5.14
		C1152.17,209.54,1146.24,210.04,1139.56,210.04z M1135.75,124.28c-6.61,0-11.91,2.1-15.9,6.29c-3.98,4.2-6.37,10.31-7.13,18.34
		h44.47c-0.12-8.09-2.07-14.22-5.85-18.39C1147.56,126.37,1142.37,124.28,1135.75,124.28z"/>
</g>
<g>
	<g>
		<radialGradient id="SVGID_1_" cx="114.2812" cy="83.7182" r="166.8721" gradientUnits="userSpaceOnUse">
			<stop  offset="0" style="stop-color:#D6E6F1"/>
			<stop  offset="0.0143" style="stop-color:#FFFFFF"/>
			<stop  offset="0.5251" style="stop-color:#5AADED"/>
			<stop  offset="1" style="stop-color:#0063A5"/>
		</radialGradient>
		<circle fill="url(#SVGID_1_)" cx="128.89" cy="129.5" r="123"/>
		<path fill="#FFFFFF" d="M122.22,171.68c-10-0.21-19.97-0.91-29.11-2.01c0-60.73,8.06-107.11,35.84-141.73
			c27.85,3.5,53.93,17.53,73.48,39.55c19.52,22.01,30.3,49.42,30.41,77.25c-12.73,13.2-44.25,23.3-82.34,26.17
			C141.15,171.58,131.64,171.85,122.22,171.68z"/>
		<path fill="#0063A5" d="M127.25,156.39c-6.7-0.13-14.96-0.39-21.09-1.15c0.01-39.41,9.63-82.23,22.79-96.68
			c18.67,2.4,39.02,11.08,52.12,26.2c13.07,15.11,19.78,35.89,19.84,55.01c-8.53,9.08-29.16,14.09-54.68,16.08
			C139.96,156.33,133.59,156.5,127.25,156.39z"/>
	</g>
	<g>
		<radialGradient id="SVGID_2_" cx="114.2812" cy="83.7182" r="166.8721" gradientUnits="userSpaceOnUse">
			<stop  offset="0" style="stop-color:#D6E6F1"/>
			<stop  offset="0" style="stop-color:#FFFFFF"/>
			<stop  offset="0.5214" style="stop-color:#5AADED"/>
			<stop  offset="1" style="stop-color:#0063A5"/>
		</radialGradient>
		<circle fill="url(#SVGID_2_)" cx="128.89" cy="129.5" r="123"/>
		<path fill="#FFFFFF" d="M122.22,171.68c-10-0.21-19.97-0.91-29.11-2.01c0-60.73,8.06-107.11,35.84-141.73
			c27.85,3.5,53.93,17.53,73.48,39.55c19.52,22.01,30.3,49.42,30.41,77.25c-12.73,13.2-44.25,23.3-82.34,26.17
			C141.15,171.58,131.64,171.85,122.22,171.68z"/>
		<path fill="#0063A5" d="M127.25,156.39c-6.7-0.13-14.96-0.39-21.09-1.15c0.01-39.41,9.63-82.23,22.79-96.68
			c18.67,2.4,39.02,11.08,52.12,26.2c13.07,15.11,19.78,35.89,19.84,55.01c-8.53,9.08-29.16,14.09-54.68,16.08
			C139.96,156.33,133.59,156.5,127.25,156.39z"/>
	</g>
</g>
</svg>
