<?xml version="1.0" encoding="UTF-8" standalone="no"?>
<svg width="130px" height="49px" viewBox="0 0 130 49" version="1.1" xmlns="http://www.w3.org/2000/svg" xmlns:xlink="http://www.w3.org/1999/xlink">
    <!-- Generator: Sketch 43.1 (39012) - http://www.bohemiancoding.com/sketch -->
    <title>hubii-isologo</title>
    <desc>Created with Sketch.</desc>
    <defs></defs>
    <g id="Symbols" stroke="none" stroke-width="1" fill="none" fill-rule="evenodd">
        <g id="hubii-isologo" fill-rule="nonzero">
            <g id="Group-4">
                <g id="Group">
                    <circle id="Oval" fill="#0160A7" cx="24.5" cy="24.5" r="24.5"></circle>
                    <g id="Group-2" transform="translate(15.000000, 11.000000)" fill="#FFFFFF">
                        <path d="M8,9.86397833 C6.45294726,9.86397833 5.01344364,10.3027385 3.78903826,11.058381 L3.78903826,1.86066807 C3.78903826,0.836894373 2.94519131,0 1.89451913,0 C0.852119959,0 0,0.828769184 0,1.86066807 L0,25.1393319 C0,26.1631056 0.843846949,27 1.89451913,27 C2.9369183,27 3.78903826,26.1712308 3.78903826,25.1393319 L3.78903826,17.7210352 C3.78903826,15.4378574 5.68355739,13.5853145 8,13.5853145 C10.3247156,13.5853145 12.2109617,15.4459825 12.2109617,17.7210352 L12.2109617,25.1393319 C12.2109617,26.1631056 13.0548087,27 14.1054809,27 C15.14788,27 16,26.1712308 16,25.1393319 L16,17.7210352 C15.991727,13.3821848 12.409514,9.86397833 8,9.86397833 Z" id="Shape"></path>
                        <path d="M13.5,1 C12.1217949,1 11,2.12359551 11,3.49598716 C11,4.86837881 12.1217949,6 13.5,6 C14.8782051,6 16,4.87640449 16,3.49598716 C16,2.11556982 14.8782051,1 13.5,1 Z" id="Shape"></path>
                        <path d="M21.5,1 C20.1217949,1 19,2.12359551 19,3.49598716 C19,4.86837881 20.1217949,6 21.5,6 C22.8782051,6 24,4.87640449 24,3.49598716 C24,2.11556982 22.8782051,1 21.5,1 Z" id="Shape-Copy"></path>
                    </g>
                </g>
                <g id="Group-3" transform="translate(59.000000, 11.000000)" fill="#0160A7">
                    <path d="M61.5,4 C60.1217949,4 59,5.12359551 59,6.49598716 C59,7.86837881 60.1217949,9 61.5,9 C62.8782051,9 64,7.87640449 64,6.49598716 C64,5.11556982 62.8782051,4 61.5,4 Z" id="Shape"></path>
                    <circle id="Oval" cx="68.5" cy="6.5" r="2.5"></circle>
                    <path d="M8,9.86397833 C6.45294726,9.86397833 5.01344364,10.3027385 3.78903826,11.058381 L3.78903826,1.86066807 C3.78903826,0.836894373 2.94519131,0 1.89451913,0 C0.852119959,0 0,0.828769184 0,1.86066807 L0,25.1393319 C0,26.1631056 0.843846949,27 1.89451913,27 C2.9369183,27 3.78903826,26.1712308 3.78903826,25.1393319 L3.78903826,17.7210352 C3.78903826,15.4378574 5.68355739,13.5853145 8,13.5853145 C10.3247156,13.5853145 12.2109617,15.4459825 12.2109617,17.7210352 L12.2109617,25.1393319 C12.2109617,26.1631056 13.0548087,27 14.1054809,27 C15.14788,27 16,26.1712308 16,25.1393319 L16,17.7210352 C15.991727,13.3821848 12.409514,9.86397833 8,9.86397833 Z" id="Shape"></path>
                    <path d="M33.1127781,11 C32.0698396,11 31.2172788,11.8221906 31.2172788,12.8458985 L31.2172788,20.2053106 C31.2172788,22.4703651 29.3300569,24.3082029 27.0041386,24.3082029 C24.6782204,24.3082029 22.7909984,22.4703651 22.7909984,20.2053106 L22.7909984,12.8458985 C22.7909984,11.8302513 21.946715,11 20.8954992,11 C19.8525608,11 19,11.8221906 19,12.8458985 L19,20.2053106 C19,24.5016596 22.5923435,28 26.9958614,28 C31.4076565,28 35,24.5097202 35,20.2053106 L35,12.8458985 C35,11.8221906 34.1557165,11 33.1127781,11 Z" id="Shape"></path>
                    <path d="M62,11 C60.8995633,11 60,11.8316547 60,12.8671463 L60,26.1328537 C60,27.1601918 60.8995633,28 62,28 C63.1004367,28 64,27.1683453 64,26.1328537 L64,12.8671463 C64,11.8316547 63.1004367,11 62,11 Z" id="Shape"></path>
                    <path d="M69,11 C67.8995633,11 67,11.8316547 67,12.8671463 L67,26.1328537 C67,27.1601918 67.8908297,28 69,28 C70.1004367,28 71,27.1683453 71,26.1328537 L71,12.8671463 C70.9912664,11.8316547 70.1004367,11 69,11 Z" id="Shape"></path>
                    <path d="M47.5039962,10.3275964 C45.7056888,10.3275964 44.0352609,10.9175074 42.6605548,11.9145401 L42.6605548,1.90267062 C42.6605548,0.85578635 41.845322,0 40.8302774,0 C39.8232252,0 39,0.847477745 39,1.90267062 L39,18.9186944 C39,18.9436202 39.0079925,18.9768546 39.0079925,19.0017804 C39.0079925,19.0599407 39,19.1097923 39,19.1679525 C39,24.0367953 42.8124118,28 47.4960038,28 C52.1795957,28 56,24.0367953 56,19.1596439 C56,14.2908012 52.1875882,10.3275964 47.5039962,10.3275964 Z M47.5039962,24.1946588 C44.8345087,24.1946588 42.6605548,21.9347181 42.6605548,19.1596439 C42.6605548,16.3845697 44.8345087,14.1246291 47.5039962,14.1246291 C50.1734838,14.1246291 52.3474377,16.3845697 52.3474377,19.1596439 C52.3474377,21.9347181 50.1734838,24.1946588 47.5039962,24.1946588 Z" id="Shape"></path>
                </g>
            </g>
        </g>
    </g>
</svg>