<?xml version="1.0" encoding="utf-8"?>
<!-- Generator: Adobe Illustrator 23.0.0, SVG Export Plug-In . SVG Version: 6.00 Build 0)  -->
<svg version="1.0" id="Ebene_1" xmlns="http://www.w3.org/2000/svg" xmlns:xlink="http://www.w3.org/1999/xlink" x="0px" y="0px"
	 viewBox="0 0 967.33 259" enable-background="new 0 0 967.33 259" xml:space="preserve">
<g>
	<path fill="#CD0086" d="M938.18,20.02c-14.01,0-25.4,11.4-25.4,25.4s11.4,25.4,25.4,25.4c14.01,0,25.41-11.4,25.41-25.4
		S952.19,20.02,938.18,20.02z"/>
</g>
<g>
	<path fill="#CD0086" d="M868.58,20.02c-14.01,0-25.4,11.4-25.4,25.4s11.4,25.4,25.4,25.4c14.01,0,25.41-11.4,25.41-25.4
		S882.59,20.02,868.58,20.02z"/>
</g>
<g>
	<path fill="#CD0086" d="M868.86,255.66c-9.29,0-16.84-7.51-16.88-16.81l-0.56-135.04c-0.04-9.32,7.49-16.91,16.81-16.95
		c0.02,0,0.05,0,0.07,0c9.29,0,16.84,7.51,16.88,16.81l0.56,135.04c0.04,9.32-7.49,16.91-16.81,16.95
		C868.91,255.66,868.89,255.66,868.86,255.66z"/>
</g>
<g>
	<path fill="#CD0086" d="M938.46,255.66c-9.29,0-16.84-7.51-16.88-16.81l-0.56-135.04c-0.04-9.32,7.49-16.91,16.81-16.95
		c0.02,0,0.05,0,0.07,0c9.29,0,16.84,7.51,16.88,16.81l0.56,135.04c0.04,9.32-7.49,16.91-16.81,16.95
		C938.51,255.66,938.49,255.66,938.46,255.66z"/>
</g>
<path fill="#FFFFFF" d="M82.98,86.86c-25.94,0.16-43.69,14.36-43.69,14.36s-0.02-0.88-0.02-0.77c-0.02-7.25-8.27-13.6-16.49-13.6
	c-0.02,0-0.05,0-0.07,0c-9.32,0.04-16.62,7.63-16.58,16.95v134.97c0,9.27,7.25,16.79,16.5,16.87c0.09,0,0.17-0.01,0.25-0.02
	c0.15,0,0.3,0.02,0.46,0.02c0.02,0,0.05,0,0.07,0c9.32-0.04,16.85-7.63,16.81-16.95l-0.34-81.42c0.16-19.61,21.28-36.67,42.94-36.67
	c0.05,0,0.11,0,0.16,0c0.05,0,0.11,0,0.16,0c23.97,0,43.47,19.5,43.47,43.48v74.68c0,9.27,7.47,16.79,16.72,16.87
	c9.25-0.09,16.72-7.6,16.72-16.87V164.1C160.05,121.56,125.49,86.61,82.98,86.86z"/>
<path fill="#FFFFFF" d="M441.34,86.86c-15.91,0.03-31.1,5.16-43.32,15.16V20.15c-0.04-9.3-7.59-16.81-16.88-16.81
	c-0.02,0-0.05,0-0.07,0c-9.32,0.04-16.85,7.63-16.81,16.95l0,218.49c0,9.27,7.47,16.79,16.72,16.87c9.25-0.09,16.72-7.6,16.72-16.87
	c0,0,0.19-73.73,0.32-75.09c0-30,22.14-43.07,43.16-43.07c0.05,0,0.11,0,0.16,0c0.05,0,0.11,0,0.16,0
	c23.97,0,43.47,19.5,43.47,43.48v74.68c0,9.27,7.47,16.79,16.72,16.87c9.25-0.09,16.72-7.6,16.72-16.87V164.1
	C518.42,121.56,483.86,86.95,441.34,86.86z"/>
<path fill="#FFFFFF" d="M335.27,104.52v-0.71c0.04-9.32-7.26-16.91-16.58-16.95h-0.07c-9.37,0.16-16.47,6.35-16.49,13.6
	c0-0.11-0.02,0.77-0.02,0.77s-17.75-14.36-43.69-14.36c-60.67,0-76.73,51.66-76.73,84.4c0,30.76,15.56,84.39,76.51,84.39
	c16.31,0,31.45-5.16,43.92-13.86c1.41,7.83,8.22,13.79,16.44,13.86c9.25-0.09,16.72-7.6,16.72-16.87L335.27,104.52L335.27,104.52z
	 M303.24,178.42c-1.86,25.38-20.92,43.48-44.89,43.48c-0.05,0-0.11,0-0.16,0c-0.05,0-0.11,0-0.16,0
	c-23.97,0-43.47-21.21-43.47-50.64c0-27.24,19.5-50.64,43.47-50.64c0.05,0,0.11,0,0.16,0c0.05,0,0.11,0,0.16,0
	c23.97,0,41.59,14.87,44.89,42.07C303.91,168.19,303.57,173.85,303.24,178.42z"/>
<path fill="#FFFFFF" d="M745.19,86.85c-24.41,0-46.19,11.68-60.35,29.41c-14.16-17.73-35.95-29.41-60.35-29.41
	c-28.99,0-43.91,14.66-43.91,14.66s-0.02-1.16-0.02-1.05c-0.02-7.25-8.27-13.6-16.49-13.6H564c-9.32,0.04-16.62,7.63-16.58,16.95
	v134.97c0,9.27,7.25,16.79,16.5,16.87c0.09,0,0.17-0.01,0.25-0.02c0.15,0,0.3,0.02,0.46,0.02h0.07c9.32-0.04,16.85-7.63,16.81-16.95
	l-0.34-81.42c0.15-19.22,19.82-36.68,43.31-36.68c23.97,0,43.47,19.5,43.47,43.48v74.68c0,9.32,7.56,16.88,16.88,16.88
	c9.32,0,16.88-7.56,16.88-16.88v-74.68c0-23.97,19.5-43.48,43.47-43.48c23.97,0,43.47,19.5,43.47,43.48v74.68
	c0,9.32,7.56,16.88,16.88,16.88c9.32,0,16.88-7.56,16.88-16.88v-74.68C822.43,121.5,787.78,86.85,745.19,86.85z"/>
</svg>
