<svg xmlns="http://www.w3.org/2000/svg" xmlns:xlink="http://www.w3.org/1999/xlink" width="14" height="14" viewBox="0 0 14 14">
  <defs>
    <path id="ic_open_in_new_24px-a" d="M12.4444444,12.4444444 L1.55555556,12.4444444 L1.55555556,1.55555556 L7,1.55555556 L7,0 L1.55555556,0 C0.692222222,0 0,0.7 0,1.55555556 L0,12.4444444 C0,13.3 0.692222222,14 1.55555556,14 L12.4444444,14 C13.3,14 14,13.3 14,12.4444444 L14,7 L12.4444444,7 L12.4444444,12.4444444 Z M8.55555556,0 L8.55555556,1.55555556 L11.3477778,1.55555556 L3.70222222,9.20111111 L4.79888889,10.2977778 L12.4444444,2.65222222 L12.4444444,5.44444444 L14,5.44444444 L14,0 L8.55555556,0 Z"/>
  </defs>
  <g fill="none" fill-rule="evenodd">
    <use fill="#50E3C2" fill-rule="nonzero" xlink:href="#ic_open_in_new_24px-a"/>
  </g>
</svg>
