<?xml version="1.0" encoding="UTF-8"?>
<svg xmlns="http://www.w3.org/2000/svg" xmlns:xlink="http://www.w3.org/1999/xlink" width="250pt" height="250pt" viewBox="0 0 250 250" version="1.1">
<defs>
<radialGradient id="radial0" gradientUnits="userSpaceOnUse" cx="0.4406" cy="0.313895" fx="0.4406" fy="0.313895" r="0.678341" gradientTransform="matrix(246.09375,0,0,246.09375,1.953125,1.953125)">
<stop offset="0" style="stop-color:rgb(83.921569%,90.196078%,94.509804%);stop-opacity:1;"/>
<stop offset="0.0143" style="stop-color:rgb(100%,100%,100%);stop-opacity:1;"/>
<stop offset="0.5251" style="stop-color:rgb(35.294118%,67.843137%,92.941176%);stop-opacity:1;"/>
<stop offset="1" style="stop-color:rgb(0%,38.823529%,64.705882%);stop-opacity:1;"/>
</radialGradient>
</defs>
<g id="surface1">
<path style=" stroke:none;fill-rule:nonzero;fill:url(#radial0);" d="M 248.046875 125 C 248.046875 192.957031 192.957031 248.046875 125 248.046875 C 57.042969 248.046875 1.953125 192.957031 1.953125 125 C 1.953125 57.042969 57.042969 1.953125 125 1.953125 C 192.957031 1.953125 248.046875 57.042969 248.046875 125 Z M 248.046875 125 "/>
<path style=" stroke:none;fill-rule:nonzero;fill:rgb(100%,100%,100%);fill-opacity:1;" d="M 118.320312 167.1875 C 108.320312 166.992188 98.359375 166.289062 89.179688 165.15625 C 89.179688 104.414062 97.226562 58.007812 125.039062 23.359375 C 152.890625 26.835938 178.984375 40.898438 198.554688 62.929688 C 218.085938 84.960938 228.867188 112.382812 228.984375 140.195312 C 216.25 153.398438 184.726562 163.515625 146.601562 166.367188 C 137.265625 167.109375 127.734375 167.382812 118.320312 167.1875 Z M 118.320312 167.1875 "/>
<path style=" stroke:none;fill-rule:nonzero;fill:rgb(0%,38.823529%,64.705882%);fill-opacity:1;" d="M 123.359375 151.914062 C 116.640625 151.796875 108.398438 151.523438 102.265625 150.78125 C 102.265625 111.367188 111.914062 68.515625 125.078125 54.0625 C 143.75 56.445312 164.101562 65.15625 177.226562 80.273438 C 190.3125 95.390625 197.03125 116.171875 197.070312 135.3125 C 188.515625 144.375 167.890625 149.414062 142.382812 151.40625 C 136.054688 151.835938 129.6875 151.992188 123.359375 151.914062 Z M 123.359375 151.914062 "/>
</g>
</svg>
