<svg xmlns="http://www.w3.org/2000/svg" width="15" height="22" viewBox="0 0 15 22">
  <g fill="none" fill-rule="evenodd" transform="translate(-4 -1)">
    <polygon points="0 0 24 0 24 24 0 24"/>
    <path fill="#FFF" d="M14.9999991,6.99999958 L14.9999991,10.9999993 L15.999999,10.9999993 L15.999999,12.9999992 L12.9999992,12.9999992 L12.9999992,4.9999997 L14.9999991,4.9999997 L11.9999993,0.99999994 L8.99999946,4.9999997 L10.9999993,4.9999997 L10.9999993,12.9999992 L7.99999952,12.9999992 L7.99999952,10.9299996 C8.69999928,10.5599998 9.19999925,9.84999979 9.19999925,8.99999946 C9.19999925,7.78999949 8.20999954,6.79999978 6.99999958,6.79999978 C5.78999961,6.79999978 4.7999999,7.78999949 4.7999999,8.99999946 C4.7999999,9.84999979 5.29999987,10.5599988 5.99999964,10.9299996 L5.99999964,12.9999992 C5.99999964,14.1099988 6.88999945,14.9999991 7.99999952,14.9999991 L10.9999993,14.9999991 L10.9999993,18.0499981 C10.2899993,18.4199989 9.7999996,19.1499985 9.7999996,19.9999988 C9.7999996,21.219998 10.7899993,22.1999994 11.9999993,22.1999994 C13.2099992,22.1999994 14.1999989,21.2199999 14.1999989,19.9999988 C14.1999989,19.1499985 13.7099992,18.4199989 12.9999992,18.0499981 L12.9999992,14.9999991 L15.999999,14.9999991 C17.1099996,14.9999991 17.9999989,14.1099988 17.9999989,12.9999992 L17.9999989,10.9999993 L18.9999989,10.9999993 L18.9999989,6.99999958 L14.9999991,6.99999958 Z"/>
  </g>
</svg>
