<svg xmlns="http://www.w3.org/2000/svg" width="26" height="24" viewBox="0 0 26 24">
  <path fill="#00FFD4" d="M24,20 L24,21.3333333 C24,22.8 22.8,24 21.3333333,24 L2.66666667,24 C1.18666667,24 0,22.8 0,21.3333333 L0,2.66666667 C0,1.2 1.18666667,0 2.66666667,0 L21.3333333,0 C22.8,0 24,1.2 24,2.66666667 L24,4 L12,4 C10.52,4 9.33333333,5.2 9.33333333,6.66666667 L9.33333333,17.3333333 C9.33333333,18.8 10.52,20 12,20 L24,20 Z M12,17.3333333 L25.3333333,17.3333333 L25.3333333,6.66666667 L12,6.66666667 L12,17.3333333 Z M17.3333333,14 C16.2266667,14 15.3333333,13.1066667 15.3333333,12 C15.3333333,10.8933333 16.2266667,10 17.3333333,10 C18.44,10 19.3333333,10.8933333 19.3333333,12 C19.3333333,13.1066667 18.44,14 17.3333333,14 Z"/>
</svg>
