<?xml version="1.0" encoding="utf-8"?>
<!-- Generator: Adobe Illustrator 21.1.0, SVG Export Plug-In . SVG Version: 6.00 Build 0)  -->
<svg version="1.1" xmlns="http://www.w3.org/2000/svg" xmlns:xlink="http://www.w3.org/1999/xlink" x="0px" y="0px"
	 viewBox="0 0 32 32" style="enable-background:new 0 0 32 32;" xml:space="preserve">
<style type="text/css">
	.st0{fill:#464645;}
	.st1{fill:#0000FF;}
	.st2{fill:#FF0000;}
	.st3{fill:#E9570F;}
	.st4{fill:#BAB9FF;}
	.st5{fill:#1C1C1C;}
	.st6{fill:#2F50B0;}
	.st7{fill:#CAAB60;}
	.st8{fill:#4096D0;}
	.st9{fill:#21C8B4;}
	.st10{fill:#002342;}
	.st11{fill:#005281;}
	.st12{fill:#F80000;}
	.st13{fill:#F55749;}
	.st14{fill:#272731;}
	.st15{fill:#FF4081;}
	.st16{fill:#FEBF51;}
	.st17{fill:#673300;}
	.st18{fill:#00A5E7;}
	.st19{fill:#4240A1;}
	.st20{fill:#185095;}
	.st21{fill:#BDDBEE;}
	.st22{fill:#044AAC;}
	.st23{fill:#346FCE;}
	.st24{fill:#24DD7B;}
	.st25{fill:#521C72;}
	.st26{fill:#DE1A80;}
	.st27{fill:#657BED;}
	.st28{fill:#2F3F54;}
	.st29{fill:#0097E8;}
	.st30{fill:#6382C2;}
	.st31{fill:#FF183D;}
	.st32{fill:#0F63D8;}
	.st33{fill:#253238;}
	.st34{fill:#0093A9;}
	.st35{fill:#008CBE;}
	.st36{fill:#2D9CDB;}
	.st37{fill:#E3A719;}
	.st38{fill:#5DC6BA;}
	.st39{fill:#333333;}
	.st40{fill:#363635;}
	.st41{fill:#D6395F;}
	.st42{fill:#F99600;}
	.st43{fill:#4D4D4F;}
	.st44{fill:#1272BE;}
	.st45{fill:#00CF54;}
	.st46{fill:#0092B5;}
	.st47{fill:#EA5C4F;}
	.st48{fill:#104FCA;}
	.st49{fill:#7B346E;}
	.st50{fill:none;stroke:#000000;stroke-width:0.1;stroke-miterlimit:10;}
	.st51{fill:#37DCD8;}
	.st52{fill:#C80000;}
	.st53{fill:#066EBE;}
	.st54{fill:#27BAE0;}
	.st55{fill:#CB8F00;}
	.st56{fill:#6AB87F;}
	.st57{fill:#B26FFF;}
	.st58{fill:#F4AE95;}
	.st59{fill:#F24748;}
	.st60{fill:#0351BE;}
	.st61{fill:#798E97;}
	.st62{fill:#E73730;}
	.st63{fill:#164B79;}
	.st64{fill:#0096D8;}
	.st65{fill:#47B4DD;}
	.st66{fill:#273D4B;}
	.st67{fill:#3E3A39;}
	.st68{fill:#39C0B5;}
	.st69{fill:#17284C;}
	.st70{fill:#3B9ACC;}
	.st71{fill:#151A2F;}
	.st72{fill:#344269;}
	.st73{fill:#21CBFF;}
	.st74{fill:#2D2D2D;}
	.st75{fill:#00233D;}
	.st76{fill:#0062BF;}
	.st77{fill:#F9B23E;}
	.st78{fill:#DE5C6E;}
	.st79{fill:#F88900;}
	.st80{fill:#EC555E;}
	.st81{fill:#B8D75C;}
	.st82{fill:#D5E400;}
	.st83{fill:#00969C;}
	.st84{fill:#BE1004;}
	.st85{fill:#00C6DD;}
	.st86{fill:#151037;}
	.st87{fill:#0078C6;}
	.st88{fill:#F0DA67;}
	.st89{fill:#EC5005;}
	.st90{fill:#686DB2;}
	.st91{fill:#EABE51;}
	.st92{fill:#333245;}
	.st93{fill:#2C398F;}
	.st94{fill:#FFFFFF;}
	.st95{fill:#1267FF;}
	.st96{fill:#00A7E9;}
	.st97{fill:#F00000;}
	.st98{fill-rule:evenodd;clip-rule:evenodd;fill:#FFFFFF;}
	.st99{opacity:0.498;fill:#FFFFFF;}
	.st100{opacity:0.6;fill:#FFFFFF;}
	.st101{opacity:0.8;fill:#FFFFFF;}
	.st102{fill:#FAFBF8;}
	.st103{fill:#925518;}
	.st104{opacity:0.5;fill:#FFFFFF;}
	.st105{fill:#D3BBA3;}
	.st106{fill:#62D0DD;}
	.st107{fill:#468CC4;}
	.st108{fill:#23A8DB;}
	.st109{fill:#5DD2EF;}
	.st110{fill:#DEE0E4;}
	.st111{opacity:0.3;fill:#FFFFFF;}
	.st112{fill:#FBB03B;}
	.st113{fill:#CD9A24;}
	.st114{fill:#FBCA3B;}
	.st115{fill:#C59B4D;}
	.st116{fill:#71AAD8;}
	.st117{fill:#418ECB;}
	.st118{fill:#D0E3F2;}
	.st119{fill:#E0BC66;}
	.st120{fill:#EAD299;}
	.st121{fill:#F5E9CC;}
	.st122{fill:#DDE8F6;}
	.st123{fill:#BCD1EE;}
	.st124{fill:#9ABAE5;}
	.st125{fill:#78A2DC;}
	.st126{fill:#578BD4;}
	.st127{fill:#3574CB;}
	.st128{fill:#00FFFF;}
	.st129{fill:#FAD7D6;}
	.st130{fill:#F18783;}
	.st131{fill:#F5AFAC;}
	.st132{fill:#CCEAF7;}
	.st133{fill:#66C0E8;}
	.st134{fill:#99D5EF;}
	.st135{fill:#54C719;}
	.st136{fill:#FDE0B2;}
	.st137{fill:#FBD18B;}
	.st138{fill:#FEF0D8;}
	.st139{fill:#A0B3BE;}
	.st140{fill:#3B474D;}
	.st141{fill:#E2A560;}
	.st142{fill:#E9BA5D;}
	.st143{fill:#010100;}
	.st144{fill:#C3C5E0;}
	.st145{fill:#F2D897;}
	.st146{fill:#FBF2DC;}
	.st147{fill:#FCC900;}
</style>
<g id="bgs">
	<path class="st60" d="M32,16c0,4.4-1.6,8.2-4.7,11.3S20.4,32,16,32c-4.4,0-8.2-1.6-11.3-4.7S0,20.4,0,16S1.6,7.8,4.7,4.7
		S11.6,0,16,0s8.2,1.6,11.3,4.7S32,11.6,32,16z"/>
</g>
<g id="icons">
	<g>
		<g>
			<circle class="st94" cx="18.3" cy="17.3" r="0.8"/>
			<circle class="st122" cx="19.6" cy="18.8" r="0.7"/>
			<circle class="st123" cx="20.6" cy="20.2" r="0.6"/>
			<circle class="st124" cx="21.5" cy="21.7" r="0.5"/>
			<circle class="st125" cx="22.2" cy="23.1" r="0.5"/>
			<circle class="st126" cx="22.7" cy="24.5" r="0.4"/>
			<circle class="st127" cx="22.9" cy="25.9" r="0.3"/>
		</g>
		<g>
			<ellipse transform="matrix(0.309 -0.9511 0.9511 0.309 -1.1791 27.6902)" class="st94" cx="18.5" cy="14.7" rx="0.8" ry="0.8"/>
			<ellipse transform="matrix(0.309 -0.9511 0.9511 0.309 0.7431 28.8514)" class="st122" cx="20.2" cy="13.9" rx="0.7" ry="0.7"/>
			<ellipse transform="matrix(0.309 -0.9511 0.9511 0.309 2.4736 30.0959)" class="st123" cx="21.9" cy="13.3" rx="0.6" ry="0.6"/>
			<ellipse transform="matrix(0.309 -0.9511 0.9511 0.309 3.9932 31.4057)" class="st124" cx="23.6" cy="13" rx="0.5" ry="0.5"/>
			<ellipse transform="matrix(0.309 -0.9511 0.9511 0.309 5.2825 32.763)" class="st125" cx="25.2" cy="12.7" rx="0.5" ry="0.5"/>
			<ellipse transform="matrix(0.309 -0.9511 0.9511 0.309 6.3223 34.1501)" class="st126" cx="26.7" cy="12.7" rx="0.4" ry="0.4"/>
			<ellipse transform="matrix(0.309 -0.9511 0.9511 0.309 7.0931 35.549)" class="st127" cx="28" cy="12.9" rx="0.3" ry="0.3"/>
		</g>
		<g>
			<ellipse transform="matrix(0.5878 -0.809 0.809 0.5878 -4.491 18.5502)" class="st94" cx="16" cy="13.7" rx="0.8" ry="0.8"/>
			<ellipse transform="matrix(0.5878 -0.809 0.809 0.5878 -3.0179 17.6345)" class="st122" cx="15.8" cy="11.8" rx="0.7" ry="0.7"/>
			<ellipse transform="matrix(0.5878 -0.809 0.809 0.5878 -1.5546 16.8799)" class="st123" cx="15.8" cy="10" rx="0.6" ry="0.6"/>
			<ellipse transform="matrix(0.5878 -0.809 0.809 0.5878 -0.1204 16.2935)" class="st124" cx="15.9" cy="8.3" rx="0.5" ry="0.5"/>
			<ellipse transform="matrix(0.5878 -0.809 0.809 0.5878 1.2658 15.8821)" class="st125" cx="16.2" cy="6.7" rx="0.5" ry="0.5"/>
			<ellipse transform="matrix(0.5878 -0.809 0.809 0.5878 2.585 15.6529)" class="st126" cx="16.7" cy="5.3" rx="0.4" ry="0.4"/>
			<ellipse transform="matrix(0.5878 -0.809 0.809 0.5878 3.818 15.613)" class="st127" cx="17.2" cy="4.1" rx="0.3" ry="0.3"/>
		</g>
		<g>
			<ellipse transform="matrix(0.809 -0.5878 0.5878 0.809 -6.545 11.3907)" class="st94" cx="14.3" cy="15.8" rx="0.8" ry="0.8"/>
			<ellipse transform="matrix(0.809 -0.5878 0.5878 0.809 -6.6451 10.2143)" class="st122" cx="12.4" cy="15.3" rx="0.7" ry="0.7"/>
			<ellipse transform="matrix(0.809 -0.5878 0.5878 0.809 -6.6505 9.0937)" class="st123" cx="10.7" cy="14.8" rx="0.6" ry="0.6"/>
			<ellipse transform="matrix(0.809 -0.5878 0.5878 0.809 -6.563 8.0426)" class="st124" cx="9.1" cy="14.1" rx="0.5" ry="0.5"/>
			<ellipse transform="matrix(0.809 -0.5878 0.5878 0.809 -6.3841 7.0748)" class="st125" cx="7.7" cy="13.4" rx="0.5" ry="0.5"/>
			<ellipse transform="matrix(0.809 -0.5878 0.5878 0.809 -6.1155 6.2039)" class="st126" cx="6.5" cy="12.5" rx="0.4" ry="0.4"/>
			<ellipse transform="matrix(0.809 -0.5878 0.5878 0.809 -5.7587 5.4438)" class="st127" cx="5.5" cy="11.6" rx="0.3" ry="0.3"/>
		</g>
		<g>
			<ellipse transform="matrix(0.9511 -0.309 0.309 0.9511 -4.8025 5.738)" class="st94" cx="15.7" cy="18" rx="0.8" ry="0.8"/>
			<ellipse transform="matrix(0.9511 -0.309 0.309 0.9511 -5.3561 5.5127)" class="st122" cx="14.7" cy="19.7" rx="0.7" ry="0.7"/>
			<ellipse transform="matrix(0.9511 -0.309 0.309 0.9511 -5.8628 5.2577)" class="st123" cx="13.7" cy="21.1" rx="0.6" ry="0.6"/>
			<ellipse transform="matrix(0.9511 -0.309 0.309 0.9511 -6.3168 4.9766)" class="st124" cx="12.6" cy="22.4" rx="0.5" ry="0.5"/>
			<ellipse transform="matrix(0.9511 -0.309 0.309 0.9511 -6.7122 4.6735)" class="st125" cx="11.4" cy="23.5" rx="0.5" ry="0.5"/>
			<ellipse transform="matrix(0.9511 -0.309 0.309 0.9511 -7.0433 4.3522)" class="st126" cx="10.2" cy="24.4" rx="0.4" ry="0.4"/>
			<ellipse transform="matrix(0.9511 -0.309 0.309 0.9511 -7.3042 4.0166)" class="st127" cx="9" cy="25.1" rx="0.3" ry="0.3"/>
		</g>
	</g>
</g>
</svg>
