<?xml version="1.0" encoding="utf-8"?>
<!-- Generator: Adobe Illustrator 21.1.0, SVG Export Plug-In . SVG Version: 6.00 Build 0)  -->
<svg version="1.1" xmlns="http://www.w3.org/2000/svg" xmlns:xlink="http://www.w3.org/1999/xlink" x="0px" y="0px"
	 viewBox="0 0 32 32" style="enable-background:new 0 0 32 32;" xml:space="preserve">
<style type="text/css">
	.st0{fill:#020100;}
	.st1{fill:#27A3F3;}
	.st2{fill:#0666FF;}
	.st3{fill:#1FC5C9;}
	.st4{fill:#F4BB0B;}
	.st5{fill:#F4D029;}
	.st6{fill:#152743;}
	.st7{fill:#0652D9;}
	.st8{fill:#CC1E46;}
	.st9{fill:#586F81;}
	.st10{fill:#D14071;}
	.st11{fill:#5C6DED;}
	.st12{fill:#602453;}
	.st13{fill:#302C2C;}
	.st14{fill:#8300FF;}
	.st15{fill:#FF9A1F;}
	.st16{fill:#48606E;}
	.st17{fill:#4C1D57;}
	.st18{fill:#002E64;}
	.st19{fill:#504C4C;}
	.st20{fill:#CB0B00;}
	.st21{fill:#007A90;}
	.st22{fill:#00FFBA;}
	.st23{fill:#404040;}
	.st24{fill:#00BFEC;}
	.st25{fill:#2B5EBB;}
	.st26{fill:#0B0E2D;}
	.st27{fill:#1347E8;}
	.st28{fill:#F1385B;}
	.st29{fill:#188C92;}
	.st30{fill:#666666;}
	.st31{fill:#384A77;}
	.st32{fill:#01A6FF;}
	.st33{fill:#136485;}
	.st34{fill:#1BEEF4;}
	.st35{fill:#0038C8;}
	.st36{fill:#05BCA9;}
	.st37{fill:#000D2B;}
	.st38{fill:#1B1F2B;}
	.st39{fill:#FFC04F;}
	.st40{fill:#5DAA79;}
	.st41{fill:#3D3C3A;}
	.st42{fill:#3A4DA5;}
	.st43{fill:#FFCA00;}
	.st44{fill:#205174;}
	.st45{fill:#00C6FF;}
	.st46{fill:#F59100;}
	.st47{fill:#202346;}
	.st48{fill:#101A1F;}
	.st49{fill:#0D4265;}
	.st50{fill:#004ADF;}
	.st51{fill:#0B8BCB;}
	.st52{fill:#A8E0D1;}
	.st53{fill:#00C099;}
	.st54{fill:#0078FF;}
	.st55{fill:#FC3A81;}
	.st56{fill:#0B1529;}
	.st57{fill:#84BD39;}
	.st58{fill:#7F04FF;}
	.st59{fill:#FF637B;}
	.st60{fill:#2F2F2F;}
	.st61{fill:#4C6F8C;}
	.st62{fill:#00A6C4;}
	.st63{fill:#2683FF;}
	.st64{fill:#E53431;}
	.st65{fill:#3AB03E;}
	.st66{fill:#FFD800;}
	.st67{fill:#2CD3E1;}
	.st68{fill:#A44551;}
	.st69{fill:#1E1F25;}
	.st70{fill:#1B75BC;}
	.st71{fill:#2B1544;}
	.st72{fill:#B30D23;}
	.st73{fill:#3C5BE0;}
	.st74{fill:#6916FF;}
	.st75{fill:#6CFCCD;}
	.st76{fill:#383939;}
	.st77{fill:#454545;}
	.st78{fill:#D002B4;}
	.st79{fill:#F89022;}
	.st80{fill:#624DBF;}
	.st81{fill:#322C2C;}
	.st82{fill:#338BE5;}
	.st83{fill:#0FA9C9;}
	.st84{fill:#1061E3;}
	.st85{fill:#348F8D;}
	.st86{fill:#FD875E;}
	.st87{fill:#0B1C26;}
	.st88{fill:#16B9AD;}
	.st89{fill:#080D98;}
	.st90{fill:#B2A3F6;}
	.st91{fill:#399B32;}
	.st92{fill:#BEB5AF;}
	.st93{fill:#00B098;}
	.st94{fill:#00BFFF;}
	.st95{fill:#FFFFFF;}
	.st96{fill:#00FFDB;}
	.st97{fill-rule:evenodd;clip-rule:evenodd;fill:#FFFFFF;}
	.st98{fill:#C4B652;}
	.st99{fill:#00D4AF;}
	.st100{opacity:0.5;fill:#FFFFFF;}
	.st101{opacity:0.698;fill:#FFFFFF;}
	.st102{fill:#98CAD3;}
	.st103{fill:#BFDEE2;}
	.st104{opacity:0.498;fill:#FFFFFF;}
	.st105{fill:#FFFFFF;fill-opacity:0.6;}
	.st106{fill:#FFFFFF;fill-opacity:0.8;}
	.st107{fill:#FFFFFF;fill-opacity:0.4;}
	.st108{fill:#CCCCCC;}
	.st109{fill:#0078EA;}
	.st110{fill:#FEFEFE;}
	.st111{fill:#35322F;}
	.st112{fill:#F57E24;}
	.st113{fill:#D8A87D;}
	.st114{fill:#D7D1C8;}
	.st115{fill:#00DFC7;}
	.st116{fill:#FBD399;}
	.st117{fill:#FDE9CC;}
	.st118{fill:#F7A733;}
	.st119{fill:#F9BD66;}
	.st120{fill:#1E6DD8;}
	.st121{fill:#6BD756;}
	.st122{fill:#99E6D6;}
	.st123{fill:#66D9C2;}
	.st124{fill:#CCF2EB;}
	.st125{fill:#5ECDF7;}
</style>
<g id="bgs">
	<path class="st60" d="M32,16c0,4.4-1.6,8.2-4.7,11.3S20.4,32,16,32c-4.4,0-8.2-1.6-11.3-4.7S0,20.4,0,16S1.6,7.8,4.7,4.7
		S11.6,0,16,0s8.2,1.6,11.3,4.7S32,11.6,32,16z"/>
</g>
<g id="icons">
	<path class="st97" d="M15.6,8.4c-0.1-0.1-0.2-0.2-0.1-0.4l0,0c0-0.1,0.1-0.3,0.2-0.4c0.1,0,0.2-0.1,0.2-0.1c0.1,0,0.2,0,0.2,0.1
		l0,0c0.2,0.1,0.2,0.2,0.2,0.4c0,0.2-0.1,0.3-0.3,0.4c-0.1,0-0.1,0-0.2,0C15.8,8.6,15.7,8.5,15.6,8.4L15.6,8.4z M16.2,9.2
		c0.1,0.1,0.2,0.3,0.2,0.4c0,0.2-0.1,0.3-0.3,0.4l0,0c-0.1,0-0.1,0-0.2,0c-0.1,0-0.2,0-0.3-0.1c-0.1-0.1-0.2-0.2-0.2-0.4
		c0-0.2,0.1-0.3,0.2-0.4c0.1,0,0.1-0.1,0.2-0.1C16,9.1,16.1,9.2,16.2,9.2z M8.1,20.5c0.1,0.1,0.2,0.2,0.2,0.4c0,0.2-0.1,0.3-0.2,0.4
		c-0.1,0-0.2,0.1-0.2,0.1c-0.1,0-0.1,0-0.2-0.1c-0.1-0.1-0.2-0.2-0.2-0.4c0-0.2,0.1-0.3,0.2-0.4c0.1,0,0.1-0.1,0.2-0.1
		C8,20.4,8.1,20.5,8.1,20.5z M15.9,6.2c0.1,0,0.3,0.1,0.3,0.2c0.1,0.1,0.1,0.3,0.1,0.4c0,0.2-0.2,0.3-0.4,0.3l0,0l0,0
		c0,0-0.1,0-0.1,0c-0.2,0-0.3-0.1-0.4-0.2c-0.1-0.1-0.1-0.3,0-0.4l0,0C15.6,6.3,15.7,6.2,15.9,6.2C15.9,6.2,15.9,6.2,15.9,6.2
		L15.9,6.2z M9.4,19.8c0.1,0.1,0.2,0.3,0.2,0.4c0,0.1-0.1,0.3-0.3,0.3l0,0c-0.1,0-0.1,0-0.2,0c-0.1,0-0.2,0-0.2-0.1
		c-0.1-0.1-0.2-0.3-0.2-0.4c0-0.2,0.1-0.3,0.3-0.4c0,0,0.1,0,0.2,0C9.3,19.7,9.4,19.7,9.4,19.8L9.4,19.8z M22.3,20.5
		c-0.1-0.1-0.2-0.3-0.2-0.4c0-0.2,0.1-0.3,0.3-0.4c0,0,0.1,0,0.1,0c0.1,0,0.2,0,0.3,0.1c0.1,0.1,0.2,0.3,0.1,0.4
		c0,0.1-0.1,0.3-0.3,0.3c-0.1,0-0.1,0-0.2,0C22.5,20.6,22.4,20.6,22.3,20.5L22.3,20.5z M10.4,18.9c0.1,0,0.2,0.1,0.3,0.2
		c0.1,0.1,0.2,0.3,0.1,0.5c0,0.1-0.2,0.2-0.3,0.3c0,0-0.1,0-0.1,0c-0.1,0-0.2,0-0.3-0.1c-0.1-0.1-0.2-0.3-0.1-0.4
		c0-0.2,0.2-0.3,0.3-0.3C10.3,18.9,10.3,18.9,10.4,18.9L10.4,18.9z M23.6,21.3c-0.1-0.1-0.2-0.2-0.2-0.4c0-0.2,0.1-0.3,0.2-0.4
		c0.1,0,0.1-0.1,0.2-0.1c0.1,0,0.2,0,0.2,0.1c0.2,0.1,0.2,0.3,0.2,0.5c0,0.2-0.1,0.3-0.3,0.4c-0.1,0-0.1,0-0.2,0
		C23.7,21.4,23.7,21.3,23.6,21.3L23.6,21.3z M21.5,19.9c0,0-0.1,0-0.1,0c-0.1,0-0.2,0-0.3-0.1c-0.1-0.1-0.2-0.3-0.1-0.4
		c0-0.2,0.1-0.3,0.3-0.4c0,0,0.1,0,0.1,0c0.1,0,0.2,0.1,0.3,0.2l0,0c0.1,0.1,0.2,0.3,0.1,0.5C21.8,19.7,21.7,19.8,21.5,19.9
		L21.5,19.9z M16.4,20.6c1.1-0.7,2.3-1.4,3.8-2.2v-4.4l-3.8,2.2L16.4,20.6z M24.4,10.7c-0.5-0.3-1-0.6-1.5-0.9
		c-0.5-0.3-1.1-0.6-1.6-0.9C19.7,8,17.9,7,16,5.9c-2.1,1.2-4,2.4-5.7,3.4l-2.6,1.6l3.8,2.2l4.3-2.5c0.1,0,0.2-0.1,0.2-0.1
		c0.1,0,0.2,0,0.3,0.1l4.3,2.5L24.4,10.7z M7.3,11.5l0,9.7l8.4,4.8l0-4.5l-1.6-1c-0.3-0.2-0.7-0.4-1-0.6c-0.5-0.3-1.1-0.6-1.6-0.9
		c-0.2-0.1-0.3-0.3-0.2-0.4l-0.1-5L7.3,11.5z M11.8,14.1l0.1,4.4l3.8,2.2l0-4.4L11.8,14.1z M12.2,13.4c0.4,0.2,0.8,0.5,1.2,0.7
		c0.4,0.3,0.9,0.5,1.3,0.8l1.3,0.7l3.8-2.2L16,11.2L12.2,13.4z M16.4,26l3-1.7c0.7-0.4,1.3-0.8,2-1.2c1.1-0.7,2.3-1.3,3.4-2l0-5.8
		l0-3.9l-3.9,2.3c0,0.4,0,0.8,0,1.2c0,0.2,0,0.4,0,0.6c0,1.3,0,2.4,0,3.3v0.1l0,0.1C20.8,19,20.7,19,20.7,19l0,0l0,0
		c-0.4,0.2-0.8,0.5-1.2,0.7C19,20,18.5,20.3,18,20.6l-1.6,1L16.4,26z M25.1,10.3c0.1,0.1,0.4,0.2,0.3,0.5l0,10.4
		c0,0.2-0.1,0.4-0.3,0.5c-0.8,0.4-1.5,0.9-2.3,1.3c-0.6,0.3-1.2,0.7-1.8,1.1l-4.8,2.8C16.2,27,16.1,27,16,27c-0.1,0-0.2,0-0.3-0.1
		L12.4,25c-1.9-1.1-3.8-2.2-5.7-3.3c-0.2-0.1-0.3-0.3-0.2-0.5l0-2.8c0-2.5,0-5,0-7.4l0,0l0,0c0,0,0,0,0,0c0,0,0,0,0,0l0,0
		c0-0.1,0-0.4,0.3-0.5C7.8,9.8,8.9,9.2,10,8.6c0.6-0.3,1.2-0.7,1.7-1c1.3-0.8,2.7-1.6,4-2.4l0,0c0.1,0,0.2-0.1,0.3-0.1L16,5l0.1,0.1
		c0.9,0.5,1.9,1.1,2.8,1.6c0.6,0.3,1.2,0.7,1.7,1c0.6,0.3,1.1,0.7,1.7,1C23.3,9.2,24.2,9.7,25.1,10.3L25.1,10.3L25.1,10.3
		C25.1,10.3,25.1,10.3,25.1,10.3L25.1,10.3z"/>
</g>
</svg>
