<?xml version="1.0" encoding="utf-8"?>
<!-- Generator: Adobe Illustrator 21.1.0, SVG Export Plug-In . SVG Version: 6.00 Build 0)  -->
<svg version="1.1" xmlns="http://www.w3.org/2000/svg" xmlns:xlink="http://www.w3.org/1999/xlink" x="0px" y="0px"
	 viewBox="0 0 32 32" style="enable-background:new 0 0 32 32;" xml:space="preserve">
<style type="text/css">
	.st0{fill:#0063A5;}
	.st1{fill:#FFFFFF;}
</style>
<g id="bgs">
	<circle id="bg_100_" class="st0" cx="16" cy="16" r="16"/>
</g>
<g id="icons">
	<g>
		<g>
			<path class="st1" d="M23.8,7.1c-0.9,0-1.6,0.7-1.6,1.6s0.7,1.6,1.6,1.6s1.6-0.7,1.6-1.6S24.7,7.1,23.8,7.1z"/>
			<path class="st1" d="M18.8,7.1c-0.9,0-1.6,0.7-1.6,1.6s0.7,1.6,1.6,1.6c0.9,0,1.6-0.7,1.6-1.6S19.7,7.1,18.8,7.1z"/>
		</g>
		<path class="st1" d="M12.9,13.6c-1,0-1.9,0.3-2.7,0.8V8.3c0-0.7-0.6-1.2-1.2-1.2c-0.7,0-1.2,0.6-1.2,1.2v15.4
			c0,0.7,0.6,1.2,1.2,1.2c0.7,0,1.2-0.6,1.2-1.2v-4.9c0-1.5,1.2-2.7,2.7-2.7s2.7,1.2,2.7,2.7v4.9c0,0.7,0.6,1.2,1.2,1.2
			c0.7,0,1.2-0.6,1.2-1.2v-4.9C18.1,15.9,15.8,13.6,12.9,13.6z"/>
	</g>
</g>
</svg>
