<?xml version="1.0" encoding="utf-8"?>
<!-- Generator: Adobe Illustrator 21.1.0, SVG Export Plug-In . SVG Version: 6.00 Build 0)  -->
<svg version="1.1" xmlns="http://www.w3.org/2000/svg" xmlns:xlink="http://www.w3.org/1999/xlink" x="0px" y="0px"
	 viewBox="0 0 32 32" style="enable-background:new 0 0 32 32;" xml:space="preserve">
<style type="text/css">
	.st0{fill:#020100;}
	.st1{fill:#27A3F3;}
	.st2{fill:#0666FF;}
	.st3{fill:#1FC5C9;}
	.st4{fill:#F4BB0B;}
	.st5{fill:#F4D029;}
	.st6{fill:#152743;}
	.st7{fill:#0652D9;}
	.st8{fill:#CC1E46;}
	.st9{fill:#586F81;}
	.st10{fill:#D14071;}
	.st11{fill:#5C6DED;}
	.st12{fill:#602453;}
	.st13{fill:#302C2C;}
	.st14{fill:#8300FF;}
	.st15{fill:#FF9A1F;}
	.st16{fill:#48606E;}
	.st17{fill:#4C1D57;}
	.st18{fill:#002E64;}
	.st19{fill:#504C4C;}
	.st20{fill:#CB0B00;}
	.st21{fill:#007A90;}
	.st22{fill:#00FFBA;}
	.st23{fill:#404040;}
	.st24{fill:#00BFEC;}
	.st25{fill:#2B5EBB;}
	.st26{fill:#0B0E2D;}
	.st27{fill:#1347E8;}
	.st28{fill:#F1385B;}
	.st29{fill:#188C92;}
	.st30{fill:#666666;}
	.st31{fill:#384A77;}
	.st32{fill:#01A6FF;}
	.st33{fill:#136485;}
	.st34{fill:#1BEEF4;}
	.st35{fill:#0038C8;}
	.st36{fill:#05BCA9;}
	.st37{fill:#000D2B;}
	.st38{fill:#1B1F2B;}
	.st39{fill:#FFC04F;}
	.st40{fill:#5DAA79;}
	.st41{fill:#3D3C3A;}
	.st42{fill:#3A4DA5;}
	.st43{fill:#FFCA00;}
	.st44{fill:#205174;}
	.st45{fill:#00C6FF;}
	.st46{fill:#F59100;}
	.st47{fill:#202346;}
	.st48{fill:#101A1F;}
	.st49{fill:#0D4265;}
	.st50{fill:#004ADF;}
	.st51{fill:#0B8BCB;}
	.st52{fill:#A8E0D1;}
	.st53{fill:#00C099;}
	.st54{fill:#0078FF;}
	.st55{fill:#FC3A81;}
	.st56{fill:#0B1529;}
	.st57{fill:#84BD39;}
	.st58{fill:#7F04FF;}
	.st59{fill:#FF637B;}
	.st60{fill:#2F2F2F;}
	.st61{fill:#4C6F8C;}
	.st62{fill:#00A6C4;}
	.st63{fill:#2683FF;}
	.st64{fill:#E53431;}
	.st65{fill:#3AB03E;}
	.st66{fill:#FFD800;}
	.st67{fill:#2CD3E1;}
	.st68{fill:#A44551;}
	.st69{fill:#1E1F25;}
	.st70{fill:#1B75BC;}
	.st71{fill:#2B1544;}
	.st72{fill:#B30D23;}
	.st73{fill:#3C5BE0;}
	.st74{fill:#6916FF;}
	.st75{fill:#6CFCCD;}
	.st76{fill:#383939;}
	.st77{fill:#454545;}
	.st78{fill:#D002B4;}
	.st79{fill:#F89022;}
	.st80{fill:#624DBF;}
	.st81{fill:#322C2C;}
	.st82{fill:#338BE5;}
	.st83{fill:#0FA9C9;}
	.st84{fill:#1061E3;}
	.st85{fill:#348F8D;}
	.st86{fill:#FD875E;}
	.st87{fill:#0B1C26;}
	.st88{fill:#16B9AD;}
	.st89{fill:#080D98;}
	.st90{fill:#B2A3F6;}
	.st91{fill:#399B32;}
	.st92{fill:#BEB5AF;}
	.st93{fill:#00B098;}
	.st94{fill:#00BFFF;}
	.st95{fill:#FFFFFF;}
	.st96{fill:#00FFDB;}
	.st97{fill-rule:evenodd;clip-rule:evenodd;fill:#FFFFFF;}
	.st98{fill:#C4B652;}
	.st99{fill:#00D4AF;}
	.st100{opacity:0.5;fill:#FFFFFF;}
	.st101{opacity:0.698;fill:#FFFFFF;}
	.st102{fill:#98CAD3;}
	.st103{fill:#BFDEE2;}
	.st104{opacity:0.498;fill:#FFFFFF;}
	.st105{fill:#FFFFFF;fill-opacity:0.6;}
	.st106{fill:#FFFFFF;fill-opacity:0.8;}
	.st107{fill:#FFFFFF;fill-opacity:0.4;}
	.st108{fill:#CCCCCC;}
	.st109{fill:#0078EA;}
	.st110{fill:#FEFEFE;}
	.st111{fill:#35322F;}
	.st112{fill:#F57E24;}
	.st113{fill:#D8A87D;}
	.st114{fill:#D7D1C8;}
	.st115{fill:#00DFC7;}
	.st116{fill:#FBD399;}
	.st117{fill:#FDE9CC;}
	.st118{fill:#F7A733;}
	.st119{fill:#F9BD66;}
	.st120{fill:#1E6DD8;}
	.st121{fill:#6BD756;}
	.st122{fill:#99E6D6;}
	.st123{fill:#66D9C2;}
	.st124{fill:#CCF2EB;}
	.st125{fill:#5ECDF7;}
</style>
<g id="bgs">
	<path class="st90" d="M32,16c0,4.4-1.6,8.2-4.7,11.3S20.4,32,16,32c-4.4,0-8.2-1.6-11.3-4.7S0,20.4,0,16S1.6,7.8,4.7,4.7
		S11.6,0,16,0s8.2,1.6,11.3,4.7S32,11.6,32,16z"/>
</g>
<g id="icons">
	<path class="st95" d="M6.2,15.4c-0.7,0-1.2-0.5-1.2-1.2c0-0.6,0.5-1.1,1.2-1.1s1.2,0.5,1.2,1.1C7.4,14.8,6.8,15.4,6.2,15.4z
		 M10.3,25.3c-0.8,0-1.4-0.6-1.4-1.3s0.6-1.3,1.4-1.3s1.4,0.6,1.4,1.3S11.1,25.3,10.3,25.3L10.3,25.3z M19.5,25.3
		c-0.7,0-1.2-0.5-1.2-1.2c0-0.6,0.5-1.2,1.2-1.2s1.2,0.5,1.2,1.2C20.7,24.8,20.2,25.3,19.5,25.3L19.5,25.3z M21.1,22.6
		c-0.6,0-1.2-0.5-1.2-1.2c0-0.6,0.5-1.1,1.2-1.1s1.2,0.5,1.2,1.1C22.3,22.1,21.8,22.6,21.1,22.6z M9.7,21.5c-0.6,0-1.2-0.5-1.2-1.2
		s0.5-1.2,1.2-1.2s1.2,0.5,1.2,1.1C10.9,21,10.4,21.5,9.7,21.5L9.7,21.5z M17.2,13.1c-0.4,0-0.8-0.3-0.8-0.8s0.4-0.8,0.8-0.8
		s0.8,0.3,0.8,0.8S17.6,13.1,17.2,13.1z M16.6,6.9c-0.3,0-0.5-0.1-0.7-0.3c-0.2-0.2-0.3-0.4-0.3-0.7c0-0.5,0.4-1,1-1
		c0.3,0,0.5,0.1,0.7,0.3c0.2,0.2,0.3,0.4,0.3,0.7c0,0.3-0.1,0.5-0.3,0.7C17.1,6.8,16.9,6.9,16.6,6.9z M19.3,6.9
		c-0.3,0-0.6-0.3-0.6-0.6c0-0.3,0.3-0.6,0.6-0.6s0.6,0.3,0.6,0.6C19.9,6.7,19.7,6.9,19.3,6.9z M18,16.5c-0.2,0-0.4-0.1-0.6-0.2
		c-0.2-0.1-0.2-0.3-0.2-0.5c0-0.4,0.4-0.8,0.8-0.8s0.8,0.3,0.8,0.8c0,0.2-0.1,0.4-0.2,0.5C18.4,16.4,18.2,16.5,18,16.5L18,16.5z
		 M15.2,15.4c-0.6,0-1.2-0.5-1.2-1.1c0-0.6,0.5-1.2,1.2-1.2s1.2,0.5,1.2,1.2C16.4,14.8,15.9,15.4,15.2,15.4L15.2,15.4z M11.5,13.1
		c-0.3,0-0.6-0.3-0.6-0.6c0-0.3,0.3-0.6,0.6-0.6s0.6,0.3,0.6,0.6C12.1,12.8,11.8,13.1,11.5,13.1z M16.2,21.5c-0.5,0-1-0.4-1-1
		s0.4-1,1-1c0.5,0,1,0.4,1,1S16.7,21.5,16.2,21.5z M8.7,18.4c-0.8,0-1.4-0.6-1.4-1.3s0.6-1.3,1.4-1.3s1.4,0.6,1.4,1.3
		S9.5,18.4,8.7,18.4z M16.2,24.9c-0.8,0-1.4-0.6-1.4-1.3s0.6-1.3,1.4-1.3c0.8,0,1.4,0.6,1.4,1.3S17,24.9,16.2,24.9z M6.8,21.1
		c-0.5,0-1-0.4-1-1s0.4-1,1-1s1,0.4,1,1S7.3,21.1,6.8,21.1z M22.3,24.9c-0.2,0-0.4-0.1-0.6-0.2c-0.2-0.1-0.2-0.3-0.2-0.5
		c0-0.4,0.4-0.8,0.8-0.8c0.4,0,0.8,0.3,0.8,0.8c0,0.2-0.1,0.4-0.2,0.5C22.7,24.9,22.5,24.9,22.3,24.9L22.3,24.9z M21.1,17.3
		c-0.2,0-0.4-0.1-0.6-0.2c-0.2-0.1-0.2-0.3-0.2-0.5c0-0.4,0.4-0.8,0.8-0.8s0.8,0.3,0.8,0.8c0,0.2-0.1,0.4-0.2,0.5
		C21.5,17.2,21.3,17.3,21.1,17.3L21.1,17.3z M17.6,26.9c-0.4,0-0.8-0.3-0.8-0.8s0.4-0.8,0.8-0.8c0.4,0,0.8,0.3,0.8,0.8
		S18,26.9,17.6,26.9z M21.7,19.6c-0.3,0-0.6-0.3-0.6-0.6s0.3-0.6,0.6-0.6c0.3,0,0.6,0.3,0.6,0.6S22,19.6,21.7,19.6z M18.2,22.3
		c-0.2,0-0.3-0.1-0.4-0.2c-0.1-0.1-0.2-0.2-0.2-0.4c0-0.3,0.3-0.6,0.6-0.6s0.6,0.3,0.6,0.6c0,0.2-0.1,0.3-0.2,0.4
		S18.3,22.3,18.2,22.3z M24.4,23.4c-0.3,0-0.6-0.3-0.6-0.6s0.3-0.6,0.6-0.6c0.3,0,0.6,0.3,0.6,0.6S24.8,23.4,24.4,23.4z M14.2,26.9
		c-0.3,0-0.6-0.3-0.6-0.6s0.3-0.6,0.6-0.6s0.6,0.3,0.6,0.6S14.6,26.9,14.2,26.9z M7.9,23c-0.2,0-0.3-0.1-0.4-0.2s-0.2-0.2-0.2-0.4
		c0-0.3,0.3-0.6,0.6-0.6s0.6,0.3,0.6,0.6c0,0.2-0.1,0.3-0.2,0.4S8.1,23,7.9,23L7.9,23z M5.8,18c-0.2,0-0.4-0.1-0.6-0.2
		S5,17.5,5,17.3c0-0.4,0.4-0.8,0.8-0.8s0.8,0.3,0.8,0.8c0,0.2-0.1,0.4-0.2,0.5C6.2,18,6,18,5.8,18L5.8,18z M18.9,20
		c-0.8,0-1.4-0.6-1.4-1.3s0.6-1.3,1.4-1.3c0.8,0,1.4,0.6,1.4,1.3S19.7,20,18.9,20z M17.4,10.8c-0.8,0-1.4-0.6-1.4-1.3
		c0-0.7,0.6-1.3,1.4-1.3c0.8,0,1.4,0.6,1.4,1.3C18.7,10.2,18.1,10.8,17.4,10.8L17.4,10.8z M13.4,12.3c-0.8,0-1.4-0.6-1.4-1.3
		c0-0.7,0.6-1.3,1.4-1.3c0.8,0,1.4,0.6,1.4,1.3S14.2,12.3,13.4,12.3z"/>
	<path class="st104" d="M13.2,24.9c-0.5,0-0.8-0.2-0.8-0.8c0-0.4,0.4-0.8,0.8-0.8s0.8,0.3,0.8,0.8c0,0.2-0.1,0.4-0.2,0.5
		C13.6,24.9,13.5,24.9,13.2,24.9L13.2,24.9z M13.2,22.6c-0.6,0-1.2-0.5-1.2-1.2c0-0.6,0.5-1.1,1.2-1.1s1.2,0.5,1.2,1.1
		C14.4,22.1,13.9,22.6,13.2,22.6z M12.9,19.6c-0.2,0-0.4-0.1-0.6-0.2c-0.2-0.1-0.2-0.3-0.2-0.5c0-0.4,0.4-0.8,0.8-0.8
		s0.8,0.3,0.8,0.8c0,0.2-0.1,0.4-0.2,0.5C13.3,19.5,13.1,19.6,12.9,19.6L12.9,19.6z M15.4,18.8c-0.8,0-1.4-0.6-1.4-1.3
		s0.6-1.3,1.4-1.3c0.8,0,1.4,0.6,1.4,1.3S16.2,18.8,15.4,18.8L15.4,18.8z M23.9,18.4c-0.2,0-0.4-0.1-0.6-0.2
		c-0.2-0.1-0.2-0.3-0.2-0.5c0-0.4,0.4-0.8,0.8-0.8s0.8,0.3,0.8,0.8c0,0.2-0.1,0.4-0.2,0.5C24.3,18.4,24.1,18.4,23.9,18.4z M7.4,12.3
		c-0.2,0-0.4-0.1-0.6-0.2c-0.2-0.1-0.2-0.3-0.2-0.5c0-0.4,0.4-0.8,0.8-0.8s0.8,0.3,0.8,0.8c0,0.2-0.1,0.4-0.2,0.5S7.6,12.3,7.4,12.3
		L7.4,12.3z M11.7,9.2c-0.4,0-0.8-0.3-0.8-0.8s0.4-0.8,0.8-0.8s0.8,0.3,0.8,0.8S12.1,9.2,11.7,9.2z M14.2,8.8
		c-0.3,0-0.5-0.1-0.7-0.3s-0.3-0.4-0.3-0.7c0-0.5,0.4-1,1-1s1,0.4,1,1c0,0.3-0.1,0.5-0.3,0.7S14.5,8.8,14.2,8.8L14.2,8.8z M9.9,11.5
		c-0.3,0-0.5-0.1-0.7-0.3s-0.3-0.4-0.3-0.7c0-0.5,0.4-1,1-1s1,0.4,1,1c0,0.3-0.1,0.5-0.3,0.7S10.2,11.5,9.9,11.5z M23.3,15.7
		c-0.3,0-0.5-0.1-0.7-0.3c-0.2-0.2-0.3-0.4-0.3-0.7c0-0.5,0.4-1,1-1c0.3,0,0.5,0.1,0.7,0.3s0.3,0.4,0.3,0.7c0,0.3-0.1,0.5-0.3,0.7
		S23.5,15.7,23.3,15.7L23.3,15.7z M24.4,12.7c-0.8,0-1.4-0.6-1.4-1.3c0-0.7,0.6-1.3,1.4-1.3c0.8,0,1.4,0.6,1.4,1.3
		C25.8,12.1,25.2,12.7,24.4,12.7L24.4,12.7z M26.4,18.8c-0.3,0-0.6-0.3-0.6-0.6s0.3-0.6,0.6-0.6s0.6,0.3,0.6,0.6
		S26.7,18.8,26.4,18.8z M12.3,7.3c-0.3,0-0.6-0.3-0.6-0.6s0.3-0.6,0.6-0.6s0.6,0.3,0.6,0.6C12.9,7,12.6,7.3,12.3,7.3z M10.3,14.6
		c-0.3,0-0.6-0.3-0.6-0.6c0-0.3,0.3-0.6,0.6-0.6s0.6,0.3,0.6,0.6C10.9,14.3,10.6,14.6,10.3,14.6z M8.7,13.8c-0.3,0-0.6-0.3-0.6-0.6
		c0-0.3,0.3-0.6,0.6-0.6s0.6,0.3,0.6,0.6C9.3,13.6,9.1,13.8,8.7,13.8z M9.5,8.8c-0.3,0-0.6-0.3-0.6-0.6c0-0.3,0.3-0.6,0.6-0.6
		s0.6,0.3,0.6,0.6C10.1,8.6,9.8,8.8,9.5,8.8z M26.4,13.8c-0.3,0-0.6-0.3-0.6-0.6c0-0.3,0.3-0.6,0.6-0.6s0.6,0.3,0.6,0.6
		C27,13.6,26.7,13.8,26.4,13.8z M23.3,9.2c-0.3,0-0.6-0.3-0.6-0.6s0.3-0.6,0.6-0.6s0.6,0.3,0.6,0.6C23.9,9,23.6,9.2,23.3,9.2z
		 M21.5,8.5c-0.4,0-0.8-0.3-0.8-0.8s0.4-0.8,0.8-0.8c0.4,0,0.8,0.3,0.8,0.8S21.9,8.5,21.5,8.5z M21.3,11.5c-0.3,0-0.5-0.1-0.7-0.3
		c-0.2-0.2-0.3-0.4-0.3-0.7c0-0.5,0.4-1,1-1c0.3,0,0.5,0.1,0.7,0.3s0.3,0.4,0.3,0.7c0,0.3-0.1,0.5-0.3,0.7
		C21.8,11.4,21.6,11.5,21.3,11.5L21.3,11.5z M25.8,16.9c-0.7,0-1.2-0.5-1.2-1.2c0-0.6,0.5-1.1,1.2-1.1c0.6,0,1.2,0.5,1.2,1.1
		C27,16.4,26.5,16.9,25.8,16.9z M24.6,21.5c-0.6,0-1.2-0.5-1.2-1.2s0.5-1.2,1.2-1.2s1.2,0.5,1.2,1.1C25.8,21,25.3,21.5,24.6,21.5
		L24.6,21.5z M20.3,15c-0.9,0-1.6-0.7-1.6-1.5c0-0.8,0.7-1.5,1.6-1.5c0.9,0,1.6,0.7,1.6,1.5C21.9,14.3,21.2,15,20.3,15L20.3,15z
		 M12.1,17.3c-0.9,0-1.6-0.7-1.6-1.5c0-0.8,0.7-1.5,1.6-1.5s1.6,0.7,1.6,1.5C13.6,16.6,12.9,17.3,12.1,17.3L12.1,17.3z"/>
</g>
</svg>
