<?xml version="1.0" encoding="utf-8"?>
<!-- Generator: Adobe Illustrator 21.1.0, SVG Export Plug-In . SVG Version: 6.00 Build 0)  -->
<svg version="1.1" xmlns="http://www.w3.org/2000/svg" xmlns:xlink="http://www.w3.org/1999/xlink" x="0px" y="0px"
	 viewBox="0 0 32 32" style="enable-background:new 0 0 32 32;" xml:space="preserve">
<style type="text/css">
	.st0{fill:#020100;}
	.st1{fill:#27A3F3;}
	.st2{fill:#0666FF;}
	.st3{fill:#1FC5C9;}
	.st4{fill:#F4BB0B;}
	.st5{fill:#F4D029;}
	.st6{fill:#152743;}
	.st7{fill:#0652D9;}
	.st8{fill:#CC1E46;}
	.st9{fill:#586F81;}
	.st10{fill:#D14071;}
	.st11{fill:#5C6DED;}
	.st12{fill:#602453;}
	.st13{fill:#302C2C;}
	.st14{fill:#8300FF;}
	.st15{fill:#FF9A1F;}
	.st16{fill:#48606E;}
	.st17{fill:#4C1D57;}
	.st18{fill:#002E64;}
	.st19{fill:#504C4C;}
	.st20{fill:#CB0B00;}
	.st21{fill:#007A90;}
	.st22{fill:#00FFBA;}
	.st23{fill:#404040;}
	.st24{fill:#00BFEC;}
	.st25{fill:#2B5EBB;}
	.st26{fill:#0B0E2D;}
	.st27{fill:#1347E8;}
	.st28{fill:#F1385B;}
	.st29{fill:#188C92;}
	.st30{fill:#666666;}
	.st31{fill:#384A77;}
	.st32{fill:#01A6FF;}
	.st33{fill:#136485;}
	.st34{fill:#1BEEF4;}
	.st35{fill:#0038C8;}
	.st36{fill:#05BCA9;}
	.st37{fill:#000D2B;}
	.st38{fill:#1B1F2B;}
	.st39{fill:#FFC04F;}
	.st40{fill:#5DAA79;}
	.st41{fill:#3D3C3A;}
	.st42{fill:#3A4DA5;}
	.st43{fill:#FFCA00;}
	.st44{fill:#205174;}
	.st45{fill:#00C6FF;}
	.st46{fill:#F59100;}
	.st47{fill:#202346;}
	.st48{fill:#101A1F;}
	.st49{fill:#0D4265;}
	.st50{fill:#004ADF;}
	.st51{fill:#0B8BCB;}
	.st52{fill:#A8E0D1;}
	.st53{fill:#00C099;}
	.st54{fill:#0078FF;}
	.st55{fill:#FC3A81;}
	.st56{fill:#0B1529;}
	.st57{fill:#84BD39;}
	.st58{fill:#7F04FF;}
	.st59{fill:#FF637B;}
	.st60{fill:#2F2F2F;}
	.st61{fill:#4C6F8C;}
	.st62{fill:#00A6C4;}
	.st63{fill:#2683FF;}
	.st64{fill:#E53431;}
	.st65{fill:#3AB03E;}
	.st66{fill:#FFD800;}
	.st67{fill:#2CD3E1;}
	.st68{fill:#A44551;}
	.st69{fill:#1E1F25;}
	.st70{fill:#1B75BC;}
	.st71{fill:#2B1544;}
	.st72{fill:#B30D23;}
	.st73{fill:#3C5BE0;}
	.st74{fill:#6916FF;}
	.st75{fill:#6CFCCD;}
	.st76{fill:#383939;}
	.st77{fill:#454545;}
	.st78{fill:#D002B4;}
	.st79{fill:#F89022;}
	.st80{fill:#624DBF;}
	.st81{fill:#322C2C;}
	.st82{fill:#338BE5;}
	.st83{fill:#0FA9C9;}
	.st84{fill:#1061E3;}
	.st85{fill:#348F8D;}
	.st86{fill:#FD875E;}
	.st87{fill:#0B1C26;}
	.st88{fill:#16B9AD;}
	.st89{fill:#080D98;}
	.st90{fill:#B2A3F6;}
	.st91{fill:#399B32;}
	.st92{fill:#BEB5AF;}
	.st93{fill:#00B098;}
	.st94{fill:#00BFFF;}
	.st95{fill:#FFFFFF;}
	.st96{fill:#00FFDB;}
	.st97{fill-rule:evenodd;clip-rule:evenodd;fill:#FFFFFF;}
	.st98{fill:#C4B652;}
	.st99{fill:#00D4AF;}
	.st100{opacity:0.5;fill:#FFFFFF;}
	.st101{opacity:0.698;fill:#FFFFFF;}
	.st102{fill:#98CAD3;}
	.st103{fill:#BFDEE2;}
	.st104{opacity:0.498;fill:#FFFFFF;}
	.st105{fill:#FFFFFF;fill-opacity:0.6;}
	.st106{fill:#FFFFFF;fill-opacity:0.8;}
	.st107{fill:#FFFFFF;fill-opacity:0.4;}
	.st108{fill:#CCCCCC;}
	.st109{fill:#0078EA;}
	.st110{fill:#FEFEFE;}
	.st111{fill:#35322F;}
	.st112{fill:#F57E24;}
	.st113{fill:#D8A87D;}
	.st114{fill:#D7D1C8;}
	.st115{fill:#00DFC7;}
	.st116{fill:#FBD399;}
	.st117{fill:#FDE9CC;}
	.st118{fill:#F7A733;}
	.st119{fill:#F9BD66;}
	.st120{fill:#1E6DD8;}
	.st121{fill:#6BD756;}
	.st122{fill:#99E6D6;}
	.st123{fill:#66D9C2;}
	.st124{fill:#CCF2EB;}
	.st125{fill:#5ECDF7;}
</style>
<g id="bgs">
	<circle id="bg_69_" class="st29" cx="16" cy="16" r="16"/>
</g>
<g id="icons">
	<path class="st95" d="M21.8,21c0.2,0,0.4,0.2,0.4,0.3s-0.2,0.3-0.4,0.3s-0.4-0.2-0.4-0.3S21.6,21,21.8,21z M15,26.3
		c0.2,0,0.4,0.2,0.4,0.3S15.2,27,15,27c-0.2,0-0.4-0.2-0.4-0.3S14.8,26.3,15,26.3z M14.8,13.8c0.2,0,0.4,0.2,0.4,0.3
		s-0.2,0.3-0.4,0.3c-0.2,0-0.4-0.2-0.4-0.3S14.6,13.8,14.8,13.8z M22.1,10.2c0.2,0,0.4,0.2,0.4,0.3s-0.2,0.3-0.4,0.3
		s-0.4-0.2-0.4-0.3S22,10.2,22.1,10.2z M11,20.9c0.2,0,0.4,0.2,0.4,0.3s-0.2,0.3-0.4,0.3c-0.2,0-0.4-0.2-0.4-0.3S10.8,20.9,11,20.9z
		 M9.9,10.4c0.2,0,0.4,0.2,0.4,0.3S10,11,9.9,11c-0.2,0-0.4-0.2-0.4-0.3S9.7,10.4,9.9,10.4z M14.8,5c0.2,0,0.4,0.2,0.4,0.3
		S15,5.7,14.8,5.7c-0.2,0-0.4-0.2-0.4-0.3S14.6,5,14.8,5z M14.9,13.6V5.9c0.1,0,0.2-0.1,0.3-0.1l6.4,4.6c0,0.1-0.1,0.2-0.1,0.2
		c0,0.1,0,0.1,0,0.1l-6.3,3.1C15.2,13.7,15.1,13.6,14.9,13.6z M14.8,26.1l-3.4-4.5c0.1-0.1,0.2-0.2,0.2-0.4c0-0.3-0.2-0.5-0.5-0.6
		l-1-9.5c0.3-0.1,0.4-0.3,0.4-0.5c0-0.1,0-0.3-0.1-0.4l4.2-4.5c0.1,0,0.1,0.1,0.2,0.1v7.7c-0.3,0.1-0.5,0.3-0.5,0.6
		c0,0.3,0.2,0.5,0.5,0.6l0.2,11.4C14.8,26.1,14.8,26.1,14.8,26.1z M21.5,20.9l-6.2-6.4c0.1-0.1,0.1-0.2,0.1-0.3c0-0.1,0-0.1,0-0.1
		l6.3-3.1c0.1,0.1,0.2,0.2,0.3,0.2l-0.3,9.7C21.6,20.8,21.6,20.8,21.5,20.9z M21.3,21c-0.1,0.1-0.1,0.2-0.1,0.3c0,0.1,0,0.2,0.1,0.2
		l-5.9,4.6c-0.1-0.1-0.2-0.1-0.3-0.1l-0.2-11.4c0.1,0,0.1,0,0.2-0.1L21.3,21z"/>
</g>
</svg>
