<?xml version="1.0" encoding="utf-8"?>
<!-- Generator: Adobe Illustrator 21.1.0, SVG Export Plug-In . SVG Version: 6.00 Build 0)  -->
<svg version="1.1" xmlns="http://www.w3.org/2000/svg" xmlns:xlink="http://www.w3.org/1999/xlink" x="0px" y="0px"
	 viewBox="0 0 32 32" style="enable-background:new 0 0 32 32;" xml:space="preserve">
<style type="text/css">
	.st0{fill:#464645;}
	.st1{fill:#0000FF;}
	.st2{fill:#FF0000;}
	.st3{fill:#E9570F;}
	.st4{fill:#BAB9FF;}
	.st5{fill:#1C1C1C;}
	.st6{fill:#2F50B0;}
	.st7{fill:#CAAB60;}
	.st8{fill:#4096D0;}
	.st9{fill:#21C8B4;}
	.st10{fill:#002342;}
	.st11{fill:#005281;}
	.st12{fill:#F80000;}
	.st13{fill:#F55749;}
	.st14{fill:#272731;}
	.st15{fill:#FF4081;}
	.st16{fill:#FEBF51;}
	.st17{fill:#673300;}
	.st18{fill:#00A5E7;}
	.st19{fill:#4240A1;}
	.st20{fill:#185095;}
	.st21{fill:#BDDBEE;}
	.st22{fill:#044AAC;}
	.st23{fill:#346FCE;}
	.st24{fill:#24DD7B;}
	.st25{fill:#521C72;}
	.st26{fill:#DE1A80;}
	.st27{fill:#657BED;}
	.st28{fill:#2F3F54;}
	.st29{fill:#0097E8;}
	.st30{fill:#6382C2;}
	.st31{fill:#FF183D;}
	.st32{fill:#0F63D8;}
	.st33{fill:#253238;}
	.st34{fill:#0093A9;}
	.st35{fill:#008CBE;}
	.st36{fill:#2D9CDB;}
	.st37{fill:#E3A719;}
	.st38{fill:#5DC6BA;}
	.st39{fill:#333333;}
	.st40{fill:#363635;}
	.st41{fill:#D6395F;}
	.st42{fill:#F99600;}
	.st43{fill:#4D4D4F;}
	.st44{fill:#1272BE;}
	.st45{fill:#00CF54;}
	.st46{fill:#0092B5;}
	.st47{fill:#EA5C4F;}
	.st48{fill:#104FCA;}
	.st49{fill:#7B346E;}
	.st50{fill:none;stroke:#000000;stroke-width:0.1;stroke-miterlimit:10;}
	.st51{fill:#37DCD8;}
	.st52{fill:#C80000;}
	.st53{fill:#066EBE;}
	.st54{fill:#27BAE0;}
	.st55{fill:#CB8F00;}
	.st56{fill:#6AB87F;}
	.st57{fill:#B26FFF;}
	.st58{fill:#F4AE95;}
	.st59{fill:#F24748;}
	.st60{fill:#0351BE;}
	.st61{fill:#798E97;}
	.st62{fill:#E73730;}
	.st63{fill:#164B79;}
	.st64{fill:#0096D8;}
	.st65{fill:#47B4DD;}
	.st66{fill:#273D4B;}
	.st67{fill:#3E3A39;}
	.st68{fill:#39C0B5;}
	.st69{fill:#17284C;}
	.st70{fill:#3B9ACC;}
	.st71{fill:#151A2F;}
	.st72{fill:#344269;}
	.st73{fill:#21CBFF;}
	.st74{fill:#2D2D2D;}
	.st75{fill:#00233D;}
	.st76{fill:#0062BF;}
	.st77{fill:#F9B23E;}
	.st78{fill:#DE5C6E;}
	.st79{fill:#F88900;}
	.st80{fill:#EC555E;}
	.st81{fill:#B8D75C;}
	.st82{fill:#D5E400;}
	.st83{fill:#00969C;}
	.st84{fill:#BE1004;}
	.st85{fill:#00C6DD;}
	.st86{fill:#151037;}
	.st87{fill:#0078C6;}
	.st88{fill:#F0DA67;}
	.st89{fill:#EC5005;}
	.st90{fill:#686DB2;}
	.st91{fill:#EABE51;}
	.st92{fill:#333245;}
	.st93{fill:#2C398F;}
	.st94{fill:#FFFFFF;}
	.st95{fill:#1267FF;}
	.st96{fill:#00A7E9;}
	.st97{fill:#F00000;}
	.st98{fill-rule:evenodd;clip-rule:evenodd;fill:#FFFFFF;}
	.st99{opacity:0.498;fill:#FFFFFF;}
	.st100{opacity:0.6;fill:#FFFFFF;}
	.st101{opacity:0.8;fill:#FFFFFF;}
	.st102{fill:#FAFBF8;}
	.st103{fill:#925518;}
	.st104{opacity:0.5;fill:#FFFFFF;}
	.st105{fill:#D3BBA3;}
	.st106{fill:#62D0DD;}
	.st107{fill:#468CC4;}
	.st108{fill:#23A8DB;}
	.st109{fill:#5DD2EF;}
	.st110{fill:#DEE0E4;}
	.st111{opacity:0.3;fill:#FFFFFF;}
	.st112{fill:#FBB03B;}
	.st113{fill:#CD9A24;}
	.st114{fill:#FBCA3B;}
	.st115{fill:#C59B4D;}
	.st116{fill:#71AAD8;}
	.st117{fill:#418ECB;}
	.st118{fill:#D0E3F2;}
	.st119{fill:#E0BC66;}
	.st120{fill:#EAD299;}
	.st121{fill:#F5E9CC;}
	.st122{fill:#DDE8F6;}
	.st123{fill:#BCD1EE;}
	.st124{fill:#9ABAE5;}
	.st125{fill:#78A2DC;}
	.st126{fill:#578BD4;}
	.st127{fill:#3574CB;}
	.st128{fill:#00FFFF;}
	.st129{fill:#FAD7D6;}
	.st130{fill:#F18783;}
	.st131{fill:#F5AFAC;}
	.st132{fill:#CCEAF7;}
	.st133{fill:#66C0E8;}
	.st134{fill:#99D5EF;}
	.st135{fill:#54C719;}
	.st136{fill:#FDE0B2;}
	.st137{fill:#FBD18B;}
	.st138{fill:#FEF0D8;}
	.st139{fill:#A0B3BE;}
	.st140{fill:#3B474D;}
	.st141{fill:#E2A560;}
	.st142{fill:#E9BA5D;}
	.st143{fill:#010100;}
	.st144{fill:#C3C5E0;}
	.st145{fill:#F2D897;}
	.st146{fill:#FBF2DC;}
	.st147{fill:#FCC900;}
</style>
<g id="bgs">
	<path class="st92" d="M32,16c0,4.4-1.6,8.2-4.7,11.3S20.4,32,16,32c-4.4,0-8.2-1.6-11.3-4.7S0,20.4,0,16S1.6,7.8,4.7,4.7
		S11.6,0,16,0s8.2,1.6,11.3,4.7S32,11.6,32,16z"/>
</g>
<g id="icons">
	<g>
		<g>
			<path class="st147" d="M16,20.2c-2.3,0-4.2-1.9-4.2-4.2s1.9-4.2,4.2-4.2s4.2,1.9,4.2,4.2S18.3,20.2,16,20.2z M16,12.5
				c-1.9,0-3.5,1.6-3.5,3.5s1.6,3.5,3.5,3.5c1.9,0,3.5-1.6,3.5-3.5S17.9,12.5,16,12.5z"/>
		</g>
		<g>
			<g>
				<path class="st147" d="M11.1,19.2c-0.6-1-1-2.1-1-3.2c0-3.2,2.6-5.9,5.9-5.9c0.9,0,1.8,0.2,2.7,0.6l-0.1,0.3
					c-0.8-0.4-1.6-0.6-2.5-0.6c-3.1,0-5.6,2.5-5.6,5.6c0,1.1,0.3,2.2,0.9,3.1L11.1,19.2z"/>
			</g>
		</g>
		<g>
			<g>
				<path class="st147" d="M16,21.9c-1.4,0-2.8-0.5-3.9-1.5l0.2-0.2c1,0.9,2.3,1.4,3.7,1.4c3.1,0,5.6-2.5,5.6-5.6
					c0-1.6-0.7-3.1-1.8-4.1l0.2-0.2c1.2,1.1,1.9,2.7,1.9,4.3C21.9,19.2,19.2,21.9,16,21.9z"/>
			</g>
		</g>
		<g>
			<g>
				<path class="st147" d="M14.7,22.6C11.6,22,9.3,19.2,9.3,16c0-2.8,1.8-5.4,4.4-6.3l0.1,0.3c-2.5,0.9-4.2,3.4-4.2,6.1
					c0,3.1,2.2,5.7,5.2,6.3L14.7,22.6z"/>
			</g>
		</g>
		<g>
			<path class="st147" d="M16.3,22.7l0-0.3c3.1-0.1,5.7-2.5,6.1-5.6l0.3,0C22.2,20.2,19.5,22.6,16.3,22.7z"/>
		</g>
		<g>
			<g>
				<path class="st147" d="M22.4,15.5c-0.1-1.6-0.9-3.1-2-4.2C19,10,17.2,9.4,15.3,9.6l0-0.3c2-0.2,3.9,0.4,5.3,1.8
					c1.2,1.2,2,2.7,2.1,4.4L22.4,15.5z"/>
			</g>
		</g>
		<g>
			<g>
				<path class="st147" d="M20.4,22.2L20.3,22c1.9-1.4,3.1-3.6,3.1-6c0-4.1-3.3-7.4-7.4-7.4c-3.3,0-6.2,2.2-7.1,5.4L8.6,14
					c0.9-3.3,3.9-5.6,7.4-5.6c4.2,0,7.7,3.4,7.7,7.7C23.7,18.5,22.5,20.8,20.4,22.2z"/>
			</g>
		</g>
		<g>
			<g>
				<path class="st147" d="M16,23.7c-4.2,0-7.7-3.4-7.7-7.7c0-0.2,0-0.4,0-0.6l0.3,0c0,0.2,0,0.4,0,0.5c0,4.1,3.3,7.4,7.4,7.4
					c1,0,2-0.2,3-0.6l0.1,0.3C18.1,23.4,17.1,23.7,16,23.7z"/>
			</g>
		</g>
		<g>
			<g>
				<path class="st147" d="M16,24.5c-0.7,0-1.4-0.1-2-0.2L14,24c0.6,0.2,1.3,0.2,2,0.2c4.5,0,8.2-3.7,8.2-8.2S20.5,7.8,16,7.8
					c-4.5,0-8.2,3.7-8.2,8.2c0,3.3,2,6.3,5,7.6l-0.1,0.3c-3.2-1.3-5.2-4.4-5.2-7.9c0-4.7,3.8-8.5,8.5-8.5c4.7,0,8.5,3.8,8.5,8.5
					S20.7,24.5,16,24.5z"/>
			</g>
		</g>
		<g>
			<g>
				<path class="st147" d="M7.4,19.9c-0.5-1.2-0.8-2.5-0.8-3.9c0-5.2,4.2-9.4,9.4-9.4c2.4,0,4.6,0.9,6.3,2.5l-0.2,0.2
					c-1.7-1.5-3.9-2.4-6.1-2.4c-5,0-9.1,4.1-9.1,9.1c0,1.3,0.3,2.6,0.8,3.7L7.4,19.9z"/>
			</g>
		</g>
		<g>
			<path class="st147" d="M16,25.4c-3.2,0-6.2-1.6-7.9-4.3l0.3-0.2c1.7,2.6,4.6,4.2,7.7,4.2c5,0,9.1-4.1,9.1-9.1
				c0-2.1-0.7-4-1.9-5.6l0.2-0.2c1.3,1.7,2,3.7,2,5.8C25.4,21.2,21.2,25.4,16,25.4z"/>
		</g>
		<g>
			<g>
				<path class="st147" d="M16,26.3c-5.7,0-10.3-4.6-10.3-10.3c0-2.8,1.1-5.4,3.1-7.4L9,8.8c-2,1.9-3,4.5-3,7.2c0,5.5,4.5,10,10,10
					c3.6,0,7-2,8.7-5.1l0.3,0.2C23.2,24.3,19.7,26.3,16,26.3z"/>
			</g>
		</g>
		<g>
			<g>
				<path class="st147" d="M25.6,19.8l-0.3-0.1c0.5-1.2,0.7-2.4,0.7-3.7c0-5.5-4.5-10-10-10c-2.1,0-4.2,0.7-5.9,1.9L9.9,7.6
					c1.8-1.3,3.9-2,6.1-2c5.7,0,10.3,4.6,10.3,10.3C26.3,17.3,26.1,18.6,25.6,19.8z"/>
			</g>
		</g>
		<g>
			<g>
				<path class="st147" d="M15.5,27.2C9.5,26.9,4.8,22,4.8,16c0-6.2,5-11.2,11.2-11.2c6.2,0,11.2,5,11.2,11.2c0,2.9-1.1,5.6-3,7.7
					c-1.9,2.1-4.6,3.3-7.4,3.5l0-0.3c2.7-0.2,5.3-1.4,7.2-3.4c1.9-2,2.9-4.7,2.9-7.4C26.9,10,22,5.1,16,5.1C10,5.1,5.1,10,5.1,16
					c0,5.8,4.6,10.6,10.4,10.9L15.5,27.2z"/>
			</g>
		</g>
		<g>
			<path class="st147" d="M16,28.2C9.2,28.2,3.8,22.8,3.8,16S9.2,3.8,16,3.8c6.8,0,12.3,5.5,12.3,12.2S22.8,28.2,16,28.2z M16,4.1
				C9.5,4.1,4.1,9.5,4.1,16S9.5,27.9,16,27.9c6.5,0,11.9-5.3,11.9-11.9S22.5,4.1,16,4.1z"/>
		</g>
		<g>
			<path class="st147" d="M11.5,20.1c-0.2,0-0.3-0.1-0.5-0.2c-0.2-0.2-0.2-0.6,0.1-0.8c0.2-0.2,0.6-0.2,0.8,0.1l0,0
				c0.1,0.1,0.2,0.3,0.1,0.4c0,0.2-0.1,0.3-0.2,0.4C11.8,20.1,11.6,20.1,11.5,20.1z M11.5,19.2c-0.1,0-0.1,0-0.2,0.1
				c-0.1,0.1-0.1,0.3,0,0.4c0,0.1,0.1,0.1,0.2,0.1c0.1,0,0.1,0,0.2-0.1c0.1,0,0.1-0.1,0.1-0.2c0-0.1,0-0.1-0.1-0.2l0,0
				C11.7,19.3,11.6,19.2,11.5,19.2C11.5,19.2,11.5,19.2,11.5,19.2z"/>
		</g>
		<g>
			<path class="st147" d="M19.5,12.1c-0.1,0-0.2,0-0.3-0.1l0,0c-0.1-0.1-0.2-0.2-0.2-0.4c0-0.2,0-0.3,0.1-0.4
				c0.1-0.1,0.2-0.2,0.4-0.2c0.2,0,0.3,0,0.4,0.1c0.1,0.1,0.2,0.2,0.2,0.4c0,0.2,0,0.3-0.1,0.4C19.9,12,19.7,12.1,19.5,12.1z
				 M19.3,11.7c0.1,0.1,0.3,0.1,0.4-0.1c0-0.1,0.1-0.1,0-0.2c0-0.1-0.1-0.1-0.1-0.2c-0.1,0-0.1-0.1-0.2,0c-0.1,0-0.1,0.1-0.2,0.1
				c0,0.1-0.1,0.1,0,0.2C19.2,11.6,19.3,11.7,19.3,11.7L19.3,11.7z"/>
		</g>
		<g>
			<path class="st147" d="M15.2,23.1C15.2,23.1,15.2,23.1,15.2,23.1c-0.2,0-0.4-0.1-0.5-0.2c-0.1-0.1-0.2-0.3-0.1-0.4
				c0-0.2,0.1-0.3,0.2-0.4c0.1-0.1,0.3-0.2,0.4-0.1c0.3,0,0.6,0.3,0.5,0.6C15.8,22.9,15.5,23.1,15.2,23.1z M15.2,22.3
				c-0.1,0-0.1,0-0.2,0.1c-0.1,0-0.1,0.1-0.1,0.2c0,0.1,0,0.1,0.1,0.2c0,0.1,0.1,0.1,0.2,0.1c0.2,0,0.3-0.1,0.3-0.3
				C15.5,22.4,15.4,22.3,15.2,22.3L15.2,22.3C15.2,22.3,15.2,22.3,15.2,22.3z"/>
		</g>
		<g>
			<path class="st147" d="M14.9,10.1c-0.3,0-0.5-0.2-0.6-0.5c-0.1-0.3,0.1-0.6,0.5-0.7c0.3-0.1,0.6,0.1,0.7,0.5c0,0.2,0,0.3-0.1,0.4
				c-0.1,0.1-0.2,0.2-0.4,0.3h0C14.9,10.1,14.9,10.1,14.9,10.1z M14.9,9.2C14.8,9.2,14.8,9.2,14.9,9.2c-0.2,0-0.3,0.2-0.3,0.3
				c0,0.2,0.2,0.3,0.3,0.2c0.1,0,0.1-0.1,0.2-0.1c0-0.1,0.1-0.1,0-0.2C15.1,9.3,15,9.2,14.9,9.2z"/>
		</g>
		<g>
			<path class="st147" d="M22.6,16.5C22.6,16.5,22.6,16.5,22.6,16.5c-0.2,0-0.3-0.1-0.4-0.2C22.1,16.2,22,16,22,15.9
				c0-0.2,0.1-0.3,0.2-0.4c0.1-0.1,0.3-0.2,0.4-0.2c0.2,0,0.3,0.1,0.4,0.2c0.1,0.1,0.2,0.3,0.2,0.4c0,0.2-0.1,0.3-0.2,0.4
				C22.9,16.4,22.7,16.5,22.6,16.5z M22.6,15.6c-0.2,0-0.3,0.1-0.3,0.3c0,0.2,0.1,0.3,0.3,0.3c0.1,0,0.1,0,0.2-0.1
				c0.1-0.1,0.1-0.1,0.1-0.2C22.9,15.7,22.7,15.6,22.6,15.6C22.6,15.6,22.6,15.6,22.6,15.6z"/>
		</g>
		<g>
			<path class="st147" d="M8.7,15c0,0-0.1,0-0.1,0c-0.2,0-0.3-0.1-0.4-0.2c-0.1-0.1-0.1-0.3-0.1-0.4c0-0.2,0.1-0.3,0.2-0.4
				c0.1-0.1,0.3-0.1,0.4-0.1c0.2,0,0.3,0.1,0.4,0.2c0.1,0.1,0.1,0.3,0.1,0.4S9.1,14.8,9,14.9C8.9,15,8.8,15,8.7,15z M8.7,14.1
				c-0.1,0-0.1,0-0.2,0.1c-0.1,0-0.1,0.1-0.1,0.2s0,0.2,0,0.2c0,0.1,0.1,0.1,0.2,0.1c0.1,0,0.2,0,0.2,0c0.1,0,0.1-0.1,0.1-0.2l0,0
				c0-0.1,0-0.2,0-0.2C8.9,14.2,8.8,14.2,8.7,14.1C8.7,14.1,8.7,14.1,8.7,14.1z"/>
		</g>
		<g>
			<path class="st147" d="M19.4,23.3c-0.1,0-0.1,0-0.2,0c-0.2,0-0.3-0.1-0.4-0.3c-0.1-0.1-0.1-0.3-0.1-0.5c0-0.2,0.1-0.3,0.3-0.4
				l0,0c0,0,0,0,0,0l0,0c0.1-0.1,0.3-0.1,0.5-0.1c0.2,0,0.3,0.1,0.4,0.3c0.2,0.3,0.1,0.6-0.2,0.8C19.6,23.2,19.5,23.3,19.4,23.3z
				 M19.4,22.4c0,0-0.1,0-0.1,0h0c-0.1,0-0.1,0.1-0.1,0.2c0,0.1,0,0.2,0,0.2c0,0.1,0.1,0.1,0.2,0.1c0.1,0,0.2,0,0.2,0
				c0.1-0.1,0.2-0.3,0.1-0.4C19.6,22.5,19.6,22.4,19.4,22.4C19.5,22.4,19.5,22.4,19.4,22.4z"/>
		</g>
		<g>
			<path class="st147" d="M13.6,24.6c-0.1,0-0.1,0-0.2,0c-0.2,0-0.3-0.2-0.3-0.3C13,24.2,13,24,13,23.8c0-0.2,0.2-0.3,0.3-0.3
				c0.1-0.1,0.3-0.1,0.5,0c0.2,0,0.3,0.2,0.3,0.3c0.1,0.1,0.1,0.3,0,0.5c0,0.2-0.2,0.3-0.3,0.3C13.8,24.6,13.7,24.6,13.6,24.6z
				 M13.6,23.7c0,0-0.1,0-0.1,0c-0.1,0-0.1,0.1-0.1,0.2c0,0.1,0,0.1,0,0.2c0,0.1,0.1,0.1,0.2,0.1c0.1,0,0.1,0,0.2,0
				c0.1,0,0.1-0.1,0.1-0.2c0-0.1,0-0.1,0-0.2C13.8,23.8,13.8,23.8,13.6,23.7L13.6,23.7C13.6,23.7,13.6,23.7,13.6,23.7z"/>
		</g>
		<g>
			<path class="st147" d="M7.7,20.8c-0.2,0-0.4-0.1-0.5-0.3c-0.2-0.3,0-0.6,0.2-0.8c0.3-0.2,0.6,0,0.8,0.2v0c0.2,0.3,0,0.6-0.2,0.8
				C7.9,20.8,7.8,20.8,7.7,20.8z M7.7,19.9c0,0-0.1,0-0.1,0c-0.1,0.1-0.2,0.2-0.1,0.4c0.1,0.1,0.2,0.2,0.4,0.1
				C8,20.4,8.1,20.2,8,20.1v0C7.9,20,7.8,19.9,7.7,19.9z"/>
		</g>
		<g>
			<path class="st147" d="M22.6,10.1C22.5,10.1,22.5,10.1,22.6,10.1c-0.2,0-0.3-0.1-0.4-0.2c-0.2-0.2-0.2-0.6,0-0.8
				c0.2-0.2,0.6-0.2,0.8,0c0.2,0.2,0.2,0.6,0,0.8C22.9,10,22.7,10.1,22.6,10.1z M22.6,9.2c-0.1,0-0.1,0-0.2,0.1
				c-0.1,0.1-0.1,0.3,0,0.4c0.1,0.1,0.1,0.1,0.2,0.1c0.1,0,0.1,0,0.2-0.1c0.1-0.1,0.1-0.3,0-0.4C22.7,9.2,22.6,9.2,22.6,9.2z"/>
		</g>
		<g>
			<path class="st147" d="M25.1,21.2c-0.1,0-0.2,0-0.3-0.1c-0.1-0.1-0.2-0.2-0.3-0.3s0-0.3,0-0.5c0.1-0.1,0.2-0.2,0.3-0.3
				c0.1-0.1,0.3,0,0.5,0c0.1,0.1,0.2,0.2,0.3,0.3s0,0.3,0,0.5c-0.1,0.1-0.2,0.2-0.3,0.3C25.2,21.2,25.1,21.2,25.1,21.2z M25.1,20.3
				C25,20.3,25,20.3,25.1,20.3c-0.2,0-0.2,0.1-0.3,0.2h0c0,0.1,0,0.1,0,0.2c0,0.1,0.1,0.1,0.1,0.2c0.1,0,0.1,0,0.2,0
				c0.1,0,0.1-0.1,0.2-0.1c0-0.1,0-0.1,0-0.2c0-0.1-0.1-0.1-0.1-0.2C25.2,20.3,25.1,20.3,25.1,20.3z"/>
		</g>
		<g>
			<path class="st147" d="M9.7,8.6C9.7,8.6,9.6,8.6,9.7,8.6c-0.2,0-0.4-0.1-0.5-0.2C9.1,8.3,9.1,8.1,9.1,8c0-0.2,0.1-0.3,0.2-0.4
				c0.1-0.1,0.3-0.1,0.4-0.1c0.2,0,0.3,0.1,0.4,0.2c0.1,0.1,0.1,0.3,0.1,0.4c0,0.2-0.1,0.3-0.2,0.4l0,0C10,8.6,9.8,8.6,9.7,8.6z
				 M9.7,7.7c-0.1,0-0.1,0-0.2,0.1C9.4,7.8,9.4,7.9,9.4,8c0,0.1,0,0.1,0.1,0.2c0,0.1,0.1,0.1,0.2,0.1c0.1,0,0.1,0,0.2-0.1l0,0
				C9.9,8.2,10,8.1,10,8c0-0.1,0-0.1-0.1-0.2C9.9,7.8,9.8,7.7,9.7,7.7C9.7,7.7,9.7,7.7,9.7,7.7z"/>
		</g>
		<g>
			<path class="st147" d="M15.9,27.6c-0.2,0-0.3-0.1-0.4-0.2c-0.1-0.1-0.2-0.3-0.2-0.4c0-0.3,0.3-0.6,0.6-0.6h0c0,0,0,0,0,0
				c0.3,0,0.6,0.3,0.6,0.6c0,0.2-0.1,0.3-0.2,0.4C16.2,27.6,16.1,27.6,15.9,27.6C15.9,27.6,15.9,27.6,15.9,27.6z M15.9,26.8
				c-0.2,0-0.3,0.1-0.3,0.3c0,0.1,0,0.1,0.1,0.2c0.1,0.1,0.1,0.1,0.2,0.1c0.1,0,0.1,0,0.2-0.1c0.1-0.1,0.1-0.1,0.1-0.2
				C16.2,26.9,16.1,26.8,15.9,26.8L15.9,26.8z"/>
		</g>
		<g>
			
				<rect x="20.8" y="23.9" transform="matrix(0.8413 -0.5406 0.5406 0.8413 -9.8426 15.1964)" class="st147" width="0.3" height="0.9"/>
		</g>
		<g>
			
				<rect x="21.7" y="19.5" transform="matrix(0.6007 -0.7995 0.7995 0.6007 -7.188 25.4291)" class="st147" width="0.3" height="0.9"/>
		</g>
		<g>
			
				<rect x="17.2" y="21.6" transform="matrix(0.9765 -0.2155 0.2155 0.9765 -4.3336 4.2558)" class="st147" width="0.3" height="0.9"/>
		</g>
		<g>
			
				<rect x="11.5" y="21.6" transform="matrix(0.5484 -0.8362 0.8362 0.5484 -12.8102 19.8588)" class="st147" width="0.9" height="0.3"/>
		</g>
		<g>
			
				<rect x="9.8" y="17.9" transform="matrix(0.9315 -0.3637 0.3637 0.9315 -5.8813 4.9555)" class="st147" width="0.9" height="0.3"/>
		</g>
		<g>
			
				<rect x="5.2" y="15.5" transform="matrix(0.1155 -0.9933 0.9933 0.1155 -11.0799 19.4571)" class="st147" width="0.3" height="0.9"/>
		</g>
		<g>
			<rect x="10.2" y="8.8" transform="matrix(0.7284 -0.6851 0.6851 0.7284 -3.53 9.5877)" class="st147" width="0.3" height="0.9"/>
		</g>
		<g>
			
				<rect x="15.8" y="7.9" transform="matrix(6.494700e-02 -0.9979 0.9979 6.494700e-02 7.1428 23.7417)" class="st147" width="0.9" height="0.3"/>
		</g>
		<g>
			<rect x="21" y="7.8" transform="matrix(0.5519 -0.8339 0.8339 0.5519 2.9799 21.4716)" class="st147" width="0.9" height="0.3"/>
		</g>
		<g>
			
				<rect x="21.3" y="13.6" transform="matrix(0.9198 -0.3923 0.3923 0.9198 -3.6698 9.6354)" class="st147" width="0.9" height="0.3"/>
		</g>
		<g>
			
				<rect x="24.3" y="15" transform="matrix(0.9972 -7.471710e-02 7.471710e-02 0.9972 -1.0645 1.894)" class="st147" width="0.9" height="0.3"/>
		</g>
		<g>
			<rect x="16.5" y="11.1" class="st147" width="0.6" height="9.8"/>
		</g>
		<g>
			
				<rect x="14.9" y="11.1" transform="matrix(-1 -4.325086e-11 4.325086e-11 -1 30.3498 32)" class="st147" width="0.6" height="9.8"/>
		</g>
	</g>
</g>
</svg>
