<?xml version="1.0" encoding="utf-8"?>
<!-- Generator: Adobe Illustrator 21.1.0, SVG Export Plug-In . SVG Version: 6.00 Build 0)  -->
<svg version="1.1" xmlns="http://www.w3.org/2000/svg" xmlns:xlink="http://www.w3.org/1999/xlink" x="0px" y="0px"
	 viewBox="0 0 32 32" style="enable-background:new 0 0 32 32;" xml:space="preserve">
<style type="text/css">
	.st0{fill:#020100;}
	.st1{fill:#27A3F3;}
	.st2{fill:#0666FF;}
	.st3{fill:#1FC5C9;}
	.st4{fill:#F4BB0B;}
	.st5{fill:#F4D029;}
	.st6{fill:#152743;}
	.st7{fill:#0652D9;}
	.st8{fill:#CC1E46;}
	.st9{fill:#586F81;}
	.st10{fill:#D14071;}
	.st11{fill:#5C6DED;}
	.st12{fill:#602453;}
	.st13{fill:#302C2C;}
	.st14{fill:#8300FF;}
	.st15{fill:#FF9A1F;}
	.st16{fill:#48606E;}
	.st17{fill:#4C1D57;}
	.st18{fill:#002E64;}
	.st19{fill:#504C4C;}
	.st20{fill:#CB0B00;}
	.st21{fill:#007A90;}
	.st22{fill:#00FFBA;}
	.st23{fill:#404040;}
	.st24{fill:#00BFEC;}
	.st25{fill:#2B5EBB;}
	.st26{fill:#0B0E2D;}
	.st27{fill:#1347E8;}
	.st28{fill:#F1385B;}
	.st29{fill:#188C92;}
	.st30{fill:#666666;}
	.st31{fill:#384A77;}
	.st32{fill:#01A6FF;}
	.st33{fill:#136485;}
	.st34{fill:#1BEEF4;}
	.st35{fill:#0038C8;}
	.st36{fill:#05BCA9;}
	.st37{fill:#000D2B;}
	.st38{fill:#1B1F2B;}
	.st39{fill:#FFC04F;}
	.st40{fill:#5DAA79;}
	.st41{fill:#3D3C3A;}
	.st42{fill:#3A4DA5;}
	.st43{fill:#FFCA00;}
	.st44{fill:#205174;}
	.st45{fill:#00C6FF;}
	.st46{fill:#F59100;}
	.st47{fill:#202346;}
	.st48{fill:#101A1F;}
	.st49{fill:#0D4265;}
	.st50{fill:#004ADF;}
	.st51{fill:#0B8BCB;}
	.st52{fill:#A8E0D1;}
	.st53{fill:#00C099;}
	.st54{fill:#0078FF;}
	.st55{fill:#FC3A81;}
	.st56{fill:#0B1529;}
	.st57{fill:#84BD39;}
	.st58{fill:#7F04FF;}
	.st59{fill:#FF637B;}
	.st60{fill:#2F2F2F;}
	.st61{fill:#4C6F8C;}
	.st62{fill:#00A6C4;}
	.st63{fill:#2683FF;}
	.st64{fill:#E53431;}
	.st65{fill:#3AB03E;}
	.st66{fill:#FFD800;}
	.st67{fill:#2CD3E1;}
	.st68{fill:#A44551;}
	.st69{fill:#1E1F25;}
	.st70{fill:#1B75BC;}
	.st71{fill:#2B1544;}
	.st72{fill:#B30D23;}
	.st73{fill:#3C5BE0;}
	.st74{fill:#6916FF;}
	.st75{fill:#6CFCCD;}
	.st76{fill:#383939;}
	.st77{fill:#454545;}
	.st78{fill:#D002B4;}
	.st79{fill:#F89022;}
	.st80{fill:#624DBF;}
	.st81{fill:#322C2C;}
	.st82{fill:#338BE5;}
	.st83{fill:#0FA9C9;}
	.st84{fill:#1061E3;}
	.st85{fill:#348F8D;}
	.st86{fill:#FD875E;}
	.st87{fill:#0B1C26;}
	.st88{fill:#16B9AD;}
	.st89{fill:#080D98;}
	.st90{fill:#B2A3F6;}
	.st91{fill:#399B32;}
	.st92{fill:#BEB5AF;}
	.st93{fill:#00B098;}
	.st94{fill:#00BFFF;}
	.st95{fill:#FFFFFF;}
	.st96{fill:#00FFDB;}
	.st97{fill-rule:evenodd;clip-rule:evenodd;fill:#FFFFFF;}
	.st98{fill:#C4B652;}
	.st99{fill:#00D4AF;}
	.st100{opacity:0.5;fill:#FFFFFF;}
	.st101{opacity:0.698;fill:#FFFFFF;}
	.st102{fill:#98CAD3;}
	.st103{fill:#BFDEE2;}
	.st104{opacity:0.498;fill:#FFFFFF;}
	.st105{fill:#FFFFFF;fill-opacity:0.6;}
	.st106{fill:#FFFFFF;fill-opacity:0.8;}
	.st107{fill:#FFFFFF;fill-opacity:0.4;}
	.st108{fill:#CCCCCC;}
	.st109{fill:#0078EA;}
	.st110{fill:#FEFEFE;}
	.st111{fill:#35322F;}
	.st112{fill:#F57E24;}
	.st113{fill:#D8A87D;}
	.st114{fill:#D7D1C8;}
	.st115{fill:#00DFC7;}
	.st116{fill:#FBD399;}
	.st117{fill:#FDE9CC;}
	.st118{fill:#F7A733;}
	.st119{fill:#F9BD66;}
	.st120{fill:#1E6DD8;}
	.st121{fill:#6BD756;}
	.st122{fill:#99E6D6;}
	.st123{fill:#66D9C2;}
	.st124{fill:#CCF2EB;}
	.st125{fill:#5ECDF7;}
</style>
<g id="bgs">
	<circle id="bg_61_" class="st36" cx="16" cy="16" r="16"/>
</g>
<g id="icons">
	<path class="st97" d="M10.6,23.4l-0.2,1.9l0.9-1.6L10.6,23.4z M21.5,8.6l0.2-1.8l-0.9,1.6L21.5,8.6z M20.8,15.8l0.5-5.9l-0.9-0.9
		l-1.6,2.7l1.4,1c0.1,0.1,0.1,0.1,0.1,0.2c0,0.1-0.1,0.1-0.2,0.1l-1.9,0l1.6,2.7H20.8z M21.7,10.3l-0.5,5.5h3.1l-1.1-4L21.7,10.3z
		 M17.8,18.9l1.6-2.9l-1.7-3c0,0,0,0,0,0l-3.3,0l-1.7,3l1.7,2.9L17.8,18.9C17.8,18.9,17.8,18.9,17.8,18.9z M14.2,12.5l0.6-1.1
		l-1,0.5L14.2,12.5z M20.8,16.2H20l0.7,1.2L20.8,16.2z M18.3,12.6l1.2,0L18.6,12L18.3,12.6z M18.5,11.5l1.6-2.8l-4-1.1l-2.2,0.6
		L18.5,11.5z M18.3,11.8l-4.9-3.5L12,8.7l1.6,2.8l1.6-0.7c0.1,0,0.2,0,0.2,0c0.1,0.1,0.1,0.2,0,0.2l-0.9,1.7l3.2,0L18.3,11.8z
		 M13.3,11.6l-1.6-2.8l-2.8,2.8L8.2,14L13.3,11.6z M13.5,12l-5.4,2.5l-0.3,1.3h3.2l0.2-1.8c0-0.1,0.1-0.2,0.2-0.2
		c0.1,0,0.2,0,0.2,0.1l1,1.7l1.6-2.8L13.5,12z M12,15.8l-0.6-1.1l-0.1,1.1H12z M10.9,16.2H7.7l1.1,4l1.6,1.6L10.9,16.2z M11.3,16.2
		l-0.5,6l0.9,0.9l1.6-2.8l-1.5-1c-0.1-0.1-0.1-0.1-0.1-0.2c0-0.1,0.1-0.1,0.2-0.1l2,0l-1.6-2.7H11.3z M13.9,19.4l-1.3,0l0.9,0.6
		L13.9,19.4z M13.6,20.6L12,23.4l4,1.1l2.1-0.6L13.6,20.6z M13.8,20.3l4.9,3.4l1.3-0.3l-1.6-2.8l-1.5,0.7c0,0-0.1,0-0.1,0
		c-0.1,0-0.1,0-0.2-0.1c-0.1-0.1-0.1-0.2,0-0.2l0.9-1.7l-3.2,0L13.8,20.3z M17.3,20.7l0.9-0.4l-0.3-0.6L17.3,20.7z M18.1,19.3
		l0.5,0.8l5.5-2.6l0.3-1.3h-3.2L21.1,18c0,0.1-0.1,0.2-0.2,0.2c0,0,0,0,0,0c-0.1,0-0.1,0-0.2-0.1l-1-1.7L18.1,19.3z M23.9,12.4
		l0.8,3l0.5-1.7L23.9,12.4z M21.8,9.7l1.3,1.3l-0.4-1.7l-0.8-0.2L21.8,9.7z M21.4,9.4l0-0.3L21,8.9L21.4,9.4z M16.8,7.4l2.8,0.7
		L18.4,7L16.8,7.4z M13.4,7.9l1.8-0.5l-1.7-0.5l-0.6,0.6L13.4,7.9z M12.9,8l-0.3-0.2l-0.3,0.4L12.9,8z M11.7,8.2l0.6-0.6l-1.5-1
		L11.7,8.2z M9.1,10.8L10.9,9L9.5,9.4L9.1,10.8z M7.7,14.2l0.5-2l-1.3,1.3l0.3,0.9L7.7,14.2z M7.6,14.8l-0.3,0.1l0.1,0.5L7.6,14.8z
		 M7.1,15.8l-0.2-0.8l-1.6,0.8H7.1z M8.1,19.7L7.4,17L7,18.5L8.1,19.7z M10.3,22.4L8.9,21l0.4,1.6l0.9,0.2L10.3,22.4z M10.7,22.8
		l0,0.2l0.3,0.1L10.7,22.8z M15.2,24.7l-2.9-0.8l1.2,1.2L15.2,24.7z M18.6,24.2l-1.8,0.5l1.6,0.4l0.6-0.6L18.6,24.2z M19.1,24
		l0.2,0.1l0.2-0.2L19.1,24z M20.2,23.8l-0.6,0.6l1.5,1.1L20.2,23.8z M20.3,23.1l3.1-3.1l0.5-2l-5.2,2.4L20.3,23.1z M23.2,20.9
		l-2.3,2.3l1.8-0.5L23.2,20.9z M24.4,17.8L24,19.5l1.1-1.1l-0.2-0.8L24.4,17.8z M24.6,17.3l0.2-0.1L24.7,17L24.6,17.3z M24.9,16.2
		l0.2,0.8l1.8-0.8H24.9z M27.2,15.8L25.4,14L25,15.8H27.2z M23.8,11.8l1.4,1.4l0.7-2.6L23.8,11.8z M25.7,10.2l-2.6-0.7l0.5,1.9
		L25.7,10.2z M21.9,8.7l0.6,0.2L22,7.1L21.9,8.7z M21.6,6.1l-2.7,0.7l1.4,1.4L21.6,6.1z M16.2,7.1l1.9-0.5l-1.9-1.9V7.1z M15.8,4.7
		l-1.9,1.9l1.9,0.5V4.7z M12.6,7.3l0.5-0.5l-1.9-0.5L12.6,7.3z M10.3,6.4L9.6,8.9l1.8-0.5L10.3,6.4z M8.5,11.4L9,9.5l-2.6,0.7
		L8.5,11.4L8.5,11.4z M6.1,10.6l0.7,2.5l1.3-1.4L6.1,10.6z M6.8,14.7l-0.2-0.8L5,15.5L6.8,14.7z M4.7,16.2l1.9,1.9l0.5-1.9H4.7z
		 M8.2,20.3L6.9,19l-0.7,2.5L8.2,20.3z M6.4,21.9l2.5,0.7l-0.5-1.9L6.4,21.9z M9.5,23.1l0.6,2.1l0.2-1.9L9.5,23.1z M10.6,25.9
		l2.5-0.7l-1.4-1.4L10.6,25.9z M15.8,24.9l-1.9,0.5l1.9,1.9V24.9z M16.2,27.3l1.9-1.9l-1.9-0.5V27.3z M19.4,24.7l-0.5,0.5l2,0.5
		L19.4,24.7z M21.9,25.8l0.7-2.7l-2,0.5L21.9,25.8z M23.7,20.7l-0.5,1.9l2.5-0.7L23.7,20.7z M25.9,21.5l-0.7-2.6l-1.4,1.4l0,0
		L25.9,21.5z M25.4,18.1l1.3-1.3l-1.5,0.7L25.4,18.1z M28,16c0,0.1,0,0.2-0.1,0.2l-0.1,0l-2.3,2.3l0.9,3.3c0,0.1,0,0.2-0.1,0.3
		L23,23l-0.9,3.3c0,0.1-0.1,0.2-0.2,0.2c0,0,0,0-0.1,0l-3.4-0.9l-2.4,2.4c0,0-0.1,0.1-0.1,0.1c-0.1,0-0.1,0-0.1-0.1l-2.4-2.4
		l-3.3,0.9c0,0,0,0-0.1,0c-0.1,0-0.2-0.1-0.2-0.2L9,23l-3.2-0.9c-0.1,0-0.1,0-0.1-0.1c0,0,0-0.1,0-0.2l0.9-3.2l-2.5-2.5
		C4,16.1,4,16.1,4,16s0-0.1,0.1-0.1l2.4-2.4l-0.9-3.2c0-0.1,0-0.1,0-0.2c0,0,0.1-0.1,0.1-0.1L9.1,9L10,5.8c0-0.1,0-0.1,0.1-0.1
		c0,0,0.1,0,0.2,0l3.2,0.9l2.4-2.4C15.9,4,16,4,16.1,4.1l2.4,2.4l3.3-0.9c0.1,0,0.1,0,0.2,0c0,0,0.1,0.1,0.1,0.1l0,0.1c0,0,0,0,0,0
		L23,9l3.4,0.9c0.1,0,0.2,0.1,0.1,0.3l-0.9,3.3l2.3,2.3C27.9,15.8,28,15.9,28,16z"/>
</g>
</svg>
