<?xml version="1.0" encoding="utf-8"?>
<!-- Generator: Adobe Illustrator 21.1.0, SVG Export Plug-In . SVG Version: 6.00 Build 0)  -->
<svg version="1.1" xmlns="http://www.w3.org/2000/svg" xmlns:xlink="http://www.w3.org/1999/xlink" x="0px" y="0px"
	 viewBox="0 0 32 32" style="enable-background:new 0 0 32 32;" xml:space="preserve">
<style type="text/css">
	.st0{fill:#020100;}
	.st1{fill:#27A3F3;}
	.st2{fill:#0666FF;}
	.st3{fill:#1FC5C9;}
	.st4{fill:#F4BB0B;}
	.st5{fill:#F4D029;}
	.st6{fill:#152743;}
	.st7{fill:#0652D9;}
	.st8{fill:#CC1E46;}
	.st9{fill:#586F81;}
	.st10{fill:#D14071;}
	.st11{fill:#5C6DED;}
	.st12{fill:#602453;}
	.st13{fill:#302C2C;}
	.st14{fill:#8300FF;}
	.st15{fill:#FF9A1F;}
	.st16{fill:#48606E;}
	.st17{fill:#4C1D57;}
	.st18{fill:#002E64;}
	.st19{fill:#504C4C;}
	.st20{fill:#CB0B00;}
	.st21{fill:#007A90;}
	.st22{fill:#00FFBA;}
	.st23{fill:#404040;}
	.st24{fill:#00BFEC;}
	.st25{fill:#2B5EBB;}
	.st26{fill:#0B0E2D;}
	.st27{fill:#1347E8;}
	.st28{fill:#F1385B;}
	.st29{fill:#188C92;}
	.st30{fill:#666666;}
	.st31{fill:#384A77;}
	.st32{fill:#01A6FF;}
	.st33{fill:#136485;}
	.st34{fill:#1BEEF4;}
	.st35{fill:#0038C8;}
	.st36{fill:#05BCA9;}
	.st37{fill:#000D2B;}
	.st38{fill:#1B1F2B;}
	.st39{fill:#FFC04F;}
	.st40{fill:#5DAA79;}
	.st41{fill:#3D3C3A;}
	.st42{fill:#3A4DA5;}
	.st43{fill:#FFCA00;}
	.st44{fill:#205174;}
	.st45{fill:#00C6FF;}
	.st46{fill:#F59100;}
	.st47{fill:#202346;}
	.st48{fill:#101A1F;}
	.st49{fill:#0D4265;}
	.st50{fill:#004ADF;}
	.st51{fill:#0B8BCB;}
	.st52{fill:#A8E0D1;}
	.st53{fill:#00C099;}
	.st54{fill:#0078FF;}
	.st55{fill:#FC3A81;}
	.st56{fill:#0B1529;}
	.st57{fill:#84BD39;}
	.st58{fill:#7F04FF;}
	.st59{fill:#FF637B;}
	.st60{fill:#2F2F2F;}
	.st61{fill:#4C6F8C;}
	.st62{fill:#00A6C4;}
	.st63{fill:#2683FF;}
	.st64{fill:#E53431;}
	.st65{fill:#3AB03E;}
	.st66{fill:#FFD800;}
	.st67{fill:#2CD3E1;}
	.st68{fill:#A44551;}
	.st69{fill:#1E1F25;}
	.st70{fill:#1B75BC;}
	.st71{fill:#2B1544;}
	.st72{fill:#B30D23;}
	.st73{fill:#3C5BE0;}
	.st74{fill:#6916FF;}
	.st75{fill:#6CFCCD;}
	.st76{fill:#383939;}
	.st77{fill:#454545;}
	.st78{fill:#D002B4;}
	.st79{fill:#F89022;}
	.st80{fill:#624DBF;}
	.st81{fill:#322C2C;}
	.st82{fill:#338BE5;}
	.st83{fill:#0FA9C9;}
	.st84{fill:#1061E3;}
	.st85{fill:#348F8D;}
	.st86{fill:#FD875E;}
	.st87{fill:#0B1C26;}
	.st88{fill:#16B9AD;}
	.st89{fill:#080D98;}
	.st90{fill:#B2A3F6;}
	.st91{fill:#399B32;}
	.st92{fill:#BEB5AF;}
	.st93{fill:#00B098;}
	.st94{fill:#00BFFF;}
	.st95{fill:#FFFFFF;}
	.st96{fill:#00FFDB;}
	.st97{fill-rule:evenodd;clip-rule:evenodd;fill:#FFFFFF;}
	.st98{fill:#C4B652;}
	.st99{fill:#00D4AF;}
	.st100{opacity:0.5;fill:#FFFFFF;}
	.st101{opacity:0.698;fill:#FFFFFF;}
	.st102{fill:#98CAD3;}
	.st103{fill:#BFDEE2;}
	.st104{opacity:0.498;fill:#FFFFFF;}
	.st105{fill:#FFFFFF;fill-opacity:0.6;}
	.st106{fill:#FFFFFF;fill-opacity:0.8;}
	.st107{fill:#FFFFFF;fill-opacity:0.4;}
	.st108{fill:#CCCCCC;}
	.st109{fill:#0078EA;}
	.st110{fill:#FEFEFE;}
	.st111{fill:#35322F;}
	.st112{fill:#F57E24;}
	.st113{fill:#D8A87D;}
	.st114{fill:#D7D1C8;}
	.st115{fill:#00DFC7;}
	.st116{fill:#FBD399;}
	.st117{fill:#FDE9CC;}
	.st118{fill:#F7A733;}
	.st119{fill:#F9BD66;}
	.st120{fill:#1E6DD8;}
	.st121{fill:#6BD756;}
	.st122{fill:#99E6D6;}
	.st123{fill:#66D9C2;}
	.st124{fill:#CCF2EB;}
	.st125{fill:#5ECDF7;}
</style>
<g id="bgs">
	<path class="st87" d="M32,16c0,4.4-1.6,8.2-4.7,11.3S20.4,32,16,32c-4.4,0-8.2-1.6-11.3-4.7S0,20.4,0,16S1.6,7.8,4.7,4.7
		S11.6,0,16,0s8.2,1.6,11.3,4.7S32,11.6,32,16z"/>
</g>
<g id="icons">
	<path class="st95" d="M24.2,21.5c-0.4,0.4-0.9,0.6-1.5,0.6c-0.2,0-0.4,0-0.6-0.1c0.3,0.2,0.5,0.5,0.5,0.9c0,0.3-0.1,0.5-0.2,0.7
		C23.1,23,23.7,22.3,24.2,21.5z M22,22.9c0-0.3-0.2-0.5-0.5-0.5S21,22.7,21,22.9s0.2,0.5,0.5,0.5C21.8,23.5,22,23.2,22,22.9L22,22.9
		z M22,23.9c-0.3,0.2-0.7,0.1-1-0.1s-0.5-0.5-0.5-0.9c0,0,0-0.1,0-0.1c-0.5,1.4-1.6,2.5-3.1,3C19.1,25.6,20.6,24.9,22,23.9L22,23.9z
		 M19.8,21.4c0-2.1-1.7-3.8-3.8-3.8c-2.1,0-3.8,1.7-3.8,3.8s1.7,3.8,3.8,3.8C18.1,25.2,19.8,23.5,19.8,21.4z M14.7,25.8
		c-1.4-0.4-2.6-1.5-3.1-3c0,0,0,0.1,0,0.1c0,0.4-0.2,0.7-0.5,0.9s-0.7,0.2-1,0.1C11.4,24.9,12.9,25.6,14.7,25.8z M10,22.9
		c0,0.3,0.2,0.5,0.5,0.5s0.5-0.2,0.5-0.5s-0.2-0.5-0.5-0.5C10.2,22.4,10,22.7,10,22.9L10,22.9z M9.9,22.1c-0.2,0.1-0.4,0.1-0.6,0.1
		c-0.6,0-1.1-0.2-1.5-0.6c0.5,0.8,1.2,1.5,1.9,2.1c-0.2-0.2-0.2-0.4-0.2-0.7C9.4,22.6,9.6,22.3,9.9,22.1L9.9,22.1z M7.1,19.9
		c0-0.6,0.2-1.1,0.6-1.6c-0.1,0.1-0.3,0.1-0.4,0.1c-0.5,0-0.9-0.3-1-0.7c0.2,0.9,0.5,1.8,0.9,2.6C7.1,20.2,7.1,20.1,7.1,19.9
		L7.1,19.9z M7.3,16.8c-0.3,0-0.6,0.2-0.6,0.6s0.2,0.6,0.6,0.6s0.6-0.2,0.6-0.6C7.8,17,7.6,16.8,7.3,16.8z M6.2,17.2
		c0-0.6,0.5-1,1.1-1c0.2,0,0.4,0.1,0.6,0.2c-0.7-0.8-1.1-1.9-1.1-3c0-0.5,0.1-1.1,0.3-1.6c-0.6,1.3-0.9,2.7-0.9,4.2
		C6.1,16.4,6.1,16.8,6.2,17.2z M10.3,21.9c0.1,0,0.1,0,0.2,0c0.4,0,0.8,0.2,1,0.6c-0.1-0.4-0.1-0.7-0.1-1.1c0-0.2,0-0.4,0-0.6
		C11.2,21.2,10.8,21.6,10.3,21.9L10.3,21.9z M7.9,19.9c0,0.8,0.6,1.4,1.4,1.4c0.8,0,1.4-0.6,1.4-1.4c0-0.8-0.6-1.4-1.4-1.4
		C8.5,18.5,7.9,19.1,7.9,19.9L7.9,19.9z M8.4,17.3c0,0.2-0.1,0.5-0.2,0.6c0.3-0.2,0.7-0.3,1.1-0.3c0.1,0,0.2,0,0.3,0
		c-0.5-0.2-1-0.5-1.4-0.9C8.3,16.9,8.4,17.1,8.4,17.3L8.4,17.3z M11.6,19.9C11.6,19.9,11.6,19.9,11.6,19.9c0.3-0.8,0.8-1.6,1.6-2.2
		c-0.9,0.4-1.9,0.4-2.8,0.2C11.1,18.3,11.6,19,11.6,19.9L11.6,19.9z M7.6,13.4c0,2.1,1.7,3.8,3.8,3.8c2.1,0,3.8-1.7,3.8-3.8
		c0-2.1-1.7-3.8-3.8-3.8C9.3,9.6,7.6,11.3,7.6,13.4L7.6,13.4z M7.9,10.4c0.9-1,2.1-1.6,3.6-1.6c0.3,0,0.6,0,0.8,0.1
		c-0.4-0.2-0.6-0.5-0.7-0.9c-0.1-0.4,0.1-0.8,0.4-1C10.3,7.7,8.9,8.9,7.9,10.4z M12.1,7.8c0,0.3,0.2,0.6,0.6,0.6s0.6-0.2,0.6-0.6
		c0-0.3-0.2-0.6-0.6-0.6C12.4,7.2,12.2,7.5,12.1,7.8z M13.7,8.3C13.7,8.3,13.7,8.2,13.7,8.3c-0.2,0.3-0.6,0.6-1,0.6c0,0,0,0-0.1,0
		c0.6,0.2,1.1,0.4,1.6,0.8C13.9,9.3,13.7,8.8,13.7,8.3L13.7,8.3z M12.6,6.7c0,0,0.1,0,0.1,0c0.6,0,1.1,0.4,1.1,1
		C14,7,14.6,6.4,15.3,6.1C14.4,6.2,13.4,6.4,12.6,6.7L12.6,6.7z M14.6,8.3c0,0.8,0.6,1.4,1.4,1.4c0.8,0,1.4-0.6,1.4-1.4
		S16.8,6.8,16,6.8S14.6,7.5,14.6,8.3z M16.7,6.1C17.4,6.4,18,7,18.2,7.7c0-0.6,0.5-1,1.1-1c0,0,0.1,0,0.1,0
		C18.6,6.4,17.6,6.2,16.7,6.1L16.7,6.1z M19.3,7.2c-0.3,0-0.6,0.2-0.6,0.6c0,0.3,0.2,0.6,0.6,0.6s0.6-0.2,0.6-0.6
		C19.8,7.5,19.6,7.2,19.3,7.2L19.3,7.2z M20,6.9c0.2,0.2,0.4,0.5,0.4,0.9c0,0.4-0.3,0.8-0.7,1c0.3-0.1,0.6-0.1,0.8-0.1
		c1.4,0,2.7,0.6,3.6,1.6C23.1,8.9,21.7,7.7,20,6.9L20,6.9z M18.3,8.3c0,0.5-0.2,1-0.5,1.4c0.5-0.4,1-0.6,1.6-0.8c0,0,0,0-0.1,0
		C18.8,8.9,18.4,8.6,18.3,8.3C18.3,8.2,18.3,8.3,18.3,8.3L18.3,8.3z M16,10.5c-0.4,0-0.8-0.1-1.2-0.3c0.6,0.7,1,1.5,1.2,2.4
		c0.2-0.9,0.6-1.7,1.2-2.4C16.8,10.4,16.4,10.5,16,10.5L16,10.5z M16,16.7c0.6,0,1.2,0.1,1.7,0.3c-0.9-0.7-1.6-1.8-1.7-2.9
		c-0.2,1.2-0.8,2.2-1.7,2.9C14.8,16.8,15.4,16.7,16,16.7L16,16.7z M23.6,17.3c0-0.2,0-0.4,0.1-0.5c-0.4,0.4-0.9,0.7-1.4,0.9
		c0.1,0,0.2,0,0.3,0c0.4,0,0.8,0.1,1.1,0.3C23.7,17.8,23.6,17.5,23.6,17.3L23.6,17.3z M22.7,21.3c0.8,0,1.4-0.6,1.4-1.4
		c0-0.8-0.6-1.4-1.4-1.4s-1.4,0.6-1.4,1.4C21.3,20.7,21.9,21.3,22.7,21.3L22.7,21.3z M20.7,21.4c0,0.4,0,0.7-0.1,1.1
		c0.2-0.4,0.6-0.6,1-0.6c0.1,0,0.1,0,0.2,0c-0.5-0.2-0.8-0.6-1-1.1C20.6,21,20.7,21.2,20.7,21.4L20.7,21.4z M20.4,19.9
		c0-0.8,0.5-1.6,1.2-2c-0.9,0.2-1.9,0.1-2.8-0.2C19.6,18.3,20.2,19.1,20.4,19.9C20.4,19.9,20.4,19.9,20.4,19.9z M24.4,13.4
		c0-2.1-1.7-3.8-3.8-3.8c-2.1,0-3.8,1.7-3.8,3.8c0,2.1,1.7,3.8,3.8,3.8C22.7,17.2,24.4,15.5,24.4,13.4z M25,11.8
		c0.2,0.5,0.3,1,0.3,1.6c0,1.1-0.4,2.2-1.1,3c0.2-0.1,0.4-0.2,0.6-0.2c0.6,0,1.1,0.4,1.1,1c0-0.4,0.1-0.8,0.1-1.2
		C25.9,14.6,25.6,13.1,25,11.8L25,11.8z M24.7,17.9c0.3,0,0.6-0.2,0.6-0.6s-0.2-0.6-0.6-0.6s-0.6,0.2-0.6,0.6
		C24.2,17.6,24.4,17.9,24.7,17.9L24.7,17.9z M25.8,17.8c-0.2,0.4-0.6,0.7-1,0.7c-0.1,0-0.3,0-0.4-0.1c0.4,0.4,0.6,1,0.6,1.6
		c0,0.2,0,0.3-0.1,0.5C25.3,19.6,25.6,18.7,25.8,17.8L25.8,17.8z M16,27C9.9,27,5,22.1,5,16S9.9,5,16,5c6.1,0,11,4.9,11,11
		S22.1,27,16,27z"/>
</g>
</svg>
