<?xml version="1.0" encoding="utf-8"?>
<!-- Generator: Adobe Illustrator 21.1.0, SVG Export Plug-In . SVG Version: 6.00 Build 0)  -->
<svg version="1.1" xmlns="http://www.w3.org/2000/svg" xmlns:xlink="http://www.w3.org/1999/xlink" x="0px" y="0px"
	 viewBox="0 0 32 32" style="enable-background:new 0 0 32 32;" xml:space="preserve">
<style type="text/css">
	.st0{fill:#464645;}
	.st1{fill:#0000FF;}
	.st2{fill:#FF0000;}
	.st3{fill:#E9570F;}
	.st4{fill:#BAB9FF;}
	.st5{fill:#1C1C1C;}
	.st6{fill:#2F50B0;}
	.st7{fill:#CAAB60;}
	.st8{fill:#4096D0;}
	.st9{fill:#21C8B4;}
	.st10{fill:#002342;}
	.st11{fill:#005281;}
	.st12{fill:#F80000;}
	.st13{fill:#F55749;}
	.st14{fill:#272731;}
	.st15{fill:#FF4081;}
	.st16{fill:#FEBF51;}
	.st17{fill:#673300;}
	.st18{fill:#00A5E7;}
	.st19{fill:#4240A1;}
	.st20{fill:#185095;}
	.st21{fill:#BDDBEE;}
	.st22{fill:#044AAC;}
	.st23{fill:#346FCE;}
	.st24{fill:#24DD7B;}
	.st25{fill:#521C72;}
	.st26{fill:#DE1A80;}
	.st27{fill:#657BED;}
	.st28{fill:#2F3F54;}
	.st29{fill:#0097E8;}
	.st30{fill:#6382C2;}
	.st31{fill:#FF183D;}
	.st32{fill:#0F63D8;}
	.st33{fill:#253238;}
	.st34{fill:#0093A9;}
	.st35{fill:#008CBE;}
	.st36{fill:#2D9CDB;}
	.st37{fill:#E3A719;}
	.st38{fill:#5DC6BA;}
	.st39{fill:#333333;}
	.st40{fill:#363635;}
	.st41{fill:#D6395F;}
	.st42{fill:#F99600;}
	.st43{fill:#4D4D4F;}
	.st44{fill:#1272BE;}
	.st45{fill:#00CF54;}
	.st46{fill:#0092B5;}
	.st47{fill:#EA5C4F;}
	.st48{fill:#104FCA;}
	.st49{fill:#7B346E;}
	.st50{fill:none;stroke:#000000;stroke-width:0.1;stroke-miterlimit:10;}
	.st51{fill:#37DCD8;}
	.st52{fill:#C80000;}
	.st53{fill:#066EBE;}
	.st54{fill:#27BAE0;}
	.st55{fill:#CB8F00;}
	.st56{fill:#6AB87F;}
	.st57{fill:#B26FFF;}
	.st58{fill:#F4AE95;}
	.st59{fill:#F24748;}
	.st60{fill:#0351BE;}
	.st61{fill:#798E97;}
	.st62{fill:#E73730;}
	.st63{fill:#164B79;}
	.st64{fill:#0096D8;}
	.st65{fill:#47B4DD;}
	.st66{fill:#273D4B;}
	.st67{fill:#3E3A39;}
	.st68{fill:#39C0B5;}
	.st69{fill:#17284C;}
	.st70{fill:#3B9ACC;}
	.st71{fill:#151A2F;}
	.st72{fill:#344269;}
	.st73{fill:#21CBFF;}
	.st74{fill:#2D2D2D;}
	.st75{fill:#00233D;}
	.st76{fill:#0062BF;}
	.st77{fill:#F9B23E;}
	.st78{fill:#DE5C6E;}
	.st79{fill:#F88900;}
	.st80{fill:#EC555E;}
	.st81{fill:#B8D75C;}
	.st82{fill:#D5E400;}
	.st83{fill:#00969C;}
	.st84{fill:#BE1004;}
	.st85{fill:#00C6DD;}
	.st86{fill:#151037;}
	.st87{fill:#0078C6;}
	.st88{fill:#F0DA67;}
	.st89{fill:#EC5005;}
	.st90{fill:#686DB2;}
	.st91{fill:#EABE51;}
	.st92{fill:#333245;}
	.st93{fill:#2C398F;}
	.st94{fill:#FFFFFF;}
	.st95{fill:#1267FF;}
	.st96{fill:#00A7E9;}
	.st97{fill:#F00000;}
	.st98{fill-rule:evenodd;clip-rule:evenodd;fill:#FFFFFF;}
	.st99{opacity:0.498;fill:#FFFFFF;}
	.st100{opacity:0.6;fill:#FFFFFF;}
	.st101{opacity:0.8;fill:#FFFFFF;}
	.st102{fill:#FAFBF8;}
	.st103{fill:#925518;}
	.st104{opacity:0.5;fill:#FFFFFF;}
	.st105{fill:#D3BBA3;}
	.st106{fill:#62D0DD;}
	.st107{fill:#468CC4;}
	.st108{fill:#23A8DB;}
	.st109{fill:#5DD2EF;}
	.st110{fill:#DEE0E4;}
	.st111{opacity:0.3;fill:#FFFFFF;}
	.st112{fill:#FBB03B;}
	.st113{fill:#CD9A24;}
	.st114{fill:#FBCA3B;}
	.st115{fill:#C59B4D;}
	.st116{fill:#71AAD8;}
	.st117{fill:#418ECB;}
	.st118{fill:#D0E3F2;}
	.st119{fill:#E0BC66;}
	.st120{fill:#EAD299;}
	.st121{fill:#F5E9CC;}
	.st122{fill:#DDE8F6;}
	.st123{fill:#BCD1EE;}
	.st124{fill:#9ABAE5;}
	.st125{fill:#78A2DC;}
	.st126{fill:#578BD4;}
	.st127{fill:#3574CB;}
	.st128{fill:#00FFFF;}
	.st129{fill:#FAD7D6;}
	.st130{fill:#F18783;}
	.st131{fill:#F5AFAC;}
	.st132{fill:#CCEAF7;}
	.st133{fill:#66C0E8;}
	.st134{fill:#99D5EF;}
	.st135{fill:#54C719;}
	.st136{fill:#FDE0B2;}
	.st137{fill:#FBD18B;}
	.st138{fill:#FEF0D8;}
	.st139{fill:#A0B3BE;}
	.st140{fill:#3B474D;}
	.st141{fill:#E2A560;}
	.st142{fill:#E9BA5D;}
	.st143{fill:#010100;}
	.st144{fill:#C3C5E0;}
	.st145{fill:#F2D897;}
	.st146{fill:#FBF2DC;}
	.st147{fill:#FCC900;}
</style>
<g id="bgs">
	<path class="st41" d="M32,16c0,4.4-1.6,8.2-4.7,11.3S20.4,32,16,32c-4.4,0-8.2-1.6-11.3-4.7S0,20.4,0,16S1.6,7.8,4.7,4.7
		S11.6,0,16,0s8.2,1.6,11.3,4.7S32,11.6,32,16z"/>
</g>
<g id="icons">
	<g>
		<path class="st94" d="M15.4,26.8c-0.9,0-1.8-0.2-2.6-0.7l-3.6-2c-1.3-0.7-2.2-1.9-2.6-3.3l-1.1-4c-0.4-1.4-0.2-2.9,0.5-4.1l2-3.6
			c0.7-1.3,1.9-2.2,3.2-2.6l4-1.1C16.6,5,18,5.2,19.3,5.9l3.6,2c1.2,0.7,2.2,1.9,2.6,3.3l1.1,4c0.4,1.4,0.2,2.8-0.5,4.1l-2,3.6
			c-0.7,1.3-1.9,2.2-3.2,2.6l-4,1.1C16.4,26.7,15.9,26.8,15.4,26.8z M8.2,9.2l-2,3.6c-0.7,1.2-0.8,2.6-0.5,3.9l1.1,4
			c0.4,1.3,1.2,2.4,2.4,3.1l3.6,2c1.2,0.7,2.6,0.8,3.9,0.5l4-1.1c1.3-0.4,2.4-1.2,3.1-2.4l2-3.6c0.7-1.2,0.8-2.6,0.5-3.9l-1.1-4
			c-0.4-1.3-1.2-2.4-2.4-3.1l-3.6-2c-1.2-0.7-2.6-0.8-3.9-0.5l-4,1.1C10,7.2,8.9,8,8.2,9.2L8.2,9.2z"/>
	</g>
	<g>
		<path class="st94" d="M14.5,27.1c-1.3,0-2.5-0.4-3.5-1.2l-3.4-2.7c-1.2-0.9-1.9-2.3-2.1-3.8L5,15.1c-0.2-1.5,0.2-3,1.2-4.2
			l2.7-3.4c0.9-1.2,2.3-1.9,3.8-2.1l4.3-0.5c1.5-0.2,3,0.2,4.2,1.2l3.4,2.7c1.2,0.9,1.9,2.3,2.1,3.8l0.5,4.3c0.2,1.5-0.2,3-1.2,4.2
			l-2.7,3.4c-0.9,1.2-2.3,1.9-3.8,2.1L15.2,27C15,27.1,14.7,27.1,14.5,27.1z M9,7.7l-2.7,3.4c-0.9,1.1-1.3,2.5-1.1,3.9l0.5,4.3
			c0.2,1.4,0.9,2.7,2,3.6l3.4,2.7c1.1,0.9,2.5,1.3,3.9,1.1l4.3-0.5c1.4-0.2,2.7-0.9,3.6-2l2.7-3.4c0.9-1.1,1.3-2.5,1.1-3.9l-0.5-4.3
			c-0.2-1.4-0.9-2.7-2-3.6l-3.4-2.7c-1.1-0.9-2.5-1.3-3.9-1.1l-4.3,0.5C11.2,5.9,9.9,6.6,9,7.7L9,7.7z"/>
	</g>
	<g>
		<path class="st94" d="M18.1,27.4c-0.1,0-0.1,0-0.2,0l-4.5-0.1c-1.6,0-3.1-0.7-4.1-1.9l-3.1-3.3c-1.1-1.1-1.6-2.6-1.6-4.2l0.1-4.5
			c0-1.6,0.7-3,1.9-4.1l3.3-3.1c1.1-1.1,2.6-1.6,4.2-1.6l4.5,0.1c1.6,0,3,0.7,4.1,1.9l3.1,3.3c1.1,1.1,1.6,2.6,1.6,4.2l-0.1,4.5
			c0,1.6-0.7,3-1.9,4.1l-3.3,3.1C21.1,26.8,19.6,27.4,18.1,27.4z M10.1,6.3L6.8,9.5c-1.1,1-1.7,2.4-1.8,3.9l-0.1,4.5
			c0,1.5,0.5,2.9,1.5,4l3.1,3.3c1,1.1,2.4,1.7,3.9,1.8l4.5,0.1c1.5,0,2.9-0.5,4-1.5l3.3-3.1c1.1-1,1.7-2.4,1.8-3.9l0.1-4.5
			c0-1.5-0.5-2.9-1.5-4l-3.1-3.3c-1-1.1-2.4-1.7-3.9-1.8l-4.5-0.1c-0.1,0-0.1,0-0.2,0C12.5,4.8,11.1,5.4,10.1,6.3L10.1,6.3z"/>
	</g>
	<g>
		<path class="st94" d="M17.3,28.2c-0.4,0-0.8,0-1.1-0.1l-4.7-0.9c-1.6-0.3-3-1.2-4-2.6l-2.7-3.9c-0.9-1.4-1.3-3-1-4.6l0.9-4.7
			c0.3-1.6,1.2-3,2.6-4l3.9-2.7c1.4-0.9,3-1.3,4.6-1l4.7,0.9c1.6,0.3,3,1.2,4,2.6l2.7,3.9c0.9,1.4,1.3,3,1,4.6l-0.9,4.7
			c-0.3,1.6-1.2,3-2.6,4l-3.9,2.7C19.8,27.8,18.6,28.2,17.3,28.2z M14.7,4c-1.2,0-2.3,0.4-3.3,1L7.5,7.8C6.2,8.7,5.3,10,5.1,11.5
			l-0.9,4.7c-0.3,1.5,0,3.1,0.9,4.4l2.7,3.9c0.9,1.3,2.2,2.2,3.8,2.4l4.7,0.9c1.5,0.3,3.1,0,4.4-0.9l3.9-2.7
			c1.3-0.9,2.2-2.2,2.4-3.8l0.9-4.7c0.3-1.5,0-3.1-0.9-4.4l-2.7-3.9C23.3,6.2,22,5.3,20.5,5l-4.7-0.9C15.4,4.1,15.1,4,14.7,4z"/>
	</g>
	<g>
		<rect x="15.2" y="11.3" class="st94" width="0.9" height="10.2"/>
		<rect x="18.4" y="10.7" class="st94" width="0.9" height="10.8"/>
		<polygon class="st94" points="20.1,15.7 19.2,15.7 20.6,10.7 21.5,10.7 		"/>
		<polygon class="st94" points="20.1,15.7 19.2,15.7 20.8,21.5 21.7,21.5 		"/>
		<polygon class="st94" points="13.9,11.5 13.9,10.7 17.8,10.7 17.2,11.5 		"/>
		<path class="st94" d="M12.6,13.2V12c0-0.4-0.3-0.6-0.6-0.6c-0.3,0-0.6,0.3-0.6,0.6v1.3c0,0.2,0.1,0.5,0.2,0.7l1.1,1.9l0.6,1
			c0.2,0.3,0.3,0.7,0.3,1.1v2.2c0,0.8-0.6,1.3-1.3,1.3h-0.4c-0.8,0-1.3-0.6-1.3-1.3v-1l0.9-0.7V20c0,0.3,0.3,0.6,0.6,0.6
			c0.4,0,0.6-0.3,0.6-0.6v-2c0-0.2-0.1-0.5-0.2-0.7l-1.1-1.9l-0.6-1c-0.2-0.3-0.3-0.7-0.3-1.1v-1.5c0-0.7,0.6-1.3,1.3-1.3h0.5
			c0.7,0,1.3,0.6,1.3,1.3v0.7L12.6,13.2z"/>
	</g>
</g>
</svg>
