<?xml version="1.0" encoding="UTF-8" standalone="no"?>
<svg width="178px" height="99px" viewBox="0 0 178 99" version="1.1" xmlns="http://www.w3.org/2000/svg" xmlns:xlink="http://www.w3.org/1999/xlink">
    <!-- Generator: Sketch 43.1 (39012) - http://www.bohemiancoding.com/sketch -->
    <title>coreRz-isologo--N</title>
    <desc>Created with Sketch.</desc>
    <defs>
        <radialGradient cx="44.06%" cy="31.3895238%" fx="44.06%" fy="31.3895238%" r="67.834127%" id="radialGradient-1">
            <stop stop-color="#D6E6F1" offset="0%"></stop>
            <stop stop-color="#FFFFFF" offset="1.43%"></stop>
            <stop stop-color="#5AADED" offset="52.51%"></stop>
            <stop stop-color="#0063A5" offset="100%"></stop>
        </radialGradient>
    </defs>
    <g id="Symbols" stroke="none" stroke-width="1" fill="none" fill-rule="evenodd">
        <g id="coreRz-isologo--N">
            <g id="Group-3" transform="translate(0.000000, 65.000000)" fill-rule="nonzero" fill="#5AADED">
                <path d="M76.16,4.25 C74.44,4.25 73.04,5.65 73.04,7.36 C73.04,9.07 74.44,10.48 76.16,10.48 C77.88,10.48 79.28,9.08 79.28,7.36 C79.28,5.64 77.88,4.25 76.16,4.25 Z" id="Shape"></path>
                <circle id="Oval" cx="84.98" cy="7.36" r="3.11"></circle>
                <path d="M10.64,12.53 C8.77,12.53 7.03,13.07 5.55,14 L5.55,2.68 C5.55,1.42 4.53,0.39 3.26,0.39 C2,0.39 0.97,1.41 0.97,2.68 L0.97,31.33 C0.97,32.59 1.99,33.62 3.26,33.62 C4.52,33.62 5.55,32.6 5.55,31.33 L5.55,22.2 C5.55,19.39 7.84,17.11 10.64,17.11 C13.45,17.11 15.73,19.4 15.73,22.2 L15.73,31.33 C15.73,32.59 16.75,33.62 18.02,33.62 C19.28,33.62 20.31,32.6 20.31,31.33 L20.31,22.2 C20.3,16.86 15.97,12.53 10.64,12.53 Z" id="Shape"></path>
                <path d="M41.62,12.77 C40.36,12.77 39.33,13.79 39.33,15.06 L39.33,24.19 C39.33,27 37.05,29.28 34.24,29.28 C31.43,29.28 29.15,27 29.15,24.19 L29.15,15.06 C29.15,13.8 28.13,12.77 26.86,12.77 C25.6,12.77 24.57,13.79 24.57,15.06 L24.57,24.19 C24.57,29.52 28.91,33.86 34.23,33.86 C39.56,33.86 43.9,29.53 43.9,24.19 L43.9,15.06 C43.9,13.79 42.88,12.77 41.62,12.77 Z" id="Shape"></path>
                <path d="M76.16,12.77 C74.9,12.77 73.87,13.79 73.87,15.06 L73.87,31.33 C73.87,32.59 74.9,33.62 76.16,33.62 C77.42,33.62 78.45,32.6 78.45,31.33 L78.45,15.06 C78.45,13.79 77.42,12.77 76.16,12.77 Z" id="Shape"></path>
                <path d="M84.98,12.77 C83.72,12.77 82.69,13.79 82.69,15.06 L82.69,31.33 C82.69,32.59 83.71,33.62 84.98,33.62 C86.24,33.62 87.27,32.6 87.27,31.33 L87.27,15.06 C87.26,13.79 86.24,12.77 84.98,12.77 Z" id="Shape"></path>
                <path d="M58.97,12.59 C56.72,12.59 54.63,13.3 52.91,14.5 L52.91,2.45 C52.91,1.19 51.89,0.16 50.62,0.16 C49.36,0.16 48.33,1.18 48.33,2.45 L48.33,22.93 C48.33,22.96 48.34,23 48.34,23.03 C48.34,23.1 48.33,23.16 48.33,23.23 C48.33,29.09 53.1,33.86 58.96,33.86 C64.82,33.86 69.6,29.09 69.6,23.22 C69.6,17.36 64.83,12.59 58.97,12.59 Z M58.97,29.28 C55.63,29.28 52.91,26.56 52.91,23.22 C52.91,19.88 55.63,17.16 58.97,17.16 C62.31,17.16 65.03,19.88 65.03,23.22 C65.03,26.56 62.31,29.28 58.97,29.28 Z" id="Shape"></path>
            </g>
            <g id="Group-2" transform="translate(102.000000, 77.000000)" fill-rule="nonzero" fill="#FFFFFF">
                <path d="M9.41,21.71 C6.34,21.71 4,20.81 2.4,19.02 C0.8,17.23 0,14.65 0,11.29 C0,7.87 0.84,5.24 2.51,3.41 C4.18,1.57 6.6,0.65 9.76,0.65 C11.9,0.65 13.83,1.05 15.55,1.84 L14.25,5.31 C12.42,4.6 10.92,4.24 9.73,4.24 C6.21,4.24 4.46,6.57 4.46,11.24 C4.46,13.52 4.9,15.23 5.77,16.38 C6.65,17.53 7.93,18.1 9.62,18.1 C11.54,18.1 13.36,17.62 15.08,16.67 L15.08,20.44 C14.31,20.89 13.48,21.22 12.61,21.41 C11.72,21.62 10.66,21.71 9.41,21.71 Z" id="Shape"></path>
                <path d="M37.87,11.15 C37.87,14.47 37.02,17.06 35.32,18.92 C33.62,20.78 31.25,21.71 28.21,21.71 C26.31,21.71 24.63,21.28 23.17,20.42 C21.71,19.56 20.59,18.33 19.81,16.73 C19.02,15.13 18.63,13.26 18.63,11.14 C18.63,7.85 19.47,5.27 21.17,3.42 C22.86,1.57 25.24,0.65 28.32,0.65 C31.26,0.65 33.59,1.6 35.3,3.49 C37.01,5.38 37.87,7.94 37.87,11.15 Z M23.08,11.15 C23.08,15.84 24.81,18.19 28.28,18.19 C31.71,18.19 33.42,15.84 33.42,11.15 C33.42,6.51 31.69,4.19 28.24,4.19 C26.43,4.19 25.11,4.79 24.3,5.99 C23.49,7.18 23.08,8.91 23.08,11.15 Z" id="Shape"></path>
                <path d="M53.14,0.65 C54.01,0.65 54.73,0.71 55.29,0.83 L54.87,4.85 C54.26,4.7 53.62,4.63 52.96,4.63 C51.23,4.63 49.83,5.19 48.76,6.32 C47.69,7.45 47.15,8.91 47.15,10.71 L47.15,21.33 L42.83,21.33 L42.83,1.02 L46.21,1.02 L46.78,4.6 L47,4.6 C47.67,3.39 48.55,2.43 49.64,1.71 C50.73,1.01 51.89,0.65 53.14,0.65 Z" id="Shape"></path>
                <path d="M67.93,21.71 C64.77,21.71 62.3,20.79 60.51,18.94 C58.73,17.1 57.84,14.56 57.84,11.32 C57.84,8 58.67,5.39 60.32,3.49 C61.97,1.59 64.25,0.64 67.14,0.64 C69.82,0.64 71.94,1.45 73.5,3.08 C75.05,4.71 75.83,6.95 75.83,9.81 L75.83,12.14 L62.29,12.14 C62.35,14.11 62.89,15.63 63.89,16.69 C64.89,17.75 66.31,18.28 68.13,18.28 C69.33,18.28 70.45,18.17 71.48,17.94 C72.52,17.71 73.63,17.34 74.82,16.81 L74.82,20.32 C73.77,20.82 72.7,21.18 71.62,21.39 C70.55,21.61 69.32,21.71 67.93,21.71 Z M67.14,3.92 C65.77,3.92 64.67,4.36 63.84,5.22 C63.01,6.09 62.52,7.36 62.36,9.02 L71.58,9.02 C71.55,7.34 71.15,6.07 70.37,5.21 C69.59,4.35 68.52,3.92 67.14,3.92 Z" id="Shape"></path>
            </g>
            <g id="CoreRZ_logo" transform="translate(61.000000, 0.000000)">
                <g id="CoreRZ_64x64">
                    <circle id="Oval" fill="url(#radialGradient-1)" fill-rule="nonzero" cx="28" cy="28" r="27.5625"></circle>
                    <path d="M26.50375,37.45 C24.26375,37.40625 22.0325,37.24875 19.97625,36.995 C19.97625,23.38875 21.77875,12.99375 28.00875,5.2325 C34.2475,6.01125 40.0925,9.16125 44.47625,14.09625 C48.85125,19.03125 51.26625,25.17375 51.2925,31.40375 C48.44,34.36125 41.37875,36.6275 32.83875,37.26625 C30.7475,37.4325 28.6125,37.49375 26.50375,37.45 Z" id="Shape" fill="#FFFFFF" fill-rule="nonzero"></path>
                    <path d="M27.6325,34.02875 C26.1275,34.0025 24.28125,33.94125 22.9075,33.775 C22.9075,24.94625 25.06875,15.3475 28.0175,12.11 C32.2,12.64375 36.75875,14.595 39.69875,17.98125 C42.63,21.3675 44.135,26.0225 44.14375,30.31 C42.2275,32.34 37.6075,33.46875 31.89375,33.915 C30.47625,34.01125 29.05,34.04625 27.6325,34.02875 Z" id="Shape" fill="#0063A5" fill-rule="nonzero"></path>
                </g>
            </g>
        </g>
    </g>
</svg>