<?xml version="1.0" encoding="utf-8"?>
<!-- Generator: Adobe Illustrator 21.1.0, SVG Export Plug-In . SVG Version: 6.00 Build 0)  -->
<svg version="1.1" xmlns="http://www.w3.org/2000/svg" xmlns:xlink="http://www.w3.org/1999/xlink" x="0px" y="0px"
	 viewBox="0 0 32 32" style="enable-background:new 0 0 32 32;" xml:space="preserve">
<style type="text/css">
	.st0{fill:#464645;}
	.st1{fill:#0000FF;}
	.st2{fill:#FF0000;}
	.st3{fill:#E9570F;}
	.st4{fill:#BAB9FF;}
	.st5{fill:#1C1C1C;}
	.st6{fill:#2F50B0;}
	.st7{fill:#CAAB60;}
	.st8{fill:#4096D0;}
	.st9{fill:#21C8B4;}
	.st10{fill:#002342;}
	.st11{fill:#005281;}
	.st12{fill:#F80000;}
	.st13{fill:#F55749;}
	.st14{fill:#272731;}
	.st15{fill:#FF4081;}
	.st16{fill:#FEBF51;}
	.st17{fill:#673300;}
	.st18{fill:#00A5E7;}
	.st19{fill:#4240A1;}
	.st20{fill:#185095;}
	.st21{fill:#BDDBEE;}
	.st22{fill:#044AAC;}
	.st23{fill:#346FCE;}
	.st24{fill:#24DD7B;}
	.st25{fill:#521C72;}
	.st26{fill:#DE1A80;}
	.st27{fill:#657BED;}
	.st28{fill:#2F3F54;}
	.st29{fill:#0097E8;}
	.st30{fill:#6382C2;}
	.st31{fill:#FF183D;}
	.st32{fill:#0F63D8;}
	.st33{fill:#253238;}
	.st34{fill:#0093A9;}
	.st35{fill:#008CBE;}
	.st36{fill:#2D9CDB;}
	.st37{fill:#E3A719;}
	.st38{fill:#5DC6BA;}
	.st39{fill:#333333;}
	.st40{fill:#363635;}
	.st41{fill:#D6395F;}
	.st42{fill:#F99600;}
	.st43{fill:#4D4D4F;}
	.st44{fill:#1272BE;}
	.st45{fill:#00CF54;}
	.st46{fill:#0092B5;}
	.st47{fill:#EA5C4F;}
	.st48{fill:#104FCA;}
	.st49{fill:#7B346E;}
	.st50{fill:none;stroke:#000000;stroke-width:0.1;stroke-miterlimit:10;}
	.st51{fill:#37DCD8;}
	.st52{fill:#C80000;}
	.st53{fill:#066EBE;}
	.st54{fill:#27BAE0;}
	.st55{fill:#CB8F00;}
	.st56{fill:#6AB87F;}
	.st57{fill:#B26FFF;}
	.st58{fill:#F4AE95;}
	.st59{fill:#F24748;}
	.st60{fill:#0351BE;}
	.st61{fill:#798E97;}
	.st62{fill:#E73730;}
	.st63{fill:#164B79;}
	.st64{fill:#0096D8;}
	.st65{fill:#47B4DD;}
	.st66{fill:#273D4B;}
	.st67{fill:#3E3A39;}
	.st68{fill:#39C0B5;}
	.st69{fill:#17284C;}
	.st70{fill:#3B9ACC;}
	.st71{fill:#151A2F;}
	.st72{fill:#344269;}
	.st73{fill:#21CBFF;}
	.st74{fill:#2D2D2D;}
	.st75{fill:#00233D;}
	.st76{fill:#0062BF;}
	.st77{fill:#F9B23E;}
	.st78{fill:#DE5C6E;}
	.st79{fill:#F88900;}
	.st80{fill:#EC555E;}
	.st81{fill:#B8D75C;}
	.st82{fill:#D5E400;}
	.st83{fill:#00969C;}
	.st84{fill:#BE1004;}
	.st85{fill:#00C6DD;}
	.st86{fill:#151037;}
	.st87{fill:#0078C6;}
	.st88{fill:#F0DA67;}
	.st89{fill:#EC5005;}
	.st90{fill:#686DB2;}
	.st91{fill:#EABE51;}
	.st92{fill:#333245;}
	.st93{fill:#2C398F;}
	.st94{fill:#FFFFFF;}
	.st95{fill:#1267FF;}
	.st96{fill:#00A7E9;}
	.st97{fill:#F00000;}
	.st98{fill-rule:evenodd;clip-rule:evenodd;fill:#FFFFFF;}
	.st99{opacity:0.498;fill:#FFFFFF;}
	.st100{opacity:0.6;fill:#FFFFFF;}
	.st101{opacity:0.8;fill:#FFFFFF;}
	.st102{fill:#FAFBF8;}
	.st103{fill:#925518;}
	.st104{opacity:0.5;fill:#FFFFFF;}
	.st105{fill:#D3BBA3;}
	.st106{fill:#62D0DD;}
	.st107{fill:#468CC4;}
	.st108{fill:#23A8DB;}
	.st109{fill:#5DD2EF;}
	.st110{fill:#DEE0E4;}
	.st111{opacity:0.3;fill:#FFFFFF;}
	.st112{fill:#FBB03B;}
	.st113{fill:#CD9A24;}
	.st114{fill:#FBCA3B;}
	.st115{fill:#C59B4D;}
	.st116{fill:#71AAD8;}
	.st117{fill:#418ECB;}
	.st118{fill:#D0E3F2;}
	.st119{fill:#E0BC66;}
	.st120{fill:#EAD299;}
	.st121{fill:#F5E9CC;}
	.st122{fill:#DDE8F6;}
	.st123{fill:#BCD1EE;}
	.st124{fill:#9ABAE5;}
	.st125{fill:#78A2DC;}
	.st126{fill:#578BD4;}
	.st127{fill:#3574CB;}
	.st128{fill:#00FFFF;}
	.st129{fill:#FAD7D6;}
	.st130{fill:#F18783;}
	.st131{fill:#F5AFAC;}
	.st132{fill:#CCEAF7;}
	.st133{fill:#66C0E8;}
	.st134{fill:#99D5EF;}
	.st135{fill:#54C719;}
	.st136{fill:#FDE0B2;}
	.st137{fill:#FBD18B;}
	.st138{fill:#FEF0D8;}
	.st139{fill:#A0B3BE;}
	.st140{fill:#3B474D;}
	.st141{fill:#E2A560;}
	.st142{fill:#E9BA5D;}
	.st143{fill:#010100;}
	.st144{fill:#C3C5E0;}
	.st145{fill:#F2D897;}
	.st146{fill:#FBF2DC;}
	.st147{fill:#FCC900;}
</style>
<g id="bgs">
	<path class="st0" d="M32,16c0,4.4-1.6,8.2-4.7,11.3S20.4,32,16,32c-4.4,0-8.2-1.6-11.3-4.7S0,20.4,0,16S1.6,7.8,4.7,4.7
		S11.6,0,16,0s8.2,1.6,11.3,4.7S32,11.6,32,16z"/>
</g>
<g id="icons">
	<g>
		<path class="st142" d="M14.2,15.2c0,0.2-0.1,0.4-0.4,0.6c0.3,0.1,0.5,0.5,0.5,0.7c0,0.7-0.5,0.9-1.1,0.9c-0.5,0-0.9,0-1.4,0v-2.9
			c0.5,0,0.9,0,1.4,0C13.8,14.4,14.2,14.6,14.2,15.2z M12.3,15.6h0.8c0.3,0,0.5-0.1,0.5-0.3c0-0.1-0.1-0.4-0.5-0.4h-0.8V15.6z
			 M12.3,16.8h0.8c0.2,0,0.5-0.1,0.5-0.4c0-0.3-0.3-0.4-0.5-0.4h-0.8V16.8z"/>
		<path class="st142" d="M17.6,17.3h-2.2c0-1,0-2,0-2.9h2.2v0.5h-1.6v0.7h1.6v0.5h-1.6v0.7h1.6V17.3z"/>
		<path class="st142" d="M19.6,14.9h-0.9v-0.5c0.8,0,1.6,0,2.4,0v0.5h-0.9v2.4h-0.6V14.9z"/>
	</g>
	<g>
		<path class="st94" d="M14.2,12.7h2c1.1,0,2,0.4,2.5,0.9h2.5c-0.7-1.7-2.2-3-4.8-3h-4.6v3h2.4V12.7z M16.2,18.8h-2V18h-2.4v3h4.6
			c2.6,0,4.1-1.3,4.8-3h-2.6C18.1,18.5,17.3,18.8,16.2,18.8z"/>
	</g>
	<path class="st143" d="M31.2,15.5c0-1.2-0.2-2.3-0.5-3.4c-0.5-1.7-1.2-3.3-2.2-4.8c-0.7-1-1.4-1.8-2.3-2.6
		c-1.3-1.2-2.8-2.1-4.4-2.8c-1-0.4-2.2-0.8-3.3-1c-0.8-0.1-1.7-0.2-2.6-0.2S14.2,0.8,13.4,1c-1.2,0.2-2.3,0.5-3.3,1
		C8.4,2.6,7,3.6,5.7,4.8C4.8,5.5,4.1,6.4,3.4,7.4c-1,1.4-1.7,3-2.2,4.8c-0.3,1.1-0.4,2.2-0.5,3.4c0,0.2,0,0.3,0,0.5
		c0,1.6,0.3,3.2,0.8,4.7c0.4,1.1,0.8,2.2,1.4,3.1c0.9,1.5,2.1,2.8,3.4,4c0.9,0.7,1.9,1.4,2.9,1.9c1.5,0.8,3.2,1.3,5,1.5
		c0.6,0.1,1.1,0.1,1.7,0.1s1.2,0,1.7-0.1c1.8-0.2,3.5-0.7,5-1.5c1-0.5,2-1.1,2.9-1.9c1.3-1.1,2.5-2.4,3.4-4c0.6-1,1.1-2,1.4-3.1
		c0.5-1.5,0.8-3.1,0.8-4.7C31.3,15.8,31.3,15.7,31.2,15.5z M24.8,16c0,4.9-3.9,8.8-8.8,8.8S7.2,20.9,7.2,16s3.9-8.8,8.8-8.8
		S24.8,11.1,24.8,16z"/>
	<path class="st142" d="M29.7,15.6l-3.8,0c0-0.7-0.1-1.3-0.3-2l3.7-1C29.6,13.5,29.7,14.5,29.7,15.6z M27.3,8.2l-3.2,2.1
		c-0.4-0.5-0.8-1.1-1.3-1.5l2.5-2.9C26.1,6.6,26.8,7.4,27.3,8.2z M21.3,3.3l-1.6,3.5c-0.6-0.2-1.3-0.4-1.9-0.6l0.6-3.8
		C19.4,2.6,20.4,2.9,21.3,3.3z M13.6,2.5l0.6,3.8c-0.7,0.1-1.3,0.3-1.9,0.6l-1.6-3.5C11.6,2.9,12.6,2.6,13.6,2.5z M6.7,5.9l2.5,2.9
		c-0.5,0.5-0.9,1-1.3,1.5L4.7,8.2C5.2,7.4,5.9,6.6,6.7,5.9z M2.7,12.5l3.7,1c-0.2,0.6-0.2,1.3-0.3,2l-3.8,0
		C2.3,14.5,2.4,13.5,2.7,12.5z M2.9,20.3l3.7-1.1c0.2,0.6,0.5,1.2,0.8,1.8l-3.2,2C3.7,22.2,3.2,21.3,2.9,20.3z M7.3,26.7l2.5-2.9
		c0.5,0.4,1.1,0.8,1.7,1.1l-1.6,3.5C9,27.9,8.1,27.3,7.3,26.7z M16,29.8c-0.5,0-1,0-1.5-0.1l0.5-3.8c0.3,0,0.7,0,1,0s0.7,0,1,0
		l0.5,3.8C17,29.7,16.5,29.8,16,29.8z M22.1,28.3l-1.6-3.5c0.6-0.3,1.2-0.7,1.7-1.1l2.5,2.9C23.9,27.3,23,27.9,22.1,28.3z
		 M27.8,23.1l-3.2-2c0.3-0.6,0.6-1.2,0.8-1.8l3.7,1.1C28.8,21.3,28.3,22.2,27.8,23.1z"/>
</g>
</svg>
