<?xml version="1.0" encoding="utf-8"?>
<!-- Generator: Adobe Illustrator 21.1.0, SVG Export Plug-In . SVG Version: 6.00 Build 0)  -->
<svg version="1.1" xmlns="http://www.w3.org/2000/svg" xmlns:xlink="http://www.w3.org/1999/xlink" x="0px" y="0px"
	 viewBox="0 0 32 32" style="enable-background:new 0 0 32 32;" xml:space="preserve">
<style type="text/css">
	.st0{fill:#020100;}
	.st1{fill:#27A3F3;}
	.st2{fill:#0666FF;}
	.st3{fill:#1FC5C9;}
	.st4{fill:#F4BB0B;}
	.st5{fill:#F4D029;}
	.st6{fill:#152743;}
	.st7{fill:#0652D9;}
	.st8{fill:#CC1E46;}
	.st9{fill:#586F81;}
	.st10{fill:#D14071;}
	.st11{fill:#5C6DED;}
	.st12{fill:#602453;}
	.st13{fill:#302C2C;}
	.st14{fill:#8300FF;}
	.st15{fill:#FF9A1F;}
	.st16{fill:#48606E;}
	.st17{fill:#4C1D57;}
	.st18{fill:#002E64;}
	.st19{fill:#504C4C;}
	.st20{fill:#CB0B00;}
	.st21{fill:#007A90;}
	.st22{fill:#00FFBA;}
	.st23{fill:#404040;}
	.st24{fill:#00BFEC;}
	.st25{fill:#2B5EBB;}
	.st26{fill:#0B0E2D;}
	.st27{fill:#1347E8;}
	.st28{fill:#F1385B;}
	.st29{fill:#188C92;}
	.st30{fill:#666666;}
	.st31{fill:#384A77;}
	.st32{fill:#01A6FF;}
	.st33{fill:#136485;}
	.st34{fill:#1BEEF4;}
	.st35{fill:#0038C8;}
	.st36{fill:#05BCA9;}
	.st37{fill:#000D2B;}
	.st38{fill:#1B1F2B;}
	.st39{fill:#FFC04F;}
	.st40{fill:#5DAA79;}
	.st41{fill:#3D3C3A;}
	.st42{fill:#3A4DA5;}
	.st43{fill:#FFCA00;}
	.st44{fill:#205174;}
	.st45{fill:#00C6FF;}
	.st46{fill:#F59100;}
	.st47{fill:#202346;}
	.st48{fill:#101A1F;}
	.st49{fill:#0D4265;}
	.st50{fill:#004ADF;}
	.st51{fill:#0B8BCB;}
	.st52{fill:#A8E0D1;}
	.st53{fill:#00C099;}
	.st54{fill:#0078FF;}
	.st55{fill:#FC3A81;}
	.st56{fill:#0B1529;}
	.st57{fill:#84BD39;}
	.st58{fill:#7F04FF;}
	.st59{fill:#FF637B;}
	.st60{fill:#2F2F2F;}
	.st61{fill:#4C6F8C;}
	.st62{fill:#00A6C4;}
	.st63{fill:#2683FF;}
	.st64{fill:#E53431;}
	.st65{fill:#3AB03E;}
	.st66{fill:#FFD800;}
	.st67{fill:#2CD3E1;}
	.st68{fill:#A44551;}
	.st69{fill:#1E1F25;}
	.st70{fill:#1B75BC;}
	.st71{fill:#2B1544;}
	.st72{fill:#B30D23;}
	.st73{fill:#3C5BE0;}
	.st74{fill:#6916FF;}
	.st75{fill:#6CFCCD;}
	.st76{fill:#383939;}
	.st77{fill:#454545;}
	.st78{fill:#D002B4;}
	.st79{fill:#F89022;}
	.st80{fill:#624DBF;}
	.st81{fill:#322C2C;}
	.st82{fill:#338BE5;}
	.st83{fill:#0FA9C9;}
	.st84{fill:#1061E3;}
	.st85{fill:#348F8D;}
	.st86{fill:#FD875E;}
	.st87{fill:#0B1C26;}
	.st88{fill:#16B9AD;}
	.st89{fill:#080D98;}
	.st90{fill:#B2A3F6;}
	.st91{fill:#399B32;}
	.st92{fill:#BEB5AF;}
	.st93{fill:#00B098;}
	.st94{fill:#00BFFF;}
	.st95{fill:#FFFFFF;}
	.st96{fill:#00FFDB;}
	.st97{fill-rule:evenodd;clip-rule:evenodd;fill:#FFFFFF;}
	.st98{fill:#C4B652;}
	.st99{fill:#00D4AF;}
	.st100{opacity:0.5;fill:#FFFFFF;}
	.st101{opacity:0.698;fill:#FFFFFF;}
	.st102{fill:#98CAD3;}
	.st103{fill:#BFDEE2;}
	.st104{opacity:0.498;fill:#FFFFFF;}
	.st105{fill:#FFFFFF;fill-opacity:0.6;}
	.st106{fill:#FFFFFF;fill-opacity:0.8;}
	.st107{fill:#FFFFFF;fill-opacity:0.4;}
	.st108{fill:#CCCCCC;}
	.st109{fill:#0078EA;}
	.st110{fill:#FEFEFE;}
	.st111{fill:#35322F;}
	.st112{fill:#F57E24;}
	.st113{fill:#D8A87D;}
	.st114{fill:#D7D1C8;}
	.st115{fill:#00DFC7;}
	.st116{fill:#FBD399;}
	.st117{fill:#FDE9CC;}
	.st118{fill:#F7A733;}
	.st119{fill:#F9BD66;}
	.st120{fill:#1E6DD8;}
	.st121{fill:#6BD756;}
	.st122{fill:#99E6D6;}
	.st123{fill:#66D9C2;}
	.st124{fill:#CCF2EB;}
	.st125{fill:#5ECDF7;}
</style>
<g id="bgs">
	<circle id="bg_70_" class="st28" cx="16" cy="16" r="16"/>
</g>
<g id="icons">
	<path class="st95" d="M8.7,16c0,0.7,0.1,1.4,0.3,2.1l-0.4,0.1c-0.2-0.7-0.3-1.5-0.3-2.2L8.7,16z M9.4,11.8l0.4,0.3
		C9.5,12.6,9.2,13.3,9,14l-0.4-0.1C8.7,13.1,9,12.4,9.4,11.8L9.4,11.8z M11.2,21.6l-0.3,0.4c-0.6-0.5-1.1-1.1-1.5-1.7L9.8,20
		C10.2,20.6,10.7,21.1,11.2,21.6z M10.3,14.1h2.9v0.8h-1.7v0.7H13v0.8h-1.5v1.6h-1.2V14.1z M12.8,8.9l0.2,0.4
		c-0.6,0.3-1.2,0.7-1.8,1.1l-0.3-0.4C11.5,9.6,12.1,9.2,12.8,8.9z M15,23.3l-0.1,0.5c-0.7-0.1-1.5-0.3-2.1-0.6l0.2-0.4
		C13.6,23,14.3,23.2,15,23.3z M13.7,14.1h1.2v2.3c0,0.2,0.1,0.4,0.2,0.5c0.1,0.1,0.3,0.2,0.5,0.2c0.2,0,0.4-0.1,0.5-0.2
		c0.1-0.1,0.2-0.3,0.2-0.5v-2.3h1.2l0,2.3c0,0.2,0,0.4-0.1,0.6c-0.1,0.2-0.2,0.4-0.3,0.5c-0.1,0.1-0.3,0.3-0.5,0.3
		c-0.2,0.1-0.5,0.1-0.8,0.1c-0.2,0-0.4,0-0.6,0c-0.2,0-0.4-0.1-0.5-0.2c-0.1-0.1-0.3-0.2-0.4-0.3c-0.1-0.1-0.2-0.3-0.3-0.4
		c-0.1-0.2-0.1-0.5-0.1-0.6L13.7,14.1L13.7,14.1z M16,8.2c0.4,0,0.7,0,1.1,0.1L17,8.8c-0.7-0.1-1.4-0.1-2.1,0l-0.1-0.5
		C15.3,8.2,15.6,8.2,16,8.2z M18,14.1h1.1l1.4,2.1v-2.1h1.1v3.8h-1.1l-1.4-2.1v2.1H18V14.1z M19.2,8.9c0.7,0.3,1.3,0.7,1.9,1.2
		l-0.3,0.4C20.3,10,19.7,9.6,19,9.3L19.2,8.9z M22.2,20l0.4,0.3c-0.4,0.6-0.9,1.2-1.5,1.7l-0.3-0.4C21.3,21.1,21.8,20.6,22.2,20z
		 M22.5,11.8c0.4,0.6,0.7,1.3,0.9,2L23,13.9c-0.2-0.7-0.5-1.3-0.9-1.9L22.5,11.8z M23.8,16c0,0.7-0.1,1.5-0.3,2.2L23,18.1
		c0.2-0.7,0.3-1.4,0.3-2.1v0L23.8,16L23.8,16L23.8,16z M17.1,23.8L17,23.3c0.7-0.1,1.4-0.3,2-0.6l0.2,0.4
		C18.6,23.4,17.8,23.6,17.1,23.8L17.1,23.8z M6.2,16c0,0.6,0.1,1.2,0.2,1.8l-1.2,0.2c0.1,0.7,0.3,1.3,0.6,2l1.2-0.5
		c0.2,0.6,0.5,1.1,0.8,1.6l-1.1,0.7C7,22.4,7.4,23,7.9,23.5l0.9-0.8c0.4,0.4,0.9,0.9,1.3,1.2l-0.7,1c0.5,0.4,1.1,0.8,1.7,1.1
		l0.6-1.1c0.5,0.3,1.1,0.5,1.7,0.7L13,26.6c0.7,0.2,1.3,0.3,2,0.4l0.1-1.2c0.3,0,0.6,0,0.9,0c0.3,0,0.6,0,0.9,0L17,27
		c0.7-0.1,1.3-0.2,2-0.4l-0.3-1.2c0.6-0.2,1.1-0.4,1.7-0.7l0.6,1.1c0.6-0.3,1.2-0.7,1.7-1.1l-0.8-1c0.5-0.4,0.9-0.8,1.3-1.2l0.9,0.8
		c0.5-0.5,0.9-1,1.2-1.6l-1.1-0.7c0.3-0.5,0.6-1.1,0.8-1.6l1.2,0.5c0.2-0.6,0.4-1.3,0.6-2l-1.2-0.2c0.1-0.6,0.2-1.2,0.2-1.8v0l1.2,0
		c0-0.7-0.1-1.4-0.2-2l-1.2,0.2c-0.1-0.6-0.3-1.2-0.5-1.7l1.2-0.5c-0.2-0.6-0.6-1.2-0.9-1.8l-1.1,0.7c-0.3-0.5-0.7-1-1.1-1.4
		l0.9-0.8c-0.5-0.5-1-1-1.5-1.4l-0.7,1c-0.5-0.4-1-0.7-1.5-0.9l0.6-1.1c-0.6-0.3-1.2-0.5-1.9-0.7l-0.3,1.2c-0.6-0.2-1.2-0.3-1.8-0.3
		L17,5c-0.3,0-0.7,0-1,0c-0.3,0-0.7,0-1,0l0.1,1.2c-0.6,0.1-1.2,0.2-1.8,0.3L13,5.4c-0.7,0.2-1.3,0.4-1.9,0.7l0.6,1.1
		c-0.5,0.3-1,0.6-1.5,1l-0.8-1c-0.5,0.4-1,0.9-1.5,1.4l0.9,0.8C8.4,9.9,8,10.4,7.7,10.9l-1.1-0.7c-0.4,0.6-0.7,1.2-0.9,1.8l1.2,0.4
		c-0.2,0.6-0.4,1.1-0.5,1.7L5.2,14C5.1,14.7,5,15.3,5,16v0L6.2,16z"/>
</g>
</svg>
