<?xml version="1.0" encoding="utf-8"?>
<!-- Generator: Adobe Illustrator 21.1.0, SVG Export Plug-In . SVG Version: 6.00 Build 0)  -->
<svg version="1.1" xmlns="http://www.w3.org/2000/svg" xmlns:xlink="http://www.w3.org/1999/xlink" x="0px" y="0px"
	 viewBox="0 0 32 32" style="enable-background:new 0 0 32 32;" xml:space="preserve">
<style type="text/css">
	.st0{fill:#020100;}
	.st1{fill:#27A3F3;}
	.st2{fill:#0666FF;}
	.st3{fill:#1FC5C9;}
	.st4{fill:#F4BB0B;}
	.st5{fill:#F4D029;}
	.st6{fill:#152743;}
	.st7{fill:#0652D9;}
	.st8{fill:#CC1E46;}
	.st9{fill:#586F81;}
	.st10{fill:#D14071;}
	.st11{fill:#5C6DED;}
	.st12{fill:#602453;}
	.st13{fill:#302C2C;}
	.st14{fill:#8300FF;}
	.st15{fill:#FF9A1F;}
	.st16{fill:#48606E;}
	.st17{fill:#4C1D57;}
	.st18{fill:#002E64;}
	.st19{fill:#504C4C;}
	.st20{fill:#CB0B00;}
	.st21{fill:#007A90;}
	.st22{fill:#00FFBA;}
	.st23{fill:#404040;}
	.st24{fill:#00BFEC;}
	.st25{fill:#2B5EBB;}
	.st26{fill:#0B0E2D;}
	.st27{fill:#1347E8;}
	.st28{fill:#F1385B;}
	.st29{fill:#188C92;}
	.st30{fill:#666666;}
	.st31{fill:#384A77;}
	.st32{fill:#01A6FF;}
	.st33{fill:#136485;}
	.st34{fill:#1BEEF4;}
	.st35{fill:#0038C8;}
	.st36{fill:#05BCA9;}
	.st37{fill:#000D2B;}
	.st38{fill:#1B1F2B;}
	.st39{fill:#FFC04F;}
	.st40{fill:#5DAA79;}
	.st41{fill:#3D3C3A;}
	.st42{fill:#3A4DA5;}
	.st43{fill:#FFCA00;}
	.st44{fill:#205174;}
	.st45{fill:#00C6FF;}
	.st46{fill:#F59100;}
	.st47{fill:#202346;}
	.st48{fill:#101A1F;}
	.st49{fill:#0D4265;}
	.st50{fill:#004ADF;}
	.st51{fill:#0B8BCB;}
	.st52{fill:#A8E0D1;}
	.st53{fill:#00C099;}
	.st54{fill:#0078FF;}
	.st55{fill:#FC3A81;}
	.st56{fill:#0B1529;}
	.st57{fill:#84BD39;}
	.st58{fill:#7F04FF;}
	.st59{fill:#FF637B;}
	.st60{fill:#2F2F2F;}
	.st61{fill:#4C6F8C;}
	.st62{fill:#00A6C4;}
	.st63{fill:#2683FF;}
	.st64{fill:#E53431;}
	.st65{fill:#3AB03E;}
	.st66{fill:#FFD800;}
	.st67{fill:#2CD3E1;}
	.st68{fill:#A44551;}
	.st69{fill:#1E1F25;}
	.st70{fill:#1B75BC;}
	.st71{fill:#2B1544;}
	.st72{fill:#B30D23;}
	.st73{fill:#3C5BE0;}
	.st74{fill:#6916FF;}
	.st75{fill:#6CFCCD;}
	.st76{fill:#383939;}
	.st77{fill:#454545;}
	.st78{fill:#D002B4;}
	.st79{fill:#F89022;}
	.st80{fill:#624DBF;}
	.st81{fill:#322C2C;}
	.st82{fill:#338BE5;}
	.st83{fill:#0FA9C9;}
	.st84{fill:#1061E3;}
	.st85{fill:#348F8D;}
	.st86{fill:#FD875E;}
	.st87{fill:#0B1C26;}
	.st88{fill:#16B9AD;}
	.st89{fill:#080D98;}
	.st90{fill:#B2A3F6;}
	.st91{fill:#399B32;}
	.st92{fill:#BEB5AF;}
	.st93{fill:#00B098;}
	.st94{fill:#00BFFF;}
	.st95{fill:#FFFFFF;}
	.st96{fill:#00FFDB;}
	.st97{fill-rule:evenodd;clip-rule:evenodd;fill:#FFFFFF;}
	.st98{fill:#C4B652;}
	.st99{fill:#00D4AF;}
	.st100{opacity:0.5;fill:#FFFFFF;}
	.st101{opacity:0.698;fill:#FFFFFF;}
	.st102{fill:#98CAD3;}
	.st103{fill:#BFDEE2;}
	.st104{opacity:0.498;fill:#FFFFFF;}
	.st105{fill:#FFFFFF;fill-opacity:0.6;}
	.st106{fill:#FFFFFF;fill-opacity:0.8;}
	.st107{fill:#FFFFFF;fill-opacity:0.4;}
	.st108{fill:#CCCCCC;}
	.st109{fill:#0078EA;}
	.st110{fill:#FEFEFE;}
	.st111{fill:#35322F;}
	.st112{fill:#F57E24;}
	.st113{fill:#D8A87D;}
	.st114{fill:#D7D1C8;}
	.st115{fill:#00DFC7;}
	.st116{fill:#FBD399;}
	.st117{fill:#FDE9CC;}
	.st118{fill:#F7A733;}
	.st119{fill:#F9BD66;}
	.st120{fill:#1E6DD8;}
	.st121{fill:#6BD756;}
	.st122{fill:#99E6D6;}
	.st123{fill:#66D9C2;}
	.st124{fill:#CCF2EB;}
	.st125{fill:#5ECDF7;}
</style>
<g id="bgs">
	<circle id="bg_62_" class="st35" cx="16" cy="16" r="16"/>
</g>
<g id="icons">
	<g id="Group-3-Copy-3">
		<g id="Group-2">
			<g id="Group">
				<path id="Fill-1" class="st105" d="M16.3,10.2h-0.5c-0.5,0-0.9-0.4-0.9-0.9V8.9c0-0.5,0.4-0.9,0.9-0.9h0.5
					c0.5,0,0.9,0.4,0.9,0.9v0.5C17.2,9.9,16.8,10.2,16.3,10.2z"/>
				<path id="Fill-3" class="st105" d="M16.3,23.8h-0.5c-0.5,0-0.9-0.4-0.9-0.9v-0.5c0-0.5,0.4-0.9,0.9-0.9h0.5
					c0.5,0,0.9,0.4,0.9,0.9v0.5C17.2,23.4,16.8,23.8,16.3,23.8"/>
				<path id="Fill-5" class="st105" d="M23.1,17h-0.5c-0.5,0-0.9-0.4-0.9-0.9v-0.5c0-0.5,0.4-0.9,0.9-0.9h0.5c0.5,0,0.9,0.4,0.9,0.9
					v0.5C23.9,16.6,23.5,17,23.1,17"/>
				<path id="Fill-7" class="st105" d="M9.6,17H9.1c-0.5,0-0.9-0.4-0.9-0.9v-0.5c0-0.5,0.4-0.9,0.9-0.9h0.5c0.5,0,0.9,0.4,0.9,0.9
					v0.5C10.5,16.6,10.1,17,9.6,17"/>
				<path id="Fill-9" class="st106" d="M18.9,24.7c-0.2-0.4,0-0.8,0.4-1c0.4-0.2,0.8,0,1,0.4c0.2,0.4,0,0.8-0.4,1
					C19.5,25.3,19.1,25.1,18.9,24.7"/>
				<path id="Fill-11" class="st106" d="M11.9,7.6c-0.2-0.4,0-0.8,0.4-1c0.4-0.2,0.8,0,1,0.4c0.2,0.4,0,0.8-0.4,1
					C12.4,8.2,12,8,11.9,7.6"/>
				<path id="Fill-13" class="st106" d="M24.9,13c-0.4,0.2-0.8,0-1-0.4c-0.2-0.4,0-0.8,0.4-1c0.4-0.2,0.8,0,1,0.4
					C25.4,12.5,25.3,12.9,24.9,13"/>
				<path id="Fill-15" class="st106" d="M7.8,20.1c-0.4,0.2-0.8,0-1-0.4c-0.2-0.4,0-0.8,0.4-1c0.4-0.2,0.8,0,1,0.4
					C8.3,19.5,8.2,20,7.8,20.1"/>
				<path id="Fill-17" class="st105" d="M24.3,20.1c-0.4-0.2-0.5-0.6-0.4-1c0.2-0.4,0.6-0.5,1-0.4c0.4,0.2,0.5,0.6,0.4,1
					C25.1,20.1,24.7,20.3,24.3,20.1"/>
				<path id="Fill-19" class="st105" d="M7.2,13c-0.4-0.2-0.5-0.6-0.4-1c0.2-0.4,0.6-0.5,1-0.4c0.4,0.2,0.5,0.6,0.4,1
					C8,13,7.6,13.2,7.2,13"/>
				<path id="Fill-21" class="st105" d="M20.3,7.6c-0.2,0.4-0.6,0.5-1,0.4c-0.4-0.2-0.5-0.6-0.4-1c0.2-0.4,0.6-0.5,1-0.4
					C20.3,6.8,20.4,7.3,20.3,7.6"/>
				<path id="Fill-23" class="st105" d="M13.2,24.7c-0.2,0.4-0.6,0.5-1,0.4c-0.4-0.2-0.5-0.6-0.4-1c0.2-0.4,0.6-0.5,1-0.4
					C13.2,23.9,13.4,24.4,13.2,24.7"/>
				<path id="Fill-25" class="st107" d="M23.4,23.8c-0.2-0.2-0.2-0.4,0-0.6c0.2-0.2,0.4-0.2,0.6,0c0.2,0.2,0.2,0.4,0,0.6
					C23.8,24,23.5,24,23.4,23.8"/>
				<path id="Fill-27" class="st107" d="M8.2,8.6C8,8.4,8,8.2,8.2,8c0.2-0.2,0.4-0.2,0.6,0s0.2,0.4,0,0.6C8.6,8.8,8.3,8.8,8.2,8.6"
					/>
				<path id="Fill-29" class="st107" d="M24,8.6c-0.2,0.2-0.4,0.2-0.6,0c-0.2-0.2-0.2-0.4,0-0.6c0.2-0.2,0.4-0.2,0.6,0
					C24.1,8.2,24.1,8.4,24,8.6"/>
				<path id="Fill-31" class="st107" d="M8.8,23.8c-0.2,0.2-0.4,0.2-0.6,0s-0.2-0.4,0-0.6c0.2-0.2,0.4-0.2,0.6,0
					C8.9,23.4,8.9,23.6,8.8,23.8"/>
				<path id="Fill-33" class="st105" d="M26.8,16.3c-0.2,0-0.4-0.2-0.4-0.4c0-0.2,0.2-0.4,0.4-0.4c0.2,0,0.4,0.2,0.4,0.4
					C27.2,16.1,27,16.3,26.8,16.3"/>
				<g id="Group-37">
					<path id="Fill-35" class="st105" d="M5.3,16.3c-0.2,0-0.4-0.2-0.4-0.4c0-0.2,0.2-0.4,0.4-0.4c0.2,0,0.4,0.2,0.4,0.4
						C5.7,16.1,5.6,16.3,5.3,16.3"/>
				</g>
				<path id="Fill-38" class="st105" d="M16.5,5.2c0,0.2-0.2,0.4-0.4,0.4c-0.2,0-0.4-0.2-0.4-0.4c0-0.2,0.2-0.4,0.4-0.4
					C16.3,4.7,16.5,4.9,16.5,5.2"/>
				<g id="Group-42">
					<path id="Fill-40" class="st105" d="M16.5,26.7c0,0.2-0.2,0.4-0.4,0.4c-0.2,0-0.4-0.2-0.4-0.4s0.2-0.4,0.4-0.4
						C16.3,26.2,16.5,26.4,16.5,26.7"/>
				</g>
				<path id="Fill-43" class="st106" d="M20.9,12.3h-1.4v-1.4c0-0.5,0.4-0.9,0.9-0.9h0.5c0.5,0,0.9,0.4,0.9,0.9v0.5
					C21.8,11.9,21.4,12.3,20.9,12.3"/>
				<path id="Fill-45" class="st106" d="M12.7,12.3h-1.4c-0.5,0-0.9-0.4-0.9-0.9v-0.5c0-0.5,0.4-0.9,0.9-0.9h0.5
					c0.5,0,0.9,0.4,0.9,0.9V12.3z"/>
				<path id="Fill-47" class="st106" d="M11.9,21.5h-0.5c-0.5,0-0.9-0.4-0.9-0.9v-0.5c0-0.5,0.4-0.9,0.9-0.9h1.4v1.4
					C12.7,21.1,12.4,21.5,11.9,21.5"/>
				<path id="Fill-49" class="st106" d="M20.9,21.5h-0.5c-0.5,0-0.9-0.4-0.9-0.9v-1.4h1.4c0.5,0,0.9,0.4,0.9,0.9v0.5
					C21.8,21.2,21.4,21.5,20.9,21.5"/>
				<path id="Fill-51" class="st95" d="M18.3,14.7h0.6c0.3,0,0.6-0.3,0.6-0.6v-1.7h-1.7c-0.3,0-0.6,0.3-0.6,0.6v0.6
					c0,0.6-0.5,1.2-1.1,1.2s-1.2-0.5-1.2-1.2v-0.6c0-0.3-0.3-0.6-0.6-0.6h-1.5v6.9h1.5c0.3,0,0.6-0.3,0.6-0.6v-0.5
					c0-0.7,0.5-1.2,1.1-1.2v0c0.6,0,1.2,0.5,1.2,1.2v0.6c0,0.3,0.3,0.6,0.6,0.6h1.7v-1.7c0-0.3-0.3-0.6-0.6-0.6h-0.5
					c-0.6,0-1.2-0.5-1.2-1.1h0C17.2,15.2,17.7,14.7,18.3,14.7"/>
			</g>
		</g>
	</g>
</g>
</svg>
