<?xml version="1.0" encoding="utf-8"?>
<!-- Generator: Adobe Illustrator 21.1.0, SVG Export Plug-In . SVG Version: 6.00 Build 0)  -->
<svg version="1.1" xmlns="http://www.w3.org/2000/svg" xmlns:xlink="http://www.w3.org/1999/xlink" x="0px" y="0px"
	 viewBox="0 0 32 32" style="enable-background:new 0 0 32 32;" xml:space="preserve">
<style type="text/css">
	.st0{fill:#020100;}
	.st1{fill:#27A3F3;}
	.st2{fill:#0666FF;}
	.st3{fill:#1FC5C9;}
	.st4{fill:#F4BB0B;}
	.st5{fill:#F4D029;}
	.st6{fill:#152743;}
	.st7{fill:#0652D9;}
	.st8{fill:#CC1E46;}
	.st9{fill:#586F81;}
	.st10{fill:#D14071;}
	.st11{fill:#5C6DED;}
	.st12{fill:#602453;}
	.st13{fill:#302C2C;}
	.st14{fill:#8300FF;}
	.st15{fill:#FF9A1F;}
	.st16{fill:#48606E;}
	.st17{fill:#4C1D57;}
	.st18{fill:#002E64;}
	.st19{fill:#504C4C;}
	.st20{fill:#CB0B00;}
	.st21{fill:#007A90;}
	.st22{fill:#00FFBA;}
	.st23{fill:#404040;}
	.st24{fill:#00BFEC;}
	.st25{fill:#2B5EBB;}
	.st26{fill:#0B0E2D;}
	.st27{fill:#1347E8;}
	.st28{fill:#F1385B;}
	.st29{fill:#188C92;}
	.st30{fill:#666666;}
	.st31{fill:#384A77;}
	.st32{fill:#01A6FF;}
	.st33{fill:#136485;}
	.st34{fill:#1BEEF4;}
	.st35{fill:#0038C8;}
	.st36{fill:#05BCA9;}
	.st37{fill:#000D2B;}
	.st38{fill:#1B1F2B;}
	.st39{fill:#FFC04F;}
	.st40{fill:#5DAA79;}
	.st41{fill:#3D3C3A;}
	.st42{fill:#3A4DA5;}
	.st43{fill:#FFCA00;}
	.st44{fill:#205174;}
	.st45{fill:#00C6FF;}
	.st46{fill:#F59100;}
	.st47{fill:#202346;}
	.st48{fill:#101A1F;}
	.st49{fill:#0D4265;}
	.st50{fill:#004ADF;}
	.st51{fill:#0B8BCB;}
	.st52{fill:#A8E0D1;}
	.st53{fill:#00C099;}
	.st54{fill:#0078FF;}
	.st55{fill:#FC3A81;}
	.st56{fill:#0B1529;}
	.st57{fill:#84BD39;}
	.st58{fill:#7F04FF;}
	.st59{fill:#FF637B;}
	.st60{fill:#2F2F2F;}
	.st61{fill:#4C6F8C;}
	.st62{fill:#00A6C4;}
	.st63{fill:#2683FF;}
	.st64{fill:#E53431;}
	.st65{fill:#3AB03E;}
	.st66{fill:#FFD800;}
	.st67{fill:#2CD3E1;}
	.st68{fill:#A44551;}
	.st69{fill:#1E1F25;}
	.st70{fill:#1B75BC;}
	.st71{fill:#2B1544;}
	.st72{fill:#B30D23;}
	.st73{fill:#3C5BE0;}
	.st74{fill:#6916FF;}
	.st75{fill:#6CFCCD;}
	.st76{fill:#383939;}
	.st77{fill:#454545;}
	.st78{fill:#D002B4;}
	.st79{fill:#F89022;}
	.st80{fill:#624DBF;}
	.st81{fill:#322C2C;}
	.st82{fill:#338BE5;}
	.st83{fill:#0FA9C9;}
	.st84{fill:#1061E3;}
	.st85{fill:#348F8D;}
	.st86{fill:#FD875E;}
	.st87{fill:#0B1C26;}
	.st88{fill:#16B9AD;}
	.st89{fill:#080D98;}
	.st90{fill:#B2A3F6;}
	.st91{fill:#399B32;}
	.st92{fill:#BEB5AF;}
	.st93{fill:#00B098;}
	.st94{fill:#00BFFF;}
	.st95{fill:#FFFFFF;}
	.st96{fill:#00FFDB;}
	.st97{fill-rule:evenodd;clip-rule:evenodd;fill:#FFFFFF;}
	.st98{fill:#C4B652;}
	.st99{fill:#00D4AF;}
	.st100{opacity:0.5;fill:#FFFFFF;}
	.st101{opacity:0.698;fill:#FFFFFF;}
	.st102{fill:#98CAD3;}
	.st103{fill:#BFDEE2;}
	.st104{opacity:0.498;fill:#FFFFFF;}
	.st105{fill:#FFFFFF;fill-opacity:0.6;}
	.st106{fill:#FFFFFF;fill-opacity:0.8;}
	.st107{fill:#FFFFFF;fill-opacity:0.4;}
	.st108{fill:#CCCCCC;}
	.st109{fill:#0078EA;}
	.st110{fill:#FEFEFE;}
	.st111{fill:#35322F;}
	.st112{fill:#F57E24;}
	.st113{fill:#D8A87D;}
	.st114{fill:#D7D1C8;}
	.st115{fill:#00DFC7;}
	.st116{fill:#FBD399;}
	.st117{fill:#FDE9CC;}
	.st118{fill:#F7A733;}
	.st119{fill:#F9BD66;}
	.st120{fill:#1E6DD8;}
	.st121{fill:#6BD756;}
	.st122{fill:#99E6D6;}
	.st123{fill:#66D9C2;}
	.st124{fill:#CCF2EB;}
	.st125{fill:#5ECDF7;}
</style>
<g id="bgs">
	<circle id="bg_65_" class="st32" cx="16" cy="16" r="16"/>
</g>
<g id="icons">
	<g>
		<polygon class="st95" points="7,10.8 7,21.2 16,26.4 25,21.2 25,10.8 16,5.6 		"/>
		<g>
			<polygon class="st108" points="16,16.1 6.9,10.9 7,10.7 16,15.9 25,10.7 25.1,10.9 			"/>
		</g>
		<g>
			<rect x="15.9" y="16" class="st108" width="0.2" height="10.4"/>
		</g>
		<g>
			<path class="st32" d="M16,26.6c0,0-0.1,0-0.1,0l-9-5.2c-0.1,0-0.1-0.1-0.1-0.2V10.8c0-0.1,0-0.2,0.1-0.2l9-5.2c0.1,0,0.2,0,0.2,0
				l9,5.2c0.1,0,0.1,0.1,0.1,0.2v10.4c0,0.1,0,0.2-0.1,0.2l-9,5.2C16.1,26.6,16,26.6,16,26.6z M7.2,21.1l8.8,5.1l8.8-5.1V10.9
				L16,5.8l-8.8,5.1V21.1z"/>
		</g>
		<g>
			<path class="st32" d="M12.4,17.1C12.4,17.1,12.4,17.1,12.4,17.1L8,14.6c-0.1,0-0.1-0.1,0-0.2c0-0.1,0.1-0.1,0.2,0l4.3,2.5
				C12.5,17,12.6,17,12.4,17.1C12.5,17.1,12.5,17.1,12.4,17.1z"/>
		</g>
		<g>
			<path class="st32" d="M14.7,19.4C14.7,19.4,14.7,19.4,14.7,19.4L8,15.6c-0.1,0-0.1-0.1,0-0.2c0-0.1,0.1-0.1,0.2,0l6.6,3.8
				C14.8,19.2,14.9,19.3,14.7,19.4C14.8,19.4,14.8,19.4,14.7,19.4z"/>
		</g>
		<g>
			<path class="st32" d="M14.9,20.4C14.8,20.4,14.8,20.4,14.9,20.4L8,16.5c-0.1,0-0.1-0.1,0-0.2c0-0.1,0.1-0.1,0.2,0l6.8,3.9
				C15,20.2,15,20.3,14.9,20.4C14.9,20.4,14.9,20.4,14.9,20.4z"/>
		</g>
		<g>
			<path class="st32" d="M10.8,19C10.8,19,10.8,19,10.8,19L8,17.4c-0.1,0-0.1-0.1,0-0.2c0-0.1,0.1-0.1,0.2,0l2.7,1.6
				C10.9,18.8,11,18.9,10.8,19C10.9,19,10.9,19,10.8,19z"/>
		</g>
		<g>
			<path class="st32" d="M13.5,21.5C13.5,21.5,13.5,21.5,13.5,21.5L8,18.3c-0.1,0-0.1-0.1,0-0.2c0-0.1,0.1-0.1,0.2,0l5.4,3.1
				C13.6,21.3,13.6,21.4,13.5,21.5C13.6,21.5,13.6,21.5,13.5,21.5z"/>
		</g>
		<g>
			<path class="st32" d="M9.7,20.2C9.6,20.2,9.6,20.2,9.7,20.2L8,19.3c-0.1,0-0.1-0.1,0-0.2c0-0.1,0.1-0.1,0.2,0L9.7,20
				C9.8,20,9.8,20.1,9.7,20.2C9.7,20.2,9.7,20.2,9.7,20.2z"/>
		</g>
		<g>
			<path class="st32" d="M22.2,16.8L22,16.9v-0.8c0-0.9-0.6-1.3-1.4-0.8l-0.1,0c-0.8,0.4-1.4,1.5-1.4,2.4l0,0.8L19,18.6
				c-0.3,0.1-0.5,0.5-0.5,0.8l0,2.9c0,0.3,0.2,0.4,0.5,0.3l3.2-1.8c0.3-0.1,0.5-0.5,0.5-0.8l0-2.9C22.6,16.8,22.4,16.7,22.2,16.8z
				 M19.8,17.4c0-0.5,0.3-1.1,0.8-1.3l0.1,0c0.4-0.2,0.8,0,0.8,0.5l0,0.8l-1.6,0.9L19.8,17.4z"/>
			<path class="st109" d="M21,19.2c0,0.2-0.1,0.4-0.2,0.6l0,0.6c0,0.2-0.1,0.3-0.2,0.4c-0.1,0.1-0.2,0-0.2-0.1V20
				c-0.1,0-0.2-0.1-0.2-0.3c0-0.3,0.2-0.6,0.4-0.8C20.8,18.8,21,18.9,21,19.2z"/>
		</g>
		<g>
			<path d="M8.4,13.9L8.4,13.9L8.3,14L8,13.4v0l0.3-0.2l0.1,0.2v0l-0.2,0.1L8.4,13.9z"/>
			<path d="M8.5,13.6l0.5,0.3v0.2l-0.5-0.3V13.6z"/>
			<path d="M9,13.9l0.5,0.3v0.2L9,14.1V13.9z"/>
			<path d="M9.9,14.6l-0.2-0.4v0l0.1-0.1l0.3,0.6v0l-0.3,0.2l-0.1-0.2v0L9.9,14.6z"/>
		</g>
		<g>
			<path d="M8.4,20.7L8.4,20.7l-0.1,0.1L8,20.2v0l0.3-0.2l0.1,0.2v0l-0.2,0.1L8.4,20.7z"/>
			<path d="M8.9,20.2L8.5,21l0.2,0.1L9,20.3L8.9,20.2z"/>
			<path d="M9.4,21l-0.2-0.4v0l0.1-0.1l0.3,0.6v0l-0.3,0.2l-0.1-0.2v0L9.4,21z"/>
		</g>
		<g>
			<path d="M15.1,9.1c-0.3,0-0.6-0.1-0.8-0.2c-0.6-0.3-0.5-0.7-0.1-1c0.4-0.3,1-0.4,1.6,0C16,8,16.2,8.1,16.2,8.3l-0.4,0
				c0-0.1-0.1-0.2-0.2-0.3c-0.4-0.2-0.8-0.1-1.1,0c-0.2,0.2-0.3,0.4,0.1,0.6c0.1,0.1,0.4,0.1,0.6,0.1L15.1,9.1z"/>
			<path d="M16.9,8.5l-0.6,0.4c0.2,0,0.4,0,0.5,0.1c0.3,0.2,0.3,0.4,0,0.6L16.3,10L16,9.8l0.5-0.4c0.2-0.1,0.2-0.2,0-0.3
				c-0.2-0.1-0.4-0.1-0.6,0l-0.5,0.4l-0.3-0.2l1.5-1L16.9,8.5z"/>
			<path d="M18.6,10l0.3,0.2l-1,0.7l-0.3-0.1l0.1-0.1c-0.2,0-0.4,0-0.5-0.1c-0.3-0.2-0.4-0.5,0-0.7c0.4-0.2,0.8-0.2,1.1,0
				c0.2,0.1,0.2,0.2,0.2,0.3L18.6,10z M17.4,10c-0.2,0.1-0.2,0.3,0,0.4c0.4,0.2,1.1-0.2,0.6-0.4C17.9,9.8,17.6,9.8,17.4,10z"/>
			<path d="M19.5,10.5l-1,0.7L18.2,11l1-0.7L19.5,10.5z M19.5,10.1c-0.2,0.1,0.1,0.3,0.3,0.2C20,10.2,19.7,10,19.5,10.1z"/>
			<path d="M19.7,11.9l0.5-0.4c0.2-0.1,0.2-0.2,0-0.3c-0.2-0.1-0.4-0.1-0.6,0l-0.5,0.4l-0.3-0.2l1-0.7l0.2,0.1L20,11
				c0.2,0,0.4,0,0.5,0.1c0.3,0.1,0.3,0.4,0,0.6L20,12L19.7,11.9z"/>
			<path d="M13,9.1L11.8,10l0.8,0.5l-0.3,0.2L11.2,10l1.5-1L13,9.1z"/>
			<path d="M14,10.2l-1,0.7l-0.3-0.2l1-0.7L14,10.2z M14,9.9c-0.2,0.1,0.1,0.3,0.3,0.2C14.5,9.9,14.2,9.7,14,9.9z"/>
			<path d="M14.2,11.6l0.5-0.4c0.2-0.1,0.2-0.2,0-0.3c-0.2-0.1-0.4-0.1-0.6,0l-0.5,0.4l-0.3-0.2l1-0.7l0.2,0.1l-0.1,0.1
				c0.2,0,0.4,0,0.5,0.1c0.3,0.1,0.3,0.4,0,0.6l-0.5,0.4L14.2,11.6z"/>
			<path d="M16.6,11.1l-0.9,0.6l0.8-0.1l0.3,0.2l0,0l-0.9,0.1l0,0.7l0,0l-0.3-0.2l0-0.6l-0.5,0.3L14.8,12l1.5-1L16.6,11.1z"/>
		</g>
	</g>
</g>
</svg>
