<?xml version="1.0" encoding="utf-8"?>
<!-- Generator: Adobe Illustrator 23.0.0, SVG Export Plug-In . SVG Version: 6.00 Build 0)  -->
<svg version="1.0" id="Ebene_1" xmlns="http://www.w3.org/2000/svg" xmlns:xlink="http://www.w3.org/1999/xlink" x="0px" y="0px"
	 viewBox="0 0 260 260" enable-background="new 0 0 260 260" xml:space="preserve">
<g>
	<circle fill="#FFFFFF" cx="130" cy="130" r="115"/>
	<path fill="#0063A5" d="M130,25c57.9,0,105,47.1,105,105s-47.1,105-105,105S25,187.9,25,130S72.1,25,130,25 M130,5
		C60.96,5,5,60.96,5,130s55.96,125,125,125s125-55.96,125-125S199.04,5,130,5L130,5z"/>
</g>
<g>
	<g>
		<path fill="#CD0086" d="M158.87,78.97c-7.72,0-14,6.28-14,14c0,7.72,6.28,14,14,14c7.72,0,14-6.28,14-14
			C172.87,85.25,166.59,78.97,158.87,78.97z"/>
	</g>
	<g>
		<path fill="#CD0086" d="M198.03,78.97c-7.72,0-14,6.28-14,14c0,7.72,6.28,14,14,14c7.72,0,14-6.28,14-14
			C212.03,85.25,205.75,78.97,198.03,78.97z"/>
	</g>
	<path fill="#0063A5" d="M94.44,78.97c-15.68,0.09-26.42,8.69-26.42,8.69s-0.01-0.53-0.01-0.47c-0.01-4.38-5-8.22-9.97-8.22
		c-0.01,0-0.03,0-0.04,0c-5.64,0.02-10.05,4.61-10.03,10.25v81.61c0,5.6,4.38,10.15,9.98,10.2c0.05,0,0.1-0.01,0.15-0.01
		c0.09,0,0.18,0.01,0.28,0.01c0.01,0,0.03,0,0.04,0c5.64-0.02,10.19-4.61,10.16-10.25l-0.2-49.23
		c0.09-11.86,12.87-22.17,25.96-22.17c0.03,0,0.06,0,0.1,0c0.03,0,0.06,0,0.1,0c14.49,0,26.28,11.79,26.28,26.29v45.16
		c0,5.6,4.52,10.15,10.11,10.2c5.59-0.05,10.11-4.6,10.11-10.2v-45.16C141.04,99.95,120.14,78.81,94.44,78.97z"/>
</g>
</svg>
