<?xml version="1.0" encoding="utf-8"?>
<!-- Generator: Adobe Illustrator 21.1.0, SVG Export Plug-In . SVG Version: 6.00 Build 0)  -->
<svg version="1.1" xmlns="http://www.w3.org/2000/svg" xmlns:xlink="http://www.w3.org/1999/xlink" x="0px" y="0px"
	 viewBox="0 0 32 32" style="enable-background:new 0 0 32 32;" xml:space="preserve">
<style type="text/css">
	.st0{fill:#464645;}
	.st1{fill:#0000FF;}
	.st2{fill:#FF0000;}
	.st3{fill:#E9570F;}
	.st4{fill:#BAB9FF;}
	.st5{fill:#1C1C1C;}
	.st6{fill:#2F50B0;}
	.st7{fill:#CAAB60;}
	.st8{fill:#4096D0;}
	.st9{fill:#21C8B4;}
	.st10{fill:#002342;}
	.st11{fill:#005281;}
	.st12{fill:#F80000;}
	.st13{fill:#F55749;}
	.st14{fill:#272731;}
	.st15{fill:#FF4081;}
	.st16{fill:#FEBF51;}
	.st17{fill:#673300;}
	.st18{fill:#00A5E7;}
	.st19{fill:#4240A1;}
	.st20{fill:#185095;}
	.st21{fill:#BDDBEE;}
	.st22{fill:#044AAC;}
	.st23{fill:#346FCE;}
	.st24{fill:#24DD7B;}
	.st25{fill:#521C72;}
	.st26{fill:#DE1A80;}
	.st27{fill:#657BED;}
	.st28{fill:#2F3F54;}
	.st29{fill:#0097E8;}
	.st30{fill:#6382C2;}
	.st31{fill:#FF183D;}
	.st32{fill:#0F63D8;}
	.st33{fill:#253238;}
	.st34{fill:#0093A9;}
	.st35{fill:#008CBE;}
	.st36{fill:#2D9CDB;}
	.st37{fill:#E3A719;}
	.st38{fill:#5DC6BA;}
	.st39{fill:#333333;}
	.st40{fill:#363635;}
	.st41{fill:#D6395F;}
	.st42{fill:#F99600;}
	.st43{fill:#4D4D4F;}
	.st44{fill:#1272BE;}
	.st45{fill:#00CF54;}
	.st46{fill:#0092B5;}
	.st47{fill:#EA5C4F;}
	.st48{fill:#104FCA;}
	.st49{fill:#7B346E;}
	.st50{fill:none;stroke:#000000;stroke-width:0.1;stroke-miterlimit:10;}
	.st51{fill:#37DCD8;}
	.st52{fill:#C80000;}
	.st53{fill:#066EBE;}
	.st54{fill:#27BAE0;}
	.st55{fill:#CB8F00;}
	.st56{fill:#6AB87F;}
	.st57{fill:#B26FFF;}
	.st58{fill:#F4AE95;}
	.st59{fill:#F24748;}
	.st60{fill:#0351BE;}
	.st61{fill:#798E97;}
	.st62{fill:#E73730;}
	.st63{fill:#164B79;}
	.st64{fill:#0096D8;}
	.st65{fill:#47B4DD;}
	.st66{fill:#273D4B;}
	.st67{fill:#3E3A39;}
	.st68{fill:#39C0B5;}
	.st69{fill:#17284C;}
	.st70{fill:#3B9ACC;}
	.st71{fill:#151A2F;}
	.st72{fill:#344269;}
	.st73{fill:#21CBFF;}
	.st74{fill:#2D2D2D;}
	.st75{fill:#00233D;}
	.st76{fill:#0062BF;}
	.st77{fill:#F9B23E;}
	.st78{fill:#DE5C6E;}
	.st79{fill:#F88900;}
	.st80{fill:#EC555E;}
	.st81{fill:#B8D75C;}
	.st82{fill:#D5E400;}
	.st83{fill:#00969C;}
	.st84{fill:#BE1004;}
	.st85{fill:#00C6DD;}
	.st86{fill:#151037;}
	.st87{fill:#0078C6;}
	.st88{fill:#F0DA67;}
	.st89{fill:#EC5005;}
	.st90{fill:#686DB2;}
	.st91{fill:#EABE51;}
	.st92{fill:#333245;}
	.st93{fill:#2C398F;}
	.st94{fill:#FFFFFF;}
	.st95{fill:#1267FF;}
	.st96{fill:#00A7E9;}
	.st97{fill:#F00000;}
	.st98{fill-rule:evenodd;clip-rule:evenodd;fill:#FFFFFF;}
	.st99{opacity:0.498;fill:#FFFFFF;}
	.st100{opacity:0.6;fill:#FFFFFF;}
	.st101{opacity:0.8;fill:#FFFFFF;}
	.st102{fill:#FAFBF8;}
	.st103{fill:#925518;}
	.st104{opacity:0.5;fill:#FFFFFF;}
	.st105{fill:#D3BBA3;}
	.st106{fill:#62D0DD;}
	.st107{fill:#468CC4;}
	.st108{fill:#23A8DB;}
	.st109{fill:#5DD2EF;}
	.st110{fill:#DEE0E4;}
	.st111{opacity:0.3;fill:#FFFFFF;}
	.st112{fill:#FBB03B;}
	.st113{fill:#CD9A24;}
	.st114{fill:#FBCA3B;}
	.st115{fill:#C59B4D;}
	.st116{fill:#71AAD8;}
	.st117{fill:#418ECB;}
	.st118{fill:#D0E3F2;}
	.st119{fill:#E0BC66;}
	.st120{fill:#EAD299;}
	.st121{fill:#F5E9CC;}
	.st122{fill:#DDE8F6;}
	.st123{fill:#BCD1EE;}
	.st124{fill:#9ABAE5;}
	.st125{fill:#78A2DC;}
	.st126{fill:#578BD4;}
	.st127{fill:#3574CB;}
	.st128{fill:#00FFFF;}
	.st129{fill:#FAD7D6;}
	.st130{fill:#F18783;}
	.st131{fill:#F5AFAC;}
	.st132{fill:#CCEAF7;}
	.st133{fill:#66C0E8;}
	.st134{fill:#99D5EF;}
	.st135{fill:#54C719;}
	.st136{fill:#FDE0B2;}
	.st137{fill:#FBD18B;}
	.st138{fill:#FEF0D8;}
	.st139{fill:#A0B3BE;}
	.st140{fill:#3B474D;}
	.st141{fill:#E2A560;}
	.st142{fill:#E9BA5D;}
	.st143{fill:#010100;}
	.st144{fill:#C3C5E0;}
	.st145{fill:#F2D897;}
	.st146{fill:#FBF2DC;}
	.st147{fill:#FCC900;}
</style>
<g id="bgs">
	<path d="M32,16c0,4.4-1.6,8.2-4.7,11.3S20.4,32,16,32c-4.4,0-8.2-1.6-11.3-4.7S0,20.4,0,16S1.6,7.8,4.7,4.7S11.6,0,16,0
		s8.2,1.6,11.3,4.7S32,11.6,32,16z"/>
</g>
<g id="icons">
	<path class="st94" d="M24.9,12l-8.5-6.2c-0.2-0.2-0.5-0.2-0.7,0L7.1,12c-0.2,0.1-0.2,0.3-0.2,0.5v7c0,0.2,0.1,0.4,0.2,0.5l8.5,6.2
		c0.2,0.2,0.5,0.2,0.7,0l8.5-6.2c0.2-0.1,0.2-0.3,0.2-0.5v-7C25.1,12.3,25,12.1,24.9,12z M22.1,11.4h0.4c0.1,0,0.2,0.1,0.2,0.2
		s-0.1,0.2-0.2,0.2h-0.4c-0.1,0-0.2-0.1-0.2-0.2S22,11.4,22.1,11.4z M23.9,12.8c0.1,0,0.2,0.1,0.2,0.2s-0.1,0.2-0.2,0.2h-1.5
		l0.9,0.6c0.1,0.1,0.1,0.2,0.1,0.3c0,0.1-0.1,0.1-0.2,0.1c0,0-0.1,0-0.1,0l-1.5-0.9c-0.1,0-0.1-0.1-0.1-0.2s0.1-0.1,0.2-0.1H23.9z
		 M20.1,10.9l0.4-0.9c0-0.1,0.1-0.1,0.2-0.1c0.1,0,0.1,0,0.2,0.1l0.7,1c0.1,0.1,0,0.2-0.1,0.3c0,0-0.1,0-0.1,0c-0.1,0-0.1,0-0.2-0.1
		l-0.5-0.7l-0.3,0.5c0,0.1-0.2,0.1-0.3,0.1C20.1,11.2,20.1,11,20.1,10.9z M21.4,13.8v1.1c0,0.1-0.1,0.2-0.2,0.2S21,15,21,14.9v-1.1
		c0-0.1,0.1-0.2,0.2-0.2S21.4,13.7,21.4,13.8z M18.5,16.4v1h0.2c0.1,0,0.2,0.1,0.2,0.2s-0.1,0.2-0.2,0.2h-0.4
		c-0.1,0-0.2-0.1-0.2-0.2v-1.4c0-0.1,0.1-0.2,0.2-0.2H20c0.1,0,0.2,0.1,0.2,0.2s-0.1,0.2-0.2,0.2H18.5z M19.2,18.9
		c0,0.1-0.1,0.2-0.2,0.2h-0.4c-0.1,0-0.2-0.1-0.2-0.2s0.1-0.2,0.2-0.2H19C19.1,18.7,19.2,18.8,19.2,18.9z M17,13.3l0.6,0.3
		c0.1,0.1,0.1,0.2,0.1,0.3c0,0.1-0.1,0.1-0.2,0.1c0,0-0.1,0-0.1,0l-0.6-0.3L16,13.1c-0.1,0-0.1-0.1-0.1-0.2c0-0.1,0.1-0.1,0.2-0.2
		l1-0.2l1.1,0c0.1,0,0.2,0.1,0.2,0.2S18.3,13,18.1,13h-1l-0.5,0.1L17,13.3z M16.1,18c-0.1,0-0.2-0.1-0.2-0.2s0.1-0.2,0.2-0.2h0.4
		c0.1,0,0.2,0.1,0.2,0.2S16.6,18,16.5,18H16.1z M16.3,22.4L16,23c0,0.1-0.1,0.1-0.2,0.1c0,0-0.1,0-0.1,0c-0.1-0.1-0.1-0.2-0.1-0.3
		l0.3-0.6c0.1-0.1,0.2-0.1,0.3-0.1C16.3,22.2,16.4,22.3,16.3,22.4z M15.3,17c-0.1,0-0.2-0.1-0.2-0.2s0.1-0.2,0.2-0.2h1.3v-0.9
		l-0.4-0.1c-0.1,0-0.2-0.2-0.1-0.3c0-0.1,0.2-0.2,0.3-0.1l0.5,0.2c0.1,0,0.1,0.1,0.1,0.2v1.3c0,0.1-0.1,0.2-0.2,0.2H15.3z
		 M13.5,13.8c0-0.1,0.1-0.2,0.2-0.2s0.2,0.1,0.2,0.2v1.4l0.4-0.4l0.2-0.9c0-0.1,0.1-0.2,0.2-0.1c0.1,0,0.2,0.1,0.1,0.2l-0.2,1
		c0,0,0,0.1-0.1,0.1l-0.8,0.8c0,0-0.1,0.1-0.1,0.1c0,0-0.1,0-0.1,0c-0.1,0-0.1-0.1-0.1-0.2V13.8z M13.1,13c-0.1,0-0.2-0.1-0.2-0.2
		s0.1-0.2,0.2-0.2h0.4c0.1,0,0.2,0.1,0.2,0.2S13.6,13,13.5,13H13.1z M15.3,17.6c0.1,0,0.2,0.1,0.2,0.2S15.4,18,15.3,18h-1.2
		c-0.1,0-0.2-0.1-0.2-0.2s0.1-0.2,0.2-0.2H15.3z M15.4,12.1c0,0.1-0.1,0.2-0.2,0.2S15,12.3,15,12.1v-1c0-0.1,0.1-0.2,0.2-0.2
		s0.2,0.1,0.2,0.2V12.1z M15.4,14.6c0.1,0,0.2,0.1,0.2,0.2v0.8c0,0.1-0.1,0.2-0.2,0.2s-0.2-0.1-0.2-0.2v-0.8
		C15.2,14.7,15.3,14.6,15.4,14.6z M17.1,14.3c0.1,0,0.2,0,0.3,0.1l0.1,0.2c0,0.1,0,0.2-0.1,0.3c0,0-0.1,0-0.1,0
		c-0.1,0-0.2,0-0.2-0.1L17,14.6C16.9,14.5,17,14.4,17.1,14.3z M17,18.1c0-0.1,0.1-0.2,0.2-0.2s0.2,0.1,0.2,0.2v1.1
		c0,0.1-0.1,0.2-0.2,0.2S17,19.3,17,19.2V18.1z M18,14.7l0.2,0c0.1,0,0.2,0.1,0.1,0.2c0,0.1-0.1,0.2-0.2,0.2c0,0,0,0,0,0l-0.2,0
		c-0.1,0-0.2-0.1-0.1-0.2S17.9,14.7,18,14.7z M19.2,14.9c0-0.1,0.1-0.2,0.2-0.2h0.8c0.1,0,0.2,0.1,0.2,0.2s-0.1,0.2-0.2,0.2h-0.8
		C19.3,15.1,19.2,15,19.2,14.9z M20.1,17.2c0-0.1,0.1-0.2,0.2-0.2s0.2,0.1,0.2,0.2v0.4c0,0.1-0.1,0.2-0.2,0.2s-0.2-0.1-0.2-0.2V17.2
		z M20,12.7c0-0.1,0.1-0.2,0.2-0.2s0.2,0.1,0.2,0.2V14c0,0.1-0.1,0.2-0.2,0.2H19c-0.1,0-0.2-0.1-0.2-0.2l-0.1-0.5
		c0-0.1,0.1-0.2,0.2-0.2c0.1,0,0.2,0.1,0.2,0.2l0.1,0.4H20V12.7z M17.9,8.4l1.1-0.1c0.1,0,0.2,0.1,0.2,0.2c0,0.1-0.1,0.2-0.2,0.2
		l-0.5,0l1,0.7c0.1,0.1,0.1,0.2,0,0.3c0,0.1-0.1,0.1-0.2,0.1c0,0-0.1,0-0.1,0l-1.4-1c-0.1,0-0.1-0.1-0.1-0.2
		C17.7,8.5,17.8,8.4,17.9,8.4z M17.7,10.2l0.3,0.4c0,0,0.1,0.1,0.1,0.1v0.8l0.3,0.2l0.4-0.6v-0.6c0-0.1,0.1-0.2,0.2-0.2
		s0.2,0.1,0.2,0.2v0.6c0,0,0,0.1,0,0.1L18.6,12c0,0.1-0.1,0.1-0.2,0.1c0,0-0.1,0-0.1,0l-0.5-0.3c-0.1,0-0.1-0.1-0.1-0.2v-0.8
		l-0.3-0.3c-0.1-0.1-0.1-0.2,0-0.3C17.5,10.1,17.6,10.1,17.7,10.2z M17,7.3c0-0.1,0.1-0.2,0.2-0.2s0.2,0.1,0.2,0.2v0.4
		c0,0.1-0.1,0.2-0.2,0.2S17,7.8,17,7.7V7.3z M17,11.1c0,0.1,0,0.2-0.1,0.3l-0.3,0.1l-0.1,0.4c0,0.1-0.1,0.1-0.2,0.1c0,0,0,0-0.1,0
		c-0.1,0-0.2-0.1-0.1-0.2l0.1-0.5c0-0.1,0.1-0.1,0.1-0.1l0.4-0.2C16.9,11,17,11,17,11.1z M15.9,6.3c0-0.1,0.1-0.2,0.2-0.2
		s0.2,0.1,0.2,0.2v1c0,0.1-0.1,0.2-0.2,0.2s-0.2-0.1-0.2-0.2V6.3z M16,8.7c-0.1,0-0.2-0.1-0.1-0.2c0-0.1,0.1-0.2,0.2-0.1l0.5,0.1
		c0.1,0,0.2,0.1,0.2,0.2V10c0,0.1-0.1,0.2-0.2,0.2h-1.8c-0.1,0-0.2-0.1-0.2-0.2s0.1-0.2,0.2-0.2h1.6v-1L16,8.7z M14.3,7.8
		C14.3,7.8,14.3,7.7,14.3,7.8l0.4-0.5c0.1-0.1,0.2-0.1,0.3-0.1C15,7.2,15.1,7.4,15,7.5l-0.3,0.5l-0.1,0.4c0,0.1-0.1,0.1-0.2,0.1
		c0,0,0,0-0.1,0c-0.1,0-0.2-0.1-0.1-0.2L14.3,7.8z M12.6,9h1.4c0.1,0,0.2,0.1,0.2,0.2s-0.1,0.2-0.2,0.2h-1.4c-0.1,0-0.2-0.1-0.2-0.2
		S12.5,9,12.6,9z M14.1,10.7c0.1,0,0.2,0.1,0.2,0.2s-0.1,0.2-0.2,0.2h-1.3l0.7,0.5c0.1,0.1,0.1,0.2,0,0.3c0,0.1-0.1,0.1-0.2,0.1
		c0,0-0.1,0-0.1,0L12,11.1C12,11,11.9,10.9,12,10.8c0-0.1,0.1-0.1,0.2-0.1H14.1z M10.7,15.5c-0.1-0.1-0.1-0.2,0-0.3
		c0.1-0.1,0.2-0.1,0.3,0l0.4,0.4c0,0,0.1,0.1,0.1,0.1v0.8l0.3,0l0.4-1.3c0-0.1,0.1-0.2,0.3-0.1c0.1,0,0.2,0.1,0.1,0.3l-0.5,1.5
		C12.1,17,12,17,12,17c0,0,0,0,0,0L11.3,17c-0.1,0-0.2-0.1-0.2-0.2v-0.9L10.7,15.5z M10.6,14.5c-0.1,0-0.2-0.1-0.2-0.2
		s0.1-0.2,0.2-0.2h1.6c0.1,0,0.2,0.1,0.2,0.2s-0.1,0.2-0.2,0.2H10.6z M11.8,9.5c0-0.1,0.1-0.2,0.2-0.2s0.2,0.1,0.2,0.2V10
		c0,0.1-0.1,0.2-0.2,0.2s-0.2-0.1-0.2-0.2V9.5z M11.4,11.9l0.5,0.7c0.1,0.1,0,0.2,0,0.3c-0.1,0.1-0.2,0-0.3,0l-0.4-0.5l-0.5,0.9
		c0,0.1-0.1,0.1-0.2,0.1c0,0-0.1,0-0.1,0c-0.1-0.1-0.1-0.2-0.1-0.3l0.7-1.1c0-0.1,0.1-0.1,0.2-0.1C11.3,11.9,11.4,11.9,11.4,11.9z
		 M10.3,10.7H11c0.1,0,0.2,0.1,0.2,0.2s-0.1,0.2-0.2,0.2h-0.7c-0.1,0-0.2-0.1-0.2-0.2S10.2,10.7,10.3,10.7z M9.9,14.9
		c0.1,0,0.2,0.1,0.2,0.2v1.2c0,0.1-0.1,0.2-0.2,0.2s-0.2-0.1-0.2-0.2v-1.2C9.7,15,9.8,14.9,9.9,14.9z M7.6,13.4
		C7.6,13.4,7.6,13.4,7.6,13.4L8,12.7c0-0.1,0.1-0.1,0.2-0.1h1.4c0.1,0,0.2,0.1,0.2,0.2S9.7,13,9.6,13H8.3L8,13.5v0.5L8.3,14
		c0.1,0,0.2,0.1,0.1,0.2c0,0.1-0.1,0.2-0.2,0.2c0,0,0,0,0,0l-0.5-0.1c-0.1,0-0.2-0.1-0.2-0.2V13.4z M8.9,15.8c0,0.1-0.1,0.2-0.2,0.2
		H8.5c-0.1,0-0.2-0.1-0.2-0.2s0.1-0.2,0.2-0.2h0.2C8.8,15.6,8.9,15.7,8.9,15.8z M7.6,18.2c0-0.1,0.1-0.2,0.2-0.2h1.3l-0.4-0.3
		c-0.1-0.1-0.1-0.2,0-0.3c0.1-0.1,0.2-0.1,0.3,0l0.9,0.7c0.1,0.1,0.1,0.1,0.1,0.2c0,0.1-0.1,0.1-0.2,0.1H7.8
		C7.7,18.4,7.6,18.3,7.6,18.2z M10.7,19.9H9.1c-0.1,0-0.2-0.1-0.2-0.2s0.1-0.2,0.2-0.2h1.6c0.1,0,0.2,0.1,0.2,0.2
		S10.8,19.9,10.7,19.9z M10.9,18.1c0-0.1,0-0.1,0.1-0.2l1-0.6c0.1-0.1,0.2,0,0.3,0.1c0.1,0.1,0,0.2-0.1,0.3l-0.7,0.4l0.2,0.1
		l0.5,0.3c0.1,0.1,0.1,0.2,0.1,0.3c0,0.1-0.1,0.1-0.2,0.1c0,0-0.1,0-0.1,0l-0.5-0.3L11,18.3C10.9,18.2,10.9,18.2,10.9,18.1z
		 M11.2,19.9v-0.2c0-0.1,0.1-0.2,0.2-0.2s0.2,0.1,0.2,0.2v0.2c0,0.1-0.1,0.2-0.2,0.2S11.2,20,11.2,19.9z M12.8,21.9
		c0,0.1-0.1,0.1-0.2,0.1h-0.9c-0.1,0-0.2-0.1-0.2-0.2s0.1-0.2,0.2-0.2H12l-0.7-0.5c-0.1-0.1-0.1-0.2,0-0.3c0.1-0.1,0.2-0.1,0.3,0
		l1.2,0.9C12.8,21.8,12.8,21.8,12.8,21.9z M12.9,19.8c0,0.1-0.1,0.2-0.2,0.2s-0.2-0.1-0.2-0.2v-0.7c0-0.1,0.1-0.2,0.2-0.2
		s0.2,0.1,0.2,0.2V19.8z M12.9,16.8c0-0.1,0.1-0.2,0.2-0.2h0.7c0.1,0,0.2,0.1,0.2,0.2S13.9,17,13.8,17h-0.7C13,17,12.9,17,12.9,16.8
		z M13.5,21.1c0,0.1-0.2,0.1-0.3,0.1s-0.1-0.2-0.1-0.3l0.4-0.9c0-0.1,0.1-0.1,0.2-0.1c0.1,0,0.1,0,0.2,0.1l0.6,1
		c0.1,0.1,0,0.2-0.1,0.3c0,0-0.1,0-0.1,0c-0.1,0-0.1,0-0.2-0.1l-0.4-0.7L13.5,21.1z M14.6,23.8c0,0.1-0.1,0.2-0.2,0.2
		s-0.2-0.1-0.2-0.2v-1.4c0-0.1,0.1-0.2,0.2-0.2s0.2,0.1,0.2,0.2V23.8z M14.8,19.7c0,0.1-0.1,0.2-0.2,0.2s-0.2-0.1-0.2-0.2v-0.4
		c0-0.1,0-0.1,0.1-0.1c0,0,0.1-0.1,0.1-0.1l1.4,0.1c0.1,0,0.2,0.1,0.2,0.2v1.3c0,0.1-0.1,0.2-0.2,0.2s-0.2-0.1-0.2-0.2v-1.2l-1,0
		V19.7z M15.1,21.7c0-0.1,0.1-0.2,0.2-0.2h0.3c0.1,0,0.2,0.1,0.2,0.2s-0.1,0.2-0.2,0.2h-0.3C15.2,21.9,15.1,21.8,15.1,21.7z
		 M17.1,24.5c0,0.1-0.1,0.2-0.2,0.2h-1.4c-0.1,0-0.2-0.1-0.2-0.2v-0.3c0-0.1,0.1-0.2,0.2-0.2s0.2,0.1,0.2,0.2v0.1h1v-0.9
		c0-0.1,0.1-0.2,0.2-0.2s0.2,0.1,0.2,0.2V24.5z M17.3,22.5C17.3,22.5,17.3,22.5,17.3,22.5c-0.1,0-0.2-0.1-0.2-0.2l-0.1-2
		c0-0.1,0.1-0.2,0.2-0.2c0.1,0,0.2,0.1,0.2,0.2l0.1,1.4l0.9-1.3c0.1-0.1,0.2-0.1,0.3-0.1c0.1,0.1,0.1,0.2,0.1,0.3l-1.2,1.8
		C17.5,22.5,17.4,22.5,17.3,22.5z M18.9,23.2h-1c-0.1,0-0.2-0.1-0.2-0.2s0.1-0.2,0.2-0.2h1c0.1,0,0.2,0.1,0.2,0.2S19,23.2,18.9,23.2
		z M19.1,22.2h-0.2c-0.1,0-0.2-0.1-0.2-0.2s0.1-0.2,0.2-0.2h0.2c0.1,0,0.2,0.1,0.2,0.2S19.2,22.2,19.1,22.2z M21.2,21.5h-1.6
		c-0.1,0-0.2-0.1-0.2-0.2s0.1-0.2,0.2-0.2h1.6c0.1,0,0.2,0.1,0.2,0.2S21.3,21.5,21.2,21.5z M21.4,19.4
		C21.4,19.5,21.4,19.5,21.4,19.4L21,20.1c0,0.1-0.1,0.1-0.2,0.1h-0.5c-0.1,0-0.2-0.1-0.2-0.2l-0.1-0.9l-0.3-0.5
		c-0.1-0.1,0-0.2,0.1-0.3c0.1-0.1,0.2,0,0.3,0.1l0.3,0.5c0,0,0,0.1,0,0.1l0,0.8h0.2l0.3-0.5l0.1-0.8c0-0.1,0.1-0.2,0.2-0.2
		c0.1,0,0.2,0.1,0.2,0.2L21.4,19.4z M22.8,20.3c0,0.1-0.1,0.2-0.2,0.2s-0.2-0.1-0.2-0.2v-1c0-0.1,0.1-0.2,0.2-0.2s0.2,0.1,0.2,0.2
		V20.3z M22.8,18.5h-0.4c-0.1,0-0.2-0.1-0.2-0.2s0.1-0.2,0.2-0.2h0.4c0.1,0,0.2,0.1,0.2,0.2S22.9,18.5,22.8,18.5z M23.2,17.5h-1.5
		c-0.1,0-0.2-0.1-0.2-0.2s0.1-0.2,0.2-0.2h1.5c0.1,0,0.2,0.1,0.2,0.2S23.3,17.5,23.2,17.5z M24.2,19l-0.4,0.8c0,0.1-0.1,0.1-0.2,0.1
		c0,0-0.1,0-0.1,0c-0.1,0-0.1-0.2-0.1-0.3l0.4-0.8c0-0.1,0.2-0.1,0.3-0.1C24.2,18.8,24.3,18.9,24.2,19z M24.5,16.2
		c0,0.1-0.1,0.2-0.2,0.2h-1.1c0,0-0.1,0-0.1,0L22.7,16c-0.1-0.1-0.1-0.2,0-0.3c0.1-0.1,0.2-0.1,0.3,0l0.3,0.3h0.9v-1.5
		c0-0.1,0.1-0.2,0.2-0.2s0.2,0.1,0.2,0.2V16.2z"/>
</g>
</svg>
