<?xml version="1.0" encoding="utf-8"?>
<!-- Generator: Adobe Illustrator 21.1.0, SVG Export Plug-In . SVG Version: 6.00 Build 0)  -->
<svg version="1.1" xmlns="http://www.w3.org/2000/svg" xmlns:xlink="http://www.w3.org/1999/xlink" x="0px" y="0px"
	 viewBox="0 0 32 32" style="enable-background:new 0 0 32 32;" xml:space="preserve">
<style type="text/css">
	.st0{fill:#020100;}
	.st1{fill:#27A3F3;}
	.st2{fill:#0666FF;}
	.st3{fill:#1FC5C9;}
	.st4{fill:#F4BB0B;}
	.st5{fill:#F4D029;}
	.st6{fill:#152743;}
	.st7{fill:#0652D9;}
	.st8{fill:#CC1E46;}
	.st9{fill:#586F81;}
	.st10{fill:#D14071;}
	.st11{fill:#5C6DED;}
	.st12{fill:#602453;}
	.st13{fill:#302C2C;}
	.st14{fill:#8300FF;}
	.st15{fill:#FF9A1F;}
	.st16{fill:#48606E;}
	.st17{fill:#4C1D57;}
	.st18{fill:#002E64;}
	.st19{fill:#504C4C;}
	.st20{fill:#CB0B00;}
	.st21{fill:#007A90;}
	.st22{fill:#00FFBA;}
	.st23{fill:#404040;}
	.st24{fill:#00BFEC;}
	.st25{fill:#2B5EBB;}
	.st26{fill:#0B0E2D;}
	.st27{fill:#1347E8;}
	.st28{fill:#F1385B;}
	.st29{fill:#188C92;}
	.st30{fill:#666666;}
	.st31{fill:#384A77;}
	.st32{fill:#01A6FF;}
	.st33{fill:#136485;}
	.st34{fill:#1BEEF4;}
	.st35{fill:#0038C8;}
	.st36{fill:#05BCA9;}
	.st37{fill:#000D2B;}
	.st38{fill:#1B1F2B;}
	.st39{fill:#FFC04F;}
	.st40{fill:#5DAA79;}
	.st41{fill:#3D3C3A;}
	.st42{fill:#3A4DA5;}
	.st43{fill:#FFCA00;}
	.st44{fill:#205174;}
	.st45{fill:#00C6FF;}
	.st46{fill:#F59100;}
	.st47{fill:#202346;}
	.st48{fill:#101A1F;}
	.st49{fill:#0D4265;}
	.st50{fill:#004ADF;}
	.st51{fill:#0B8BCB;}
	.st52{fill:#A8E0D1;}
	.st53{fill:#00C099;}
	.st54{fill:#0078FF;}
	.st55{fill:#FC3A81;}
	.st56{fill:#0B1529;}
	.st57{fill:#84BD39;}
	.st58{fill:#7F04FF;}
	.st59{fill:#FF637B;}
	.st60{fill:#2F2F2F;}
	.st61{fill:#4C6F8C;}
	.st62{fill:#00A6C4;}
	.st63{fill:#2683FF;}
	.st64{fill:#E53431;}
	.st65{fill:#3AB03E;}
	.st66{fill:#FFD800;}
	.st67{fill:#2CD3E1;}
	.st68{fill:#A44551;}
	.st69{fill:#1E1F25;}
	.st70{fill:#1B75BC;}
	.st71{fill:#2B1544;}
	.st72{fill:#B30D23;}
	.st73{fill:#3C5BE0;}
	.st74{fill:#6916FF;}
	.st75{fill:#6CFCCD;}
	.st76{fill:#383939;}
	.st77{fill:#454545;}
	.st78{fill:#D002B4;}
	.st79{fill:#F89022;}
	.st80{fill:#624DBF;}
	.st81{fill:#322C2C;}
	.st82{fill:#338BE5;}
	.st83{fill:#0FA9C9;}
	.st84{fill:#1061E3;}
	.st85{fill:#348F8D;}
	.st86{fill:#FD875E;}
	.st87{fill:#0B1C26;}
	.st88{fill:#16B9AD;}
	.st89{fill:#080D98;}
	.st90{fill:#B2A3F6;}
	.st91{fill:#399B32;}
	.st92{fill:#BEB5AF;}
	.st93{fill:#00B098;}
	.st94{fill:#00BFFF;}
	.st95{fill:#FFFFFF;}
	.st96{fill:#00FFDB;}
	.st97{fill-rule:evenodd;clip-rule:evenodd;fill:#FFFFFF;}
	.st98{fill:#C4B652;}
	.st99{fill:#00D4AF;}
	.st100{opacity:0.5;fill:#FFFFFF;}
	.st101{opacity:0.698;fill:#FFFFFF;}
	.st102{fill:#98CAD3;}
	.st103{fill:#BFDEE2;}
	.st104{opacity:0.498;fill:#FFFFFF;}
	.st105{fill:#FFFFFF;fill-opacity:0.6;}
	.st106{fill:#FFFFFF;fill-opacity:0.8;}
	.st107{fill:#FFFFFF;fill-opacity:0.4;}
	.st108{fill:#CCCCCC;}
	.st109{fill:#0078EA;}
	.st110{fill:#FEFEFE;}
	.st111{fill:#35322F;}
	.st112{fill:#F57E24;}
	.st113{fill:#D8A87D;}
	.st114{fill:#D7D1C8;}
	.st115{fill:#00DFC7;}
	.st116{fill:#FBD399;}
	.st117{fill:#FDE9CC;}
	.st118{fill:#F7A733;}
	.st119{fill:#F9BD66;}
	.st120{fill:#1E6DD8;}
	.st121{fill:#6BD756;}
	.st122{fill:#99E6D6;}
	.st123{fill:#66D9C2;}
	.st124{fill:#CCF2EB;}
	.st125{fill:#5ECDF7;}
</style>
<g id="bgs">
	<circle id="bg_71_" class="st27" cx="16" cy="16" r="16"/>
</g>
<g id="icons">
	<path class="st95" d="M16.9,19.8c0.2,0,0.4,0,0.6-0.1l-0.4-0.4l-0.3-0.3c-0.1-0.2-0.2-0.4,0-0.5s0.4-0.1,0.5,0l0.3,0.3l0.5,0.5
		c0,0,0,0,0.1-0.1c0.5-0.5,0.7-0.9,0.6-1.9c0-0.1,0-0.1,0-1.3c0-0.2,0-0.3,0-0.3c0,0,0-0.4,0-0.7c0-0.4,0-0.3,0-0.3
		c0-1.1-0.1-2.1-0.4-2.6c-0.2-0.3-0.4-0.6-1.3-0.8c-0.2,0-0.9-0.1-1.2-0.1h-0.1c-0.3,0-1.1,0-1.3,0.1c-0.9,0.2-1.1,0.5-1.3,0.8
		c-0.3,0.4-0.4,1.4-0.4,2.6c0,0.1,0-0.1,0,0.3c0,0.3,0,0.7,0,0.7c0,0,0,0.1,0,0.3c0,1.2,0,1.2,0,1.3c0,1,0.2,1.4,0.6,1.9
		c0.4,0.5,1,0.5,1.3,0.5c0,0,0.1,0,0.1,0l0,0L16.9,19.8L16.9,19.8C16.8,19.8,16.9,19.8,16.9,19.8z M19.5,20.7L19.5,20.7
		c0.1,0.2,0.2,0.4,0,0.5c-0.1,0.1-0.4,0.1-0.5,0v0L18.7,21l-0.6-0.6c-0.4,0.2-0.9,0.3-1.3,0.3H15c-1.6,0.1-3-0.7-2.9-3.3
		c0-0.1,0-1.5,0-1.6s0-0.9,0-1c0-2.5,0.6-3.7,2.3-4.1c0.2,0,1.3-0.1,1.5-0.1H16c0.2,0,1.1,0,1.3,0.1c1.7,0.4,2.3,1.6,2.3,4.1
		c0,0.1,0,0.9,0,1c0,0.1,0,1.5,0,1.6c0.1,1.4-0.3,2-1,2.6l0.5,0.5L19.5,20.7z M26.4,17.7l-0.9,0l0-0.4l0.9,0L26.4,17.7z M25.8,19.7
		L25,19.4l0.1-0.4l0.8,0.3L25.8,19.7z M24.9,21.5L24.2,21l0.2-0.3l0.7,0.5L24.9,21.5z M23.7,23l-0.6-0.6l0.3-0.3l0.6,0.6L23.7,23z
		 M22.3,24.4l-0.6-0.7l0.3-0.2l0.6,0.7L22.3,24.4z M20.6,25.4l-0.3-0.8l0.4-0.1l0.3,0.8L20.6,25.4z M18.7,26.1l-0.2-0.9l0.4-0.1
		l0.2,0.9L18.7,26.1z M16.7,26.5L16.7,26.5l-0.1-0.9l0.4,0l0,0l0.1,0.9L16.7,26.5z M6.7,16c0-5.1,4.2-9.3,9.3-9.3s9.3,4.2,9.3,9.3
		s-4.2,9.3-9.3,9.3S6.7,21.1,6.7,16z M14.7,26.4l0-0.9l0.4,0l0,0.9L14.7,26.4z M13.1,26.1L12.7,26l0.1-0.9l0.4,0.1L13.1,26.1z
		 M11.2,25.4l-0.3-0.2l0.4-0.8l0.3,0.2L11.2,25.4z M9.6,24.3l-0.3-0.2l0.5-0.7l0.3,0.2L9.6,24.3z M8.1,23l-0.3-0.3l0.6-0.6l0.3,0.3
		L8.1,23z M6.9,21.4l-0.2-0.3l0.8-0.4L7.7,21L6.9,21.4z M5.9,19.2L6.8,19l0.1,0.4L6,19.5L5.9,19.2z M5.5,17.3l0.9-0.1l0,0.4
		l-0.9,0.1L5.5,17.3z M5.4,15.2l0.9,0l0,0.4l-0.9,0L5.4,15.2z M5.7,13.3l0.9,0.1l-0.1,0.4l-0.9-0.1L5.7,13.3z M6.4,11.3l0.8,0.4
		L7.1,12l-0.8-0.4L6.4,11.3z M7.5,9.6l0.7,0.6l-0.2,0.3L7.3,9.9L7.5,9.6z M8.8,8.2l0.6,0.7L9.1,9.1L8.5,8.4L8.8,8.2z M10.4,6.9
		l0.5,0.7l-0.3,0.2l-0.5-0.7L10.4,6.9z M12.2,6.1l0.2,0.9L12,7l-0.2-0.9L12.2,6.1z M14.1,5.6l0.1,0.9l-0.4,0l-0.1-0.9L14.1,5.6z
		 M15.8,5.4h0.4v0.9h-0.4V5.4z M17.8,5.6l0.4,0l-0.1,0.9l-0.4,0L17.8,5.6z M19.7,6.1l0.4,0.1L19.8,7l-0.4-0.1L19.7,6.1z M21.5,6.9
		l0.3,0.2l-0.5,0.7L21,7.7L21.5,6.9z M23,8.2l0.3,0.2l-0.6,0.7l-0.3-0.2L23,8.2z M24.3,9.6l0.2,0.3l-0.7,0.6l-0.2-0.3L24.3,9.6z
		 M25.5,11.3l0.2,0.3L24.8,12l-0.2-0.3L25.5,11.3z M26.2,13.6l-0.9,0.1l-0.1-0.4l0.9-0.1L26.2,13.6z M26.4,15.6l-0.9,0l0-0.4l0.9,0
		L26.4,15.6z M16,5C9.9,5,5,9.9,5,16s4.9,11,11,11s11-4.9,11-11S22.1,5,16,5z"/>
</g>
</svg>
