<?xml version="1.0" encoding="utf-8"?>
<!-- Generator: Adobe Illustrator 21.1.0, SVG Export Plug-In . SVG Version: 6.00 Build 0)  -->
<svg version="1.1" xmlns="http://www.w3.org/2000/svg" xmlns:xlink="http://www.w3.org/1999/xlink" x="0px" y="0px"
	 viewBox="0 0 32 32" style="enable-background:new 0 0 32 32;" xml:space="preserve">
<style type="text/css">
	.st0{fill:#464645;}
	.st1{fill:#0000FF;}
	.st2{fill:#FF0000;}
	.st3{fill:#E9570F;}
	.st4{fill:#BAB9FF;}
	.st5{fill:#1C1C1C;}
	.st6{fill:#2F50B0;}
	.st7{fill:#CAAB60;}
	.st8{fill:#4096D0;}
	.st9{fill:#21C8B4;}
	.st10{fill:#002342;}
	.st11{fill:#005281;}
	.st12{fill:#F80000;}
	.st13{fill:#F55749;}
	.st14{fill:#272731;}
	.st15{fill:#FF4081;}
	.st16{fill:#FEBF51;}
	.st17{fill:#673300;}
	.st18{fill:#00A5E7;}
	.st19{fill:#4240A1;}
	.st20{fill:#185095;}
	.st21{fill:#BDDBEE;}
	.st22{fill:#044AAC;}
	.st23{fill:#346FCE;}
	.st24{fill:#24DD7B;}
	.st25{fill:#521C72;}
	.st26{fill:#DE1A80;}
	.st27{fill:#657BED;}
	.st28{fill:#2F3F54;}
	.st29{fill:#0097E8;}
	.st30{fill:#6382C2;}
	.st31{fill:#FF183D;}
	.st32{fill:#0F63D8;}
	.st33{fill:#253238;}
	.st34{fill:#0093A9;}
	.st35{fill:#008CBE;}
	.st36{fill:#2D9CDB;}
	.st37{fill:#E3A719;}
	.st38{fill:#5DC6BA;}
	.st39{fill:#333333;}
	.st40{fill:#363635;}
	.st41{fill:#D6395F;}
	.st42{fill:#F99600;}
	.st43{fill:#4D4D4F;}
	.st44{fill:#1272BE;}
	.st45{fill:#00CF54;}
	.st46{fill:#0092B5;}
	.st47{fill:#EA5C4F;}
	.st48{fill:#104FCA;}
	.st49{fill:#7B346E;}
	.st50{fill:none;stroke:#000000;stroke-width:0.1;stroke-miterlimit:10;}
	.st51{fill:#37DCD8;}
	.st52{fill:#C80000;}
	.st53{fill:#066EBE;}
	.st54{fill:#27BAE0;}
	.st55{fill:#CB8F00;}
	.st56{fill:#6AB87F;}
	.st57{fill:#B26FFF;}
	.st58{fill:#F4AE95;}
	.st59{fill:#F24748;}
	.st60{fill:#0351BE;}
	.st61{fill:#798E97;}
	.st62{fill:#E73730;}
	.st63{fill:#164B79;}
	.st64{fill:#0096D8;}
	.st65{fill:#47B4DD;}
	.st66{fill:#273D4B;}
	.st67{fill:#3E3A39;}
	.st68{fill:#39C0B5;}
	.st69{fill:#17284C;}
	.st70{fill:#3B9ACC;}
	.st71{fill:#151A2F;}
	.st72{fill:#344269;}
	.st73{fill:#21CBFF;}
	.st74{fill:#2D2D2D;}
	.st75{fill:#00233D;}
	.st76{fill:#0062BF;}
	.st77{fill:#F9B23E;}
	.st78{fill:#DE5C6E;}
	.st79{fill:#F88900;}
	.st80{fill:#EC555E;}
	.st81{fill:#B8D75C;}
	.st82{fill:#D5E400;}
	.st83{fill:#00969C;}
	.st84{fill:#BE1004;}
	.st85{fill:#00C6DD;}
	.st86{fill:#151037;}
	.st87{fill:#0078C6;}
	.st88{fill:#F0DA67;}
	.st89{fill:#EC5005;}
	.st90{fill:#686DB2;}
	.st91{fill:#EABE51;}
	.st92{fill:#333245;}
	.st93{fill:#2C398F;}
	.st94{fill:#FFFFFF;}
	.st95{fill:#1267FF;}
	.st96{fill:#00A7E9;}
	.st97{fill:#F00000;}
	.st98{fill-rule:evenodd;clip-rule:evenodd;fill:#FFFFFF;}
	.st99{opacity:0.498;fill:#FFFFFF;}
	.st100{opacity:0.6;fill:#FFFFFF;}
	.st101{opacity:0.8;fill:#FFFFFF;}
	.st102{fill:#FAFBF8;}
	.st103{fill:#925518;}
	.st104{opacity:0.5;fill:#FFFFFF;}
	.st105{fill:#D3BBA3;}
	.st106{fill:#62D0DD;}
	.st107{fill:#468CC4;}
	.st108{fill:#23A8DB;}
	.st109{fill:#5DD2EF;}
	.st110{fill:#DEE0E4;}
	.st111{opacity:0.3;fill:#FFFFFF;}
	.st112{fill:#FBB03B;}
	.st113{fill:#CD9A24;}
	.st114{fill:#FBCA3B;}
	.st115{fill:#C59B4D;}
	.st116{fill:#71AAD8;}
	.st117{fill:#418ECB;}
	.st118{fill:#D0E3F2;}
	.st119{fill:#E0BC66;}
	.st120{fill:#EAD299;}
	.st121{fill:#F5E9CC;}
	.st122{fill:#DDE8F6;}
	.st123{fill:#BCD1EE;}
	.st124{fill:#9ABAE5;}
	.st125{fill:#78A2DC;}
	.st126{fill:#578BD4;}
	.st127{fill:#3574CB;}
	.st128{fill:#00FFFF;}
	.st129{fill:#FAD7D6;}
	.st130{fill:#F18783;}
	.st131{fill:#F5AFAC;}
	.st132{fill:#CCEAF7;}
	.st133{fill:#66C0E8;}
	.st134{fill:#99D5EF;}
	.st135{fill:#54C719;}
	.st136{fill:#FDE0B2;}
	.st137{fill:#FBD18B;}
	.st138{fill:#FEF0D8;}
	.st139{fill:#A0B3BE;}
	.st140{fill:#3B474D;}
	.st141{fill:#E2A560;}
	.st142{fill:#E9BA5D;}
	.st143{fill:#010100;}
	.st144{fill:#C3C5E0;}
	.st145{fill:#F2D897;}
	.st146{fill:#FBF2DC;}
	.st147{fill:#FCC900;}
</style>
<g id="bgs">
	<path class="st5" d="M32,16c0,4.4-1.6,8.2-4.7,11.3S20.4,32,16,32c-4.4,0-8.2-1.6-11.3-4.7S0,20.4,0,16S1.6,7.8,4.7,4.7
		S11.6,0,16,0s8.2,1.6,11.3,4.7S32,11.6,32,16z"/>
</g>
<g id="icons">
	<g>
		<path class="st94" d="M16,10c0.6,0,0.6,1.2,1.1,1.4c0,0.3-0.2,1.7-1.2,1.7c-0.9,0-1-1.1-1.1-1.7C15.6,11.1,15.3,10,16,10L16,10z
			 M18.6,11.4c0.2-0.2,0.3-0.6,0.4-1c0-0.1,0-0.4,0.3-0.4c0.3-0.1,0.9,1.2,1.4,1.4c0.2,0.8,0.1,1.6-0.6,1.7
			C19.3,13.2,18.8,12.1,18.6,11.4L18.6,11.4z M21.8,11.4c0.1-0.2,0.1-0.6,0-0.9c0-0.1-0.1-0.4,0.1-0.4c0.3,0,1.2,1.2,1.5,1.4
			c0.1,0.1,0.5,1.6-0.1,1.7C22.8,13.2,22.2,12.1,21.8,11.4L21.8,11.4z M13.1,10.4c0,0.4,0.1,0.8,0.4,1c-0.2,0.7-0.7,1.7-1.5,1.7
			c-0.6-0.1-0.7-1-0.6-1.7c0.6-0.2,1-1.4,1.4-1.4C13.1,10,13.1,10.3,13.1,10.4L13.1,10.4z M10.3,10.4c-0.1,0.4-0.2,0.7,0,0.9
			c-0.4,0.7-1,1.8-1.5,1.7c-0.6-0.1-0.1-1.6-0.1-1.7c0.4-0.2,1.2-1.4,1.5-1.4C10.4,10.1,10.3,10.4,10.3,10.4z M23.9,10.3
			c0.3,0,1.2,1.1,1.3,1.1c0.7,1,0.7,1.7,0.4,1.7c-0.4,0-1.2-1.6-1.3-1.9C24.3,10.9,23.6,10.3,23.9,10.3L23.9,10.3z M18.2,14.6
			c-0.9,0.1-1.2-0.8-1.3-1.5c0.3-0.2,0.6-0.7,0.7-1.6c0.2,0.1,0.5,0.1,0.7,0c0.2,0.6,0.5,1.3,1,1.7C19.1,13.9,18.8,14.5,18.2,14.6
			L18.2,14.6z M25.9,12.9c0.1-0.4-0.5-1.4-0.5-1.3c1,0.6,1.3,2.9,1.2,2.9C26.5,14.6,25.9,13.4,25.9,12.9L25.9,12.9z M23.9,13.1
			c0.1-0.2,0.2-0.7-0.2-1.6h0.2c0,0.1,0.9,1.6,1.2,1.7c0.1,0.7,0.1,1.4-0.2,1.4C24.5,14.6,24.3,14.3,23.9,13.1L23.9,13.1z
			 M21.9,14.6c-0.4,0.1-0.8-0.5-1.2-1.5c0.2-0.2,0.4-0.7,0.3-1.6c0.2,0.1,0.3,0.1,0.4,0c0.4,0.7,0.7,1.4,1.2,1.7
			C22.6,13.3,22.5,14.6,21.9,14.6L21.9,14.6z M20.4,13.4c0.2,0.6,0.7,1.2,1,1.4c-0.1,0.7-0.5,2.2-1.2,2.2c-0.9,0.1-1.2-1.1-1.3-2.2
			c0.4-0.2,0.6-0.7,0.7-1.4C19.8,13.5,20.1,13.5,20.4,13.4L20.4,13.4z M26.4,14.7c0.1,0.7-0.1,2.3-0.4,2.2c-0.3,0-0.6-2.3-0.6-2.3
			c0.1-0.2,0.2-0.6,0.2-1.3c0.1,0.1,0.2,0.1,0.2,0C26.1,14.2,26.4,14.7,26.4,14.7z M23.6,13.4c0,0.1,0.4,1.2,0.8,1.5
			c0,1.1-0.3,2.2-0.8,2.2c-0.6,0-0.8-1.2-1-2.3c0.2-0.2,0.4-0.6,0.4-1.4C23.3,13.5,23.4,13.5,23.6,13.4L23.6,13.4z M18.5,14.9
			c0.2,1.2,0.5,1.9,1,2.2c-0.1,0.2-0.5,1.6-1.4,1.6c-0.7,0.1-1-0.7-1.2-1.7c0.4-0.5,0.7-1.2,0.9-2.1C17.9,15,18.2,15,18.5,14.9
			L18.5,14.9z M26.4,17.2c0.3-0.5,0.2-2.1,0.3-2.2c0.2-0.1,0.7,2.7-0.2,3.7C26.4,18.7,26.4,17.2,26.4,17.2z M25.1,14.9
			c0.3,1.9,0.4,2,0.5,2.2c-0.3,1.2-0.6,1.6-0.9,1.6c-0.5,0-0.4-1-0.5-1.6c0.2-0.2,0.6-0.9,0.6-2.2C24.9,15,25,14.9,25.1,14.9
			L25.1,14.9z M22.9,17.2c-0.1,0.4-0.6,1.6-1.2,1.6c-0.4,0-0.7-0.6-0.8-1.6c0.3-0.2,0.7-0.9,0.7-2.2c0.2,0.1,0.3,0.1,0.5,0
			C22.4,16.1,22.6,16.8,22.9,17.2L22.9,17.2z M20.6,17.4c0.1,0.9,0.2,1.3,0.6,1.5c-0.1,0.3-0.7,1.6-1.4,1.7c-0.9,0.2-0.9-1-0.9-1.6
			c0.4-0.2,0.7-0.8,0.9-1.6C20,17.4,20.3,17.5,20.6,17.4z M26.1,17.5c0,0.5,0,1.3,0.1,1.5c-0.2,0.5-0.7,1.6-1.2,1.7
			c-0.3,0.1-0.2-0.3,0.1-1.7c0,0,0.4-0.4,0.7-1.6H26.1z M23.9,17.4c0,0.7,0.1,1.2,0.4,1.5c-0.2,0.6-1,1.8-1.5,1.8
			c-0.2,0-0.4-0.4-0.2-1.7c0.4-0.2,0.7-0.9,0.9-1.6C23.5,17.5,23.7,17.5,23.9,17.4L23.9,17.4z M18.3,19.1c0,0.7,0.2,1.4,0.6,1.9
			c-0.3,1.1-1.2,1.1-1.5,1c-0.4-0.1-0.6-0.5-0.7-1.1c0.5-0.4,0.7-1.2,0.9-1.7C17.9,19.2,18.1,19.2,18.3,19.1z M25.4,20.7
			c-0.2,0.2-0.5,0.4-0.7,0.8c-0.1,0.1,1.1,0.2,1.7-2.4C26.3,19,25.9,20.2,25.4,20.7L25.4,20.7z M24.4,19.1c0.1,0.1,0.2,0.1,0.3-0.1
			c-0.2,1.4-0.3,1.5-0.2,1.7c-0.4,0.8-0.9,1.1-1.4,1.1c-0.2,0-0.1-0.4,0.2-1C23.2,20.9,24,20.2,24.4,19.1z M22,19.1
			c-0.1,0.9-0.1,1.4,0.1,1.7c-0.2,0.5-0.9,1.2-1.6,1c-0.2-0.1-0.2-0.6-0.2-1c0.6-0.3,0.9-0.9,1.2-1.7C21.6,19.2,21.8,19.2,22,19.1z
			 M6.9,11.4c0.1-0.1,0.9-1.1,1.3-1.1c0.2,0.1-0.4,0.7-0.4,1c-0.2,0.3-1,1.9-1.3,1.9C6.3,13.1,6.3,12.3,6.9,11.4L6.9,11.4z
			 M15.2,13.1c-0.2,0.7-0.4,1.6-1.5,1.6c-0.6-0.1-0.9-0.8-1-1.4c0.6-0.4,0.9-1.2,1.1-1.7c0.2,0.1,0.5,0.1,0.7,0
			C14.7,12.4,15,12.8,15.2,13.1L15.2,13.1z M6.5,11.6c0.2-0.1-0.5,0.9-0.4,1.3c0.1,0.6-0.7,1.7-0.7,1.6C5.1,14.4,5.6,12.2,6.5,11.6z
			 M8.3,11.5c-0.3,0.9-0.2,1.3-0.1,1.6c-0.5,1.2-0.7,1.6-1.1,1.6c-0.4-0.1-0.4-0.8-0.2-1.4c0.4-0.2,1.2-1.7,1.2-1.7H8.3z M11.3,13.1
			c-0.4,1-0.7,1.6-1.2,1.6c-0.6,0-0.7-1.3-0.7-1.4c0.5-0.4,0.9-1.1,1.2-1.7H11C10.9,12.4,11.1,12.8,11.3,13.1L11.3,13.1z M10.8,14.7
			c0.2-0.1,0.7-0.8,1-1.4c0.2,0.1,0.5,0.1,0.8,0.1c0.1,0.7,0.3,1.1,0.7,1.4c-0.2,1.1-0.6,2.2-1.3,2.2C11.2,17,10.8,15.5,10.8,14.7z
			 M6.1,17c-0.4,0-0.6-1.6-0.4-2.3c0,0,0.4-0.6,0.6-1.4c0.1,0,0.2,0.1,0.2,0c-0.1,0.8,0.1,1.2,0.2,1.4C6.7,14.7,6.4,17,6.1,17
			L6.1,17z M7.6,14.7c0.5-0.2,0.8-1.2,0.9-1.4c0.2,0.1,0.3,0.1,0.5,0c0,0.8,0.2,1.2,0.4,1.3C9.2,15.7,9,17,8.4,17
			C7.9,17,7.7,15.9,7.6,14.7L7.6,14.7z M12.7,17.2c0.4-0.3,0.7-1,1-2.2c0.2,0.1,0.6,0.1,0.7,0c0.1,0.9,0.4,1.6,0.9,2.1
			c-0.1,1-0.6,1.7-1.2,1.7C13.1,18.7,12.7,17.4,12.7,17.2z M5.3,15c0.2,0.1,0.1,1.7,0.3,2.2c0,0,0,1.6-0.1,1.4
			C4.6,17.5,5.2,14.9,5.3,15z M6.5,17.2c0.1-0.2,0.1-0.3,0.5-2.2h0.3c0,1.3,0.4,1.9,0.6,2.2c-0.1,0.7,0.1,1.6-0.5,1.6
			C7.1,18.7,6.8,18.4,6.5,17.2z M10.3,18.7c-0.7,0-1.2-1.2-1.2-1.6c0.4-0.4,0.6-1.1,0.7-2.2c0.1,0.1,0.3,0.1,0.5,0
			c0.1,1.3,0.4,1.9,0.7,2.2C11,18.2,10.7,18.7,10.3,18.7z M10.9,18.9c0.3-0.2,0.5-0.7,0.6-1.5c0.3,0.1,0.6,0.1,0.8,0
			c0.2,0.8,0.5,1.3,0.9,1.6c0,0.7-0.1,1.8-0.9,1.6C11.6,20.4,10.9,19.2,10.9,18.9L10.9,18.9z M6,18.9C6,18.8,6,18,6.1,17.4h0.2
			C6.7,18.6,7.1,19,7.1,19c0.3,1.4,0.3,1.8,0.1,1.7C6.6,20.5,6.2,19.4,6,18.9z M7.9,18.9c0.2-0.3,0.3-0.8,0.4-1.5
			c0.2,0.1,0.4,0.1,0.6,0C9,18.2,9.3,18.7,9.7,19c0.1,1.3,0,1.7-0.2,1.7C8.9,20.7,8.1,19.5,7.9,18.9L7.9,18.9z M13.1,20.9
			c0.4-0.3,0.5-1,0.6-1.9c0.2,0.1,0.6,0.1,0.7,0c0.1,0.6,0.3,1.4,0.9,1.7c-0.1,0.7-0.2,1.1-0.7,1.1C14.3,22,13.5,22,13.1,20.9z
			 M5.7,19.2c0.6,2.6,1.8,2.5,1.7,2.4c-0.2-0.4-0.5-0.6-0.7-0.8C6.1,20.2,5.7,19,5.7,19.2L5.7,19.2z M7.3,19.2c0.1,0,0.2,0,0.3,0.1
			C8.1,20.4,8.8,21,8.8,21C9,21.5,9.2,22,9,22c-0.6,0.1-1-0.3-1.4-1.1C7.6,20.7,7.6,20.5,7.3,19.2L7.3,19.2z M9.9,20.9
			c0.2-0.3,0.2-0.8,0.1-1.7c0.2,0.1,0.4,0.1,0.5,0c0.4,0.9,0.7,1.4,1.2,1.7c0.1,0.4,0,0.9-0.2,1C10.8,22.2,10.2,21.4,9.9,20.9
			L9.9,20.9z M14.8,18.9c0.4-0.3,0.6-0.8,0.9-1.6c0.2,0.1,0.6,0.1,0.9,0c0.2,0.9,0.4,1.4,0.8,1.7c-0.1,1-0.7,1.7-1.3,1.7
			C15.3,20.7,14.9,19.4,14.8,18.9L14.8,18.9z M15.7,13.4c0.3,0.1,0.6,0.1,0.9,0c0.2,0.6,0.5,1.2,0.8,1.4C17.2,16.4,16.6,17,16,17
			c-0.9,0-1.3-1.8-1.3-2.1C14.9,14.7,15.5,14.4,15.7,13.4L15.7,13.4z"/>
	</g>
</g>
</svg>
