<?xml version="1.0" encoding="utf-8"?>
<!-- Generator: Adobe Illustrator 21.1.0, SVG Export Plug-In . SVG Version: 6.00 Build 0)  -->
<svg version="1.1" xmlns="http://www.w3.org/2000/svg" xmlns:xlink="http://www.w3.org/1999/xlink" x="0px" y="0px"
	 viewBox="0 0 32 32" style="enable-background:new 0 0 32 32;" xml:space="preserve">
<style type="text/css">
	.st0{fill:#464645;}
	.st1{fill:#0000FF;}
	.st2{fill:#FF0000;}
	.st3{fill:#E9570F;}
	.st4{fill:#BAB9FF;}
	.st5{fill:#1C1C1C;}
	.st6{fill:#2F50B0;}
	.st7{fill:#CAAB60;}
	.st8{fill:#4096D0;}
	.st9{fill:#21C8B4;}
	.st10{fill:#002342;}
	.st11{fill:#005281;}
	.st12{fill:#F80000;}
	.st13{fill:#F55749;}
	.st14{fill:#272731;}
	.st15{fill:#FF4081;}
	.st16{fill:#FEBF51;}
	.st17{fill:#673300;}
	.st18{fill:#00A5E7;}
	.st19{fill:#4240A1;}
	.st20{fill:#185095;}
	.st21{fill:#BDDBEE;}
	.st22{fill:#044AAC;}
	.st23{fill:#346FCE;}
	.st24{fill:#24DD7B;}
	.st25{fill:#521C72;}
	.st26{fill:#DE1A80;}
	.st27{fill:#657BED;}
	.st28{fill:#2F3F54;}
	.st29{fill:#0097E8;}
	.st30{fill:#6382C2;}
	.st31{fill:#FF183D;}
	.st32{fill:#0F63D8;}
	.st33{fill:#253238;}
	.st34{fill:#0093A9;}
	.st35{fill:#008CBE;}
	.st36{fill:#2D9CDB;}
	.st37{fill:#E3A719;}
	.st38{fill:#5DC6BA;}
	.st39{fill:#333333;}
	.st40{fill:#363635;}
	.st41{fill:#D6395F;}
	.st42{fill:#F99600;}
	.st43{fill:#4D4D4F;}
	.st44{fill:#1272BE;}
	.st45{fill:#00CF54;}
	.st46{fill:#0092B5;}
	.st47{fill:#EA5C4F;}
	.st48{fill:#104FCA;}
	.st49{fill:#7B346E;}
	.st50{fill:none;stroke:#000000;stroke-width:0.1;stroke-miterlimit:10;}
	.st51{fill:#37DCD8;}
	.st52{fill:#C80000;}
	.st53{fill:#066EBE;}
	.st54{fill:#27BAE0;}
	.st55{fill:#CB8F00;}
	.st56{fill:#6AB87F;}
	.st57{fill:#B26FFF;}
	.st58{fill:#F4AE95;}
	.st59{fill:#F24748;}
	.st60{fill:#0351BE;}
	.st61{fill:#798E97;}
	.st62{fill:#E73730;}
	.st63{fill:#164B79;}
	.st64{fill:#0096D8;}
	.st65{fill:#47B4DD;}
	.st66{fill:#273D4B;}
	.st67{fill:#3E3A39;}
	.st68{fill:#39C0B5;}
	.st69{fill:#17284C;}
	.st70{fill:#3B9ACC;}
	.st71{fill:#151A2F;}
	.st72{fill:#344269;}
	.st73{fill:#21CBFF;}
	.st74{fill:#2D2D2D;}
	.st75{fill:#00233D;}
	.st76{fill:#0062BF;}
	.st77{fill:#F9B23E;}
	.st78{fill:#DE5C6E;}
	.st79{fill:#F88900;}
	.st80{fill:#EC555E;}
	.st81{fill:#B8D75C;}
	.st82{fill:#D5E400;}
	.st83{fill:#00969C;}
	.st84{fill:#BE1004;}
	.st85{fill:#00C6DD;}
	.st86{fill:#151037;}
	.st87{fill:#0078C6;}
	.st88{fill:#F0DA67;}
	.st89{fill:#EC5005;}
	.st90{fill:#686DB2;}
	.st91{fill:#EABE51;}
	.st92{fill:#333245;}
	.st93{fill:#2C398F;}
	.st94{fill:#FFFFFF;}
	.st95{fill:#1267FF;}
	.st96{fill:#00A7E9;}
	.st97{fill:#F00000;}
	.st98{fill-rule:evenodd;clip-rule:evenodd;fill:#FFFFFF;}
	.st99{opacity:0.498;fill:#FFFFFF;}
	.st100{opacity:0.6;fill:#FFFFFF;}
	.st101{opacity:0.8;fill:#FFFFFF;}
	.st102{fill:#FAFBF8;}
	.st103{fill:#925518;}
	.st104{opacity:0.5;fill:#FFFFFF;}
	.st105{fill:#D3BBA3;}
	.st106{fill:#62D0DD;}
	.st107{fill:#468CC4;}
	.st108{fill:#23A8DB;}
	.st109{fill:#5DD2EF;}
	.st110{fill:#DEE0E4;}
	.st111{opacity:0.3;fill:#FFFFFF;}
	.st112{fill:#FBB03B;}
	.st113{fill:#CD9A24;}
	.st114{fill:#FBCA3B;}
	.st115{fill:#C59B4D;}
	.st116{fill:#71AAD8;}
	.st117{fill:#418ECB;}
	.st118{fill:#D0E3F2;}
	.st119{fill:#E0BC66;}
	.st120{fill:#EAD299;}
	.st121{fill:#F5E9CC;}
	.st122{fill:#DDE8F6;}
	.st123{fill:#BCD1EE;}
	.st124{fill:#9ABAE5;}
	.st125{fill:#78A2DC;}
	.st126{fill:#578BD4;}
	.st127{fill:#3574CB;}
	.st128{fill:#00FFFF;}
	.st129{fill:#FAD7D6;}
	.st130{fill:#F18783;}
	.st131{fill:#F5AFAC;}
	.st132{fill:#CCEAF7;}
	.st133{fill:#66C0E8;}
	.st134{fill:#99D5EF;}
	.st135{fill:#54C719;}
	.st136{fill:#FDE0B2;}
	.st137{fill:#FBD18B;}
	.st138{fill:#FEF0D8;}
	.st139{fill:#A0B3BE;}
	.st140{fill:#3B474D;}
	.st141{fill:#E2A560;}
	.st142{fill:#E9BA5D;}
	.st143{fill:#010100;}
	.st144{fill:#C3C5E0;}
	.st145{fill:#F2D897;}
	.st146{fill:#FBF2DC;}
	.st147{fill:#FCC900;}
</style>
<g id="bgs">
	<path class="st53" d="M32,16c0,4.4-1.6,8.2-4.7,11.3S20.4,32,16,32c-4.4,0-8.2-1.6-11.3-4.7S0,20.4,0,16S1.6,7.8,4.7,4.7
		S11.6,0,16,0s8.2,1.6,11.3,4.7S32,11.6,32,16z"/>
</g>
<g id="icons">
	<g>
		<g>
			<circle class="st94" cx="25.6" cy="6.9" r="0.7"/>
		</g>
		<g>
			<circle class="st94" cx="24.8" cy="10" r="0.7"/>
		</g>
		<g>
			<circle class="st94" cx="24.8" cy="12.7" r="0.7"/>
		</g>
		<g>
			<circle class="st94" cx="22" cy="15" r="0.7"/>
		</g>
		<g>
			<circle class="st94" cx="19.1" cy="16.3" r="0.7"/>
		</g>
		<g>
			<circle class="st94" cx="17.1" cy="11.2" r="0.7"/>
		</g>
		<g>
			<circle class="st94" cx="15.5" cy="7.6" r="0.7"/>
		</g>
		<g>
			<circle class="st94" cx="17.6" cy="5" r="0.7"/>
		</g>
		<g>
			<circle class="st94" cx="20.6" cy="5.8" r="0.7"/>
		</g>
		<g>
			<circle class="st94" cx="23" cy="6.3" r="0.7"/>
		</g>
		<g>
			<circle class="st94" cx="14.7" cy="5" r="0.7"/>
		</g>
		<g>
			<circle class="st94" cx="11.8" cy="5.8" r="0.7"/>
		</g>
		<g>
			<circle class="st94" cx="9.2" cy="6.3" r="0.7"/>
		</g>
		<g>
			<circle class="st94" cx="6.7" cy="6.9" r="0.7"/>
		</g>
		<g>
			<circle class="st94" cx="7.6" cy="10" r="0.7"/>
		</g>
		<g>
			<circle class="st94" cx="7.6" cy="12.8" r="0.7"/>
		</g>
		<g>
			<circle class="st94" cx="16.9" cy="13.8" r="0.7"/>
		</g>
		<g>
			<circle class="st94" cx="14.7" cy="10.2" r="0.7"/>
		</g>
		<g>
			<circle class="st94" cx="13.1" cy="15.4" r="0.7"/>
		</g>
		<g>
			<circle class="st94" cx="13.6" cy="18.8" r="0.7"/>
		</g>
		<g>
			<circle class="st94" cx="10.4" cy="13.3" r="0.7"/>
		</g>
		<g>
			<circle class="st94" cx="7.1" cy="15.3" r="0.7"/>
		</g>
		<g>
			<circle class="st94" cx="5.7" cy="18.4" r="0.7"/>
		</g>
		<g>
			<circle class="st94" cx="8" cy="21.6" r="0.7"/>
		</g>
		<g>
			<circle class="st94" cx="10.3" cy="24.2" r="0.7"/>
		</g>
		<g>
			<circle class="st94" cx="12.8" cy="20.7" r="0.7"/>
		</g>
		<g>
			<circle class="st94" cx="12.5" cy="22.9" r="0.7"/>
		</g>
		<g>
			<circle class="st94" cx="12.8" cy="26.1" r="0.7"/>
		</g>
		<g>
			<circle class="st94" cx="16" cy="27.7" r="0.7"/>
		</g>
		<g>
			<circle class="st94" cx="19.3" cy="26.1" r="0.7"/>
		</g>
		<g>
			<circle class="st94" cx="19.3" cy="23.1" r="0.7"/>
		</g>
		<g>
			<circle class="st94" cx="19.6" cy="20.6" r="0.7"/>
		</g>
		<g>
			<circle class="st94" cx="17.4" cy="19.6" r="0.7"/>
		</g>
		<g>
			<circle class="st94" cx="21.7" cy="24.1" r="0.7"/>
		</g>
		<g>
			<circle class="st94" cx="24.1" cy="21.6" r="0.7"/>
		</g>
		<g>
			<circle class="st94" cx="26.4" cy="18.3" r="0.7"/>
		</g>
		<g>
			<circle class="st94" cx="25.5" cy="15.3" r="0.7"/>
		</g>
		<g>
			<circle class="st94" cx="21.3" cy="10.4" r="0.8"/>
		</g>
		<g>
			<circle class="st94" cx="10.6" cy="10.4" r="0.8"/>
		</g>
		<g>
			<circle class="st94" cx="9.4" cy="18.4" r="0.8"/>
		</g>
		<g>
			<circle class="st94" cx="22.5" cy="18.3" r="0.8"/>
		</g>
		<g>
			<circle class="st94" cx="16" cy="24.3" r="0.8"/>
		</g>
		<g>
			<circle class="st94" cx="16" cy="16.8" r="1.1"/>
		</g>
		<g>
			<polygon class="st94" points="9.5,18.6 9.4,18.1 16,16.5 22.6,18.1 22.5,18.5 16,17 			"/>
		</g>
		<g>
			<polygon class="st94" points="16,17.2 10.5,10.6 10.8,10.2 16,16.4 21.1,10.2 21.5,10.6 			"/>
		</g>
		<g>
			<rect x="15.8" y="16.8" class="st94" width="0.5" height="7.5"/>
		</g>
		<g>
			<polygon class="st94" points="26.4,18.5 22.2,18.5 25.4,15.2 25.6,15.4 22.9,18.1 26.4,18.1 			"/>
		</g>
		<g>
			<polygon class="st94" points="21.8,24.2 21.5,24.1 22.4,17.8 24.2,21.6 23.9,21.7 22.6,18.8 			"/>
		</g>
		<g>
			<polygon class="st94" points="17.5,19.8 17.4,19.5 22.5,18.2 22.6,18.4 			"/>
		</g>
		<g>
			<polygon class="st94" points="15.4,24.7 19.5,20.5 19.7,20.7 16.6,23.9 19.2,23 19.3,23.3 			"/>
		</g>
		<g>
			<polygon class="st94" points="16.1,27.7 15.9,27.7 15.9,24 19.4,26 19.2,26.2 16.1,24.6 			"/>
		</g>
		<g>
			<polygon class="st94" points="12.8,26.2 12.7,26 15.6,24.3 12.4,23.1 12.5,22.8 16.4,24.3 			"/>
		</g>
		<g>
			<polygon class="st94" points="15.9,24.4 13.5,18.8 13.7,18.7 16.1,24.2 			"/>
		</g>
		<g>
			<polygon class="st94" points="10.2,24.2 9.2,18.1 12.8,20.6 12.7,20.9 9.6,18.7 10.5,24.2 			"/>
		</g>
		<g>
			<polygon class="st94" points="9.2,18.8 10.2,13.3 10.5,13.3 9.6,18 13,15.3 13.2,15.5 			"/>
		</g>
		<g>
			<polygon class="st94" points="9.7,18.5 5.7,18.5 5.7,18.2 9.1,18.2 6.9,15.3 7.2,15.2 			"/>
		</g>
		<g>
			
				<rect x="6.9" y="19.9" transform="matrix(0.4037 -0.9149 0.9149 0.4037 -13.1165 19.8781)" class="st94" width="3.6" height="0.3"/>
		</g>
		<g>
			<polygon class="st94" points="7.7,12.9 7.5,12.7 10.3,10.5 7.6,10.1 7.6,9.8 11,10.3 			"/>
		</g>
		<g>
			<polygon class="st94" points="16.9,13.9 10.1,10.3 14.7,10 14.7,10.3 11.2,10.5 17,13.7 			"/>
		</g>
		<g>
			<polygon class="st94" points="10.3,11.1 11.6,5.8 11.9,5.9 11,9.7 14.6,4.9 14.8,5.1 			"/>
		</g>
		<g>
			<polygon class="st94" points="11,10.9 6.6,7 6.8,6.8 10.3,9.9 9.1,6.4 9.4,6.3 			"/>
		</g>
		<g>
			<polygon class="st94" points="21.8,15 21.1,10.1 24.9,12.6 24.7,12.9 21.5,10.7 22.1,15 			"/>
		</g>
		<g>
			<polygon class="st94" points="19.2,16.3 19,16.2 21.1,10.6 17.1,11.4 17.1,11.1 21.6,10.2 			"/>
		</g>
		<g>
			<polygon class="st94" points="20.8,10.6 25.5,6.8 25.7,7 21.8,10.2 24.8,9.8 24.8,10.1 			"/>
		</g>
		<g>
			<polygon class="st94" points="21.3,11 20.4,5.8 20.7,5.8 21.4,9.9 22.9,6.2 23.2,6.4 			"/>
		</g>
		<g>
			<polygon class="st94" points="21.8,10.8 15.5,7.7 15.6,7.5 20.9,10 17.5,5.1 17.7,4.9 			"/>
		</g>
	</g>
</g>
</svg>
